<svg xmlns:dc="http://purl.org/dc/elements/1.1/" xmlns:cc="http://creativecommons.org/ns#" xmlns:rdf="http://www.w3.org/1999/02/22-rdf-syntax-ns#" xmlns:svg="http://www.w3.org/2000/svg" xmlns="http://www.w3.org/2000/svg" viewBox="67 110 988 575" xml:space="preserve" id="svg2" version="1.1"><metadata id="metadata8"><rdf:RDF><cc:Work rdf:about=""><dc:format>image/svg+xml</dc:format><dc:type rdf:resource="http://purl.org/dc/dcmitype/StillImage"/></cc:Work></rdf:RDF></metadata><defs id="defs6"><clipPath id="clipPath40" clipPathUnits="userSpaceOnUse"><path style="clip-rule:evenodd" id="path38" d="M 50.88,83.16 H 790.92 V 512.04 H 50.88 Z"/></clipPath><clipPath id="clipPath56" clipPathUnits="userSpaceOnUse"><path style="clip-rule:evenodd" id="path54" d="M 50.88,83.16 H 790.92 V 512.04 H 50.88 Z"/></clipPath><clipPath id="clipPath72" clipPathUnits="userSpaceOnUse"><path style="clip-rule:evenodd" id="path70" d="M 50.88,83.16 H 790.92 V 512.04 H 50.88 Z"/></clipPath><clipPath id="clipPath88" clipPathUnits="userSpaceOnUse"><path style="clip-rule:evenodd" id="path86" d="M 50.88,83.16 H 790.92 V 512.04 H 50.88 Z"/></clipPath><clipPath id="clipPath104" clipPathUnits="userSpaceOnUse"><path style="clip-rule:evenodd" id="path102" d="M 50.88,83.16 H 790.92 V 512.04 H 50.88 Z"/></clipPath><clipPath id="clipPath120" clipPathUnits="userSpaceOnUse"><path style="clip-rule:evenodd" id="path118" d="M 50.88,83.16 H 790.92 V 512.04 H 50.88 Z"/></clipPath></defs><g transform="matrix(1.3333333,0,0,-1.3333333,0,793.76)" id="g10"><path id="path12" style="fill:#ffffff;fill-opacity:1;fill-rule:evenodd;stroke:none" d="m 50.88,83.274 h 739.99 v 428.79 H 50.88 Z"/><path id="path14" style="fill:#4472c4;fill-opacity:1;fill-rule:evenodd;stroke:none" d="m 420.87,468.33 c 95.3,0 172.56,-77.26 172.56,-172.55 0,-51.37 -22.89,-100.06 -62.43,-132.84 L 420.87,295.78 Z"/><path id="path16" style="fill:none;stroke:#ffffff;stroke-width:1.83969998;stroke-linecap:butt;stroke-linejoin:round;stroke-miterlimit:10;stroke-dasharray:none;stroke-opacity:1" d="m 420.87,468.33 c 95.3,0 172.56,-77.26 172.56,-172.55 0,-51.37 -22.89,-100.06 -62.43,-132.84 L 420.87,295.78 Z"/><path id="path18" style="fill:#ed7d31;fill-opacity:1;fill-rule:evenodd;stroke:none" d="M 531,162.94 C 482.7,122.89 416.47,112.22 358.04,135.07 l 62.83,160.71 z"/><path id="path20" style="fill:none;stroke:#ffffff;stroke-width:1.83969998;stroke-linecap:butt;stroke-linejoin:round;stroke-miterlimit:10;stroke-dasharray:none;stroke-opacity:1" d="M 531,162.94 C 482.7,122.89 416.47,112.22 358.04,135.07 l 62.83,160.71 z"/><path id="path22" style="fill:#a5a5a5;fill-opacity:1;fill-rule:evenodd;stroke:none" d="m 358.04,135.07 c -5.71,2.23 -11.29,4.77 -16.73,7.59 l 79.56,153.12 z"/><path id="path24" style="fill:none;stroke:#ffffff;stroke-width:1.83969998;stroke-linecap:butt;stroke-linejoin:round;stroke-miterlimit:10;stroke-dasharray:none;stroke-opacity:1" d="m 358.04,135.07 c -5.71,2.23 -11.29,4.77 -16.73,7.59 l 79.56,153.12 z"/><path id="path26" style="fill:#ffc000;fill-opacity:1;fill-rule:evenodd;stroke:none" d="m 341.31,142.66 c -84.56,43.94 -117.49,148.11 -73.55,232.68 14.92,28.72 37.63,52.67 65.52,69.1 l 87.59,-148.66 z"/><path id="path28" style="fill:none;stroke:#ffffff;stroke-width:1.83969998;stroke-linecap:butt;stroke-linejoin:round;stroke-miterlimit:10;stroke-dasharray:none;stroke-opacity:1" d="m 341.31,142.66 c -84.56,43.94 -117.49,148.11 -73.55,232.68 14.92,28.72 37.63,52.67 65.52,69.1 l 87.59,-148.66 z"/><path id="path30" style="fill:#5b9bd5;fill-opacity:1;fill-rule:evenodd;stroke:none" d="m 333.27,444.44 c 26.55,15.64 56.8,23.89 87.6,23.89 V 295.78 Z"/><path id="path32" style="fill:none;stroke:#ffffff;stroke-width:1.83969998;stroke-linecap:butt;stroke-linejoin:round;stroke-miterlimit:10;stroke-dasharray:none;stroke-opacity:1" d="m 333.27,444.44 c 26.55,15.64 56.8,23.89 87.6,23.89 V 295.78 Z"/><g id="g34"><g clip-path="url(#clipPath40)" id="g36"><text id="text44" style="font-variant:normal;font-weight:normal;font-size:16.55999947px;font-family:Calibri;-inkscape-font-specification:Calibri;writing-mode:lr-tb;fill:#595959;fill-opacity:1;fill-rule:nonzero;stroke:none" transform="matrix(1,0,0,-1,366.22,487.49)"><tspan id="tspan42" y="0" x="0 10.1844 17.984159 23.366159 31.298401 37.773361 45.854641 51.402241 55.045441 64.633682 73.327682 81.259918 85.068718 92.421356 98.896317 102.70512">Dataset Analysis</tspan></text>
</g></g><path id="path46" style="fill:#4472c4;fill-opacity:1;fill-rule:evenodd;stroke:none" d="m 318.74,97.385 h 5.8297 v 5.8297 H 318.74 Z"/><path id="path48" style="fill:none;stroke:#ffffff;stroke-width:1.76900005;stroke-linecap:butt;stroke-linejoin:round;stroke-miterlimit:10;stroke-dasharray:none;stroke-opacity:1" d="m 318.74,97.385 h 5.8297 v 5.8297 H 318.74 Z"/><g id="g50"><g clip-path="url(#clipPath56)" id="g52"><text id="text60" style="font-variant:normal;font-weight:normal;font-size:10.63199997px;font-family:Calibri;-inkscape-font-specification:Calibri;writing-mode:lr-tb;fill:#595959;fill-opacity:1;fill-rule:nonzero;stroke:none" transform="matrix(1,0,0,-1,327.1,97.224)"><tspan id="tspan58" y="0" x="0 4.795032 9.8877602 14.385096">Fact</tspan></text>
</g></g><path id="path62" style="fill:#ed7d31;fill-opacity:1;fill-rule:evenodd;stroke:none" d="m 354.64,97.385 h 5.8297 v 5.8297 H 354.64 Z"/><path id="path64" style="fill:none;stroke:#ffffff;stroke-width:1.76900005;stroke-linecap:butt;stroke-linejoin:round;stroke-miterlimit:10;stroke-dasharray:none;stroke-opacity:1" d="m 354.64,97.385 h 5.8297 v 5.8297 H 354.64 Z"/><g id="g66"><g clip-path="url(#clipPath72)" id="g68"><text id="text76" style="font-variant:normal;font-weight:normal;font-size:10.63199997px;font-family:Calibri;-inkscape-font-specification:Calibri;writing-mode:lr-tb;fill:#595959;fill-opacity:1;fill-rule:nonzero;stroke:none" transform="matrix(1,0,0,-1,362.98,97.224)"><tspan id="tspan74" y="0" x="0 6.0921359 9.7814398 13.34316 17.053728 19.45656 24.974567 30.630793 34.192513">Attribute</tspan></text>
</g></g><path id="path78" style="fill:#a5a5a5;fill-opacity:1;fill-rule:evenodd;stroke:none" d="m 411.91,97.385 h 5.8297 v 5.8297 H 411.91 Z"/><path id="path80" style="fill:none;stroke:#ffffff;stroke-width:1.76900005;stroke-linecap:butt;stroke-linejoin:round;stroke-miterlimit:10;stroke-dasharray:none;stroke-opacity:1" d="m 411.91,97.385 h 5.8297 v 5.8297 H 411.91 Z"/><g id="g82"><g clip-path="url(#clipPath88)" id="g84"><text id="text92" style="font-variant:normal;font-weight:normal;font-size:10.63199997px;font-family:Calibri;-inkscape-font-specification:Calibri;writing-mode:lr-tb;fill:#595959;fill-opacity:1;fill-rule:nonzero;stroke:none" transform="matrix(1,0,0,-1,420.26,97.224)"><tspan id="tspan90" y="0" x="0 4.8269281 10.196088 15.288816 18.999384 23.528616">Search</tspan></text>
</g></g><path id="path94" style="fill:#ffc000;fill-opacity:1;fill-rule:evenodd;stroke:none" d="m 458.82,97.385 h 5.8297 v 5.8297 H 458.82 Z"/><path id="path96" style="fill:none;stroke:#ffffff;stroke-width:1.76900005;stroke-linecap:butt;stroke-linejoin:round;stroke-miterlimit:10;stroke-dasharray:none;stroke-opacity:1" d="m 458.82,97.385 h 5.8297 v 5.8297 H 458.82 Z"/><g id="g98"><g clip-path="url(#clipPath104)" id="g100"><text id="text108" style="font-variant:normal;font-weight:normal;font-size:10.63199997px;font-family:Calibri;-inkscape-font-specification:Calibri;writing-mode:lr-tb;fill:#595959;fill-opacity:1;fill-rule:nonzero;stroke:none" transform="matrix(1,0,0,-1,467.18,97.224)"><tspan id="tspan106" y="0" x="0 2.6792641 8.2079039 11.450664">Info</tspan></text>
</g></g><path id="path110" style="fill:#5b9bd5;fill-opacity:1;fill-rule:evenodd;stroke:none" d="m 493.79,97.385 h 5.8297 v 5.8297 H 493.79 Z"/><path id="path112" style="fill:none;stroke:#ffffff;stroke-width:1.76900005;stroke-linecap:butt;stroke-linejoin:round;stroke-miterlimit:10;stroke-dasharray:none;stroke-opacity:1" d="m 493.79,97.385 h 5.8297 v 5.8297 H 493.79 Z"/><g id="g114"><g clip-path="url(#clipPath120)" id="g116"><text id="text124" style="font-variant:normal;font-weight:normal;font-size:10.63199997px;font-family:Calibri;-inkscape-font-specification:Calibri;writing-mode:lr-tb;fill:#595959;fill-opacity:1;fill-rule:nonzero;stroke:none" transform="matrix(1,0,0,-1,502.18,97.224)"><tspan id="tspan122" y="0" x="0 7.038384 10.600104 16.075584 21.444744">Other</tspan></text>
</g></g><path id="path126" style="fill:none;stroke:#d9d9d9;stroke-width:0.88448;stroke-linecap:butt;stroke-linejoin:round;stroke-miterlimit:10;stroke-dasharray:none;stroke-opacity:1" d="m 50.88,83.274 h 739.99 v 428.79 H 50.88 Z"/></g></svg>