<svg xmlns:dc="http://purl.org/dc/elements/1.1/" xmlns:cc="http://creativecommons.org/ns#" xmlns:rdf="http://www.w3.org/1999/02/22-rdf-syntax-ns#" xmlns:svg="http://www.w3.org/2000/svg" xmlns="http://www.w3.org/2000/svg" viewBox="67 110 988 575" xml:space="preserve" id="svg2" version="1.1"><metadata id="metadata8"><rdf:RDF><cc:Work rdf:about=""><dc:format>image/svg+xml</dc:format><dc:type rdf:resource="http://purl.org/dc/dcmitype/StillImage"/></cc:Work></rdf:RDF></metadata><defs id="defs6"><clipPath id="clipPath40" clipPathUnits="userSpaceOnUse"><path style="clip-rule:evenodd" id="path38" d="M 50.88,83.4 H 790.92 V 511.92 H 50.88 Z"/></clipPath><clipPath id="clipPath52" clipPathUnits="userSpaceOnUse"><path style="clip-rule:evenodd" id="path50" d="M 50.88,83.4 H 790.92 V 511.92 H 50.88 Z"/></clipPath><clipPath id="clipPath64" clipPathUnits="userSpaceOnUse"><path style="clip-rule:evenodd" id="path62" d="M 50.88,83.4 H 790.92 V 511.92 H 50.88 Z"/></clipPath><clipPath id="clipPath76" clipPathUnits="userSpaceOnUse"><path style="clip-rule:evenodd" id="path74" d="M 50.88,83.4 H 790.92 V 511.92 H 50.88 Z"/></clipPath><clipPath id="clipPath88" clipPathUnits="userSpaceOnUse"><path style="clip-rule:evenodd" id="path86" d="M 50.88,83.4 H 790.92 V 511.92 H 50.88 Z"/></clipPath><clipPath id="clipPath100" clipPathUnits="userSpaceOnUse"><path style="clip-rule:evenodd" id="path98" d="M 50.88,83.4 H 790.92 V 511.92 H 50.88 Z"/></clipPath><clipPath id="clipPath112" clipPathUnits="userSpaceOnUse"><path style="clip-rule:evenodd" id="path110" d="M 50.88,83.4 H 790.92 V 511.92 H 50.88 Z"/></clipPath><clipPath id="clipPath124" clipPathUnits="userSpaceOnUse"><path style="clip-rule:evenodd" id="path122" d="M 50.88,83.4 H 790.92 V 511.92 H 50.88 Z"/></clipPath><clipPath id="clipPath136" clipPathUnits="userSpaceOnUse"><path style="clip-rule:evenodd" id="path134" d="M 50.88,83.4 H 790.92 V 511.92 H 50.88 Z"/></clipPath><clipPath id="clipPath148" clipPathUnits="userSpaceOnUse"><path style="clip-rule:evenodd" id="path146" d="M 50.88,83.4 H 790.92 V 511.92 H 50.88 Z"/></clipPath><clipPath id="clipPath160" clipPathUnits="userSpaceOnUse"><path style="clip-rule:evenodd" id="path158" d="M 50.88,83.4 H 790.92 V 511.92 H 50.88 Z"/></clipPath><clipPath id="clipPath172" clipPathUnits="userSpaceOnUse"><path style="clip-rule:evenodd" id="path170" d="M 50.88,83.4 H 790.92 V 511.92 H 50.88 Z"/></clipPath><clipPath id="clipPath186" clipPathUnits="userSpaceOnUse"><path style="clip-rule:evenodd" id="path184" d="M 50.88,83.4 H 790.92 V 511.92 H 50.88 Z"/></clipPath><clipPath id="clipPath200" clipPathUnits="userSpaceOnUse"><path style="clip-rule:evenodd" id="path198" d="M 50.88,83.4 H 790.92 V 511.92 H 50.88 Z"/></clipPath><clipPath id="clipPath214" clipPathUnits="userSpaceOnUse"><path style="clip-rule:evenodd" id="path212" d="M 50.88,83.4 H 790.92 V 511.92 H 50.88 Z"/></clipPath><clipPath id="clipPath228" clipPathUnits="userSpaceOnUse"><path style="clip-rule:evenodd" id="path226" d="M 50.88,83.4 H 790.92 V 511.92 H 50.88 Z"/></clipPath><clipPath id="clipPath242" clipPathUnits="userSpaceOnUse"><path style="clip-rule:evenodd" id="path240" d="M 50.88,83.4 H 790.92 V 511.92 H 50.88 Z"/></clipPath><clipPath id="clipPath256" clipPathUnits="userSpaceOnUse"><path style="clip-rule:evenodd" id="path254" d="M 50.88,83.4 H 790.92 V 511.92 H 50.88 Z"/></clipPath><clipPath id="clipPath270" clipPathUnits="userSpaceOnUse"><path style="clip-rule:evenodd" id="path268" d="M 50.88,83.4 H 790.92 V 511.92 H 50.88 Z"/></clipPath><clipPath id="clipPath284" clipPathUnits="userSpaceOnUse"><path style="clip-rule:evenodd" id="path282" d="M 50.88,83.4 H 790.92 V 511.92 H 50.88 Z"/></clipPath></defs><g transform="matrix(1.3333333,0,0,-1.3333333,0,793.76)" id="g10"><path id="path12" style="fill:#ffffff;fill-opacity:1;fill-rule:evenodd;stroke:none" d="M 50.88,83.427 H 790.9 v 428.52 H 50.88 Z"/><path id="path14" style="fill:none;stroke:#d9d9d9;stroke-width:0.85540003;stroke-linecap:butt;stroke-linejoin:round;stroke-miterlimit:10;stroke-dasharray:none;stroke-opacity:1" d="M 239.34,469.65 V 135.98 M 372.78,469.65 V 135.98 M 506.23,469.65 V 135.98 M 639.67,469.65 V 135.98 M 773.16,469.65 V 135.98"/><path id="path16" style="fill:#25d93a;fill-opacity:1;fill-rule:nonzero;stroke:none" d="M 212.65,155.97 H 105.91 v 26.68 h 106.74 z m -80.06,66.78 h -26.68 v 26.69 h 26.68 z m 0,66.66 h -26.68 v 26.69 h 26.68 z M 346.1,356.2 H 105.91 v 26.69 H 346.1 Z"/><path id="path18" style="fill:#65d925;fill-opacity:1;fill-rule:nonzero;stroke:none" d="M 426.16,155.97 H 212.65 v 26.68 h 213.51 z m -240.19,66.78 h -53.38 v 26.69 h 53.38 z M 372.78,356.2 H 346.1 v 26.69 h 26.68 z"/><path id="path20" style="fill:#90d925;fill-opacity:1;fill-rule:nonzero;stroke:none" d="m 452.85,155.97 h -26.69 v 26.68 h 26.69 z m -240.2,66.78 h -26.68 v 26.69 h 26.68 z M 426.16,356.2 h -53.38 v 26.69 h 53.38 z"/><path id="path22" style="fill:#bbd925;fill-opacity:1;fill-rule:nonzero;stroke:none" d="M 559.6,155.97 H 452.85 v 26.68 H 559.6 Z M 479.54,356.2 h -53.38 v 26.69 h 53.38 z"/><path id="path24" style="fill:#d9a625;fill-opacity:1;fill-rule:nonzero;stroke:none" d="M 639.67,155.97 H 559.6 v 26.68 h 80.07 z M 372.78,222.75 H 212.65 v 26.69 H 372.78 Z M 559.6,356.2 h -80.06 v 26.69 h 80.06 z m -373.63,66.79 h -80.06 v 26.69 h 80.06 z"/><path id="path26" style="fill:#d07624;fill-opacity:1;fill-rule:nonzero;stroke:none" d="m 719.74,155.97 h -80.07 v 26.68 h 80.07 z M 586.29,356.2 H 559.6 v 26.69 h 26.69 z m -373.64,66.79 h -26.68 v 26.69 h 26.68 z"/><path id="path28" style="fill:#da5126;fill-opacity:1;fill-rule:nonzero;stroke:none" d="m 586.29,356.2 h 26.688 v 26.689 H 586.29 Z"/><path id="path30" style="fill:#da2626;fill-opacity:1;fill-rule:nonzero;stroke:none" d="m 639.67,356.2 h -26.69 v 26.69 h 26.69 z m -400.33,66.79 h -26.69 v 26.69 h 26.69 z"/><path id="path32" style="fill:none;stroke:#d9d9d9;stroke-width:0.85540003;stroke-linecap:butt;stroke-linejoin:round;stroke-miterlimit:10;stroke-dasharray:none;stroke-opacity:1" d="M 105.91,135.98 V 469.65"/><g id="g34"><g clip-path="url(#clipPath40)" id="g36"><text id="text44" style="font-variant:normal;font-weight:normal;font-size:10.24800014px;font-family:Calibri;-inkscape-font-specification:Calibri;writing-mode:lr-tb;fill:#595959;fill-opacity:1;fill-rule:nonzero;stroke:none" transform="matrix(1,0,0,-1,103.32,119.64)"><tspan id="tspan42" y="0" x="0">0</tspan></text>
</g></g><g id="g46"><g clip-path="url(#clipPath52)" id="g48"><text id="text56" style="font-variant:normal;font-weight:normal;font-size:10.24800014px;font-family:Calibri;-inkscape-font-specification:Calibri;writing-mode:lr-tb;fill:#595959;fill-opacity:1;fill-rule:nonzero;stroke:none" transform="matrix(1,0,0,-1,236.78,119.64)"><tspan id="tspan54" y="0" x="0">5</tspan></text>
</g></g><g id="g58"><g clip-path="url(#clipPath64)" id="g60"><text id="text68" style="font-variant:normal;font-weight:normal;font-size:10.24800014px;font-family:Calibri;-inkscape-font-specification:Calibri;writing-mode:lr-tb;fill:#595959;fill-opacity:1;fill-rule:nonzero;stroke:none" transform="matrix(1,0,0,-1,367.66,119.64)"><tspan id="tspan66" y="0" x="0 5.2080359">10</tspan></text>
</g></g><g id="g70"><g clip-path="url(#clipPath76)" id="g72"><text id="text80" style="font-variant:normal;font-weight:normal;font-size:10.24800014px;font-family:Calibri;-inkscape-font-specification:Calibri;writing-mode:lr-tb;fill:#595959;fill-opacity:1;fill-rule:nonzero;stroke:none" transform="matrix(1,0,0,-1,501.12,119.64)"><tspan id="tspan78" y="0" x="0 5.2080359">15</tspan></text>
</g></g><g id="g82"><g clip-path="url(#clipPath88)" id="g84"><text id="text92" style="font-variant:normal;font-weight:normal;font-size:10.24800014px;font-family:Calibri;-inkscape-font-specification:Calibri;writing-mode:lr-tb;fill:#595959;fill-opacity:1;fill-rule:nonzero;stroke:none" transform="matrix(1,0,0,-1,634.58,119.64)"><tspan id="tspan90" y="0" x="0 5.2080359">20</tspan></text>
</g></g><g id="g94"><g clip-path="url(#clipPath100)" id="g96"><text id="text104" style="font-variant:normal;font-weight:normal;font-size:10.24800014px;font-family:Calibri;-inkscape-font-specification:Calibri;writing-mode:lr-tb;fill:#595959;fill-opacity:1;fill-rule:nonzero;stroke:none" transform="matrix(1,0,0,-1,768.07,119.64)"><tspan id="tspan102" y="0" x="0 5.1840358">25</tspan></text>
</g></g><g id="g106"><g clip-path="url(#clipPath112)" id="g108"><text id="text116" style="font-variant:normal;font-weight:normal;font-size:10.27200031px;font-family:Calibri;-inkscape-font-specification:Calibri;writing-mode:lr-tb;fill:#595959;fill-opacity:1;fill-rule:nonzero;stroke:none" transform="matrix(1,0,0,-1,78.984,166.37)"><tspan id="tspan114" y="0" x="0 4.6532159 9.5735044 13.980192">Fact</tspan></text>
</g></g><g id="g118"><g clip-path="url(#clipPath124)" id="g120"><text id="text128" style="font-variant:normal;font-weight:normal;font-size:10.24800014px;font-family:Calibri;-inkscape-font-specification:Calibri;writing-mode:lr-tb;fill:#595959;fill-opacity:1;fill-rule:nonzero;stroke:none" transform="matrix(1,0,0,-1,58.296,233.11)"><tspan id="tspan126" y="0" x="0 5.8823519 9.4486561 12.881736 16.458288 18.815329 24.134041 29.596224 33.029305">Attribute</tspan></text>
</g></g><g id="g130"><g clip-path="url(#clipPath136)" id="g132"><text id="text140" style="font-variant:normal;font-weight:normal;font-size:10.24800014px;font-family:Calibri;-inkscape-font-specification:Calibri;writing-mode:lr-tb;fill:#595959;fill-opacity:1;fill-rule:nonzero;stroke:none" transform="matrix(1,0,0,-1,68.352,299.86)"><tspan id="tspan138" y="0" x="0 4.6320958 9.8073359 14.716128 18.292681 22.627584">Search</tspan></text>
</g></g><g id="g142"><g clip-path="url(#clipPath148)" id="g144"><text id="text152" style="font-variant:normal;font-weight:normal;font-size:10.27200031px;font-family:Calibri;-inkscape-font-specification:Calibri;writing-mode:lr-tb;fill:#595959;fill-opacity:1;fill-rule:nonzero;stroke:none" transform="matrix(1,0,0,-1,79.872,366.62)"><tspan id="tspan150" y="0" x="0 2.5885439 7.9197121 11.052672">Info</tspan></text>
</g></g><g id="g154"><g clip-path="url(#clipPath160)" id="g156"><text id="text164" style="font-variant:normal;font-weight:normal;font-size:10.27200031px;font-family:Calibri;-inkscape-font-specification:Calibri;writing-mode:lr-tb;fill:#595959;fill-opacity:1;fill-rule:nonzero;stroke:none" transform="matrix(1,0,0,-1,72.072,433.37)"><tspan id="tspan162" y="0" x="0 6.8308802 10.272 15.61344 20.811071">Other</tspan></text>
</g></g><g id="g166"><g clip-path="url(#clipPath172)" id="g168"><text id="text176" style="font-variant:normal;font-weight:normal;font-size:16.00799942px;font-family:Calibri;-inkscape-font-specification:Calibri;writing-mode:lr-tb;fill:#595959;fill-opacity:1;fill-rule:nonzero;stroke:none" transform="matrix(1,0,0,-1,359.38,488.18)"><tspan id="tspan174" y="0" x="0 8.500248 16.472233 22.731359 31.135559 34.817402 40.18008 46.439209 49.896935 58.637302 63.983974 71.955963 79.623795 86.443199 94.799377 103.28362 114.76135">Results Breakdown</tspan></text>
</g></g><path id="path178" style="fill:#25d93a;fill-opacity:1;fill-rule:evenodd;stroke:none" d="m 193.19,97.075 h 5.638 v 5.638 h -5.638 z"/><g id="g180"><g clip-path="url(#clipPath186)" id="g182"><text id="text190" style="font-variant:normal;font-weight:normal;font-size:10.27200031px;font-family:Calibri;-inkscape-font-specification:Calibri;writing-mode:lr-tb;fill:#595959;fill-opacity:1;fill-rule:nonzero;stroke:none" transform="matrix(1,0,0,-1,201.24,96.912)"><tspan id="tspan188" y="0" x="0 5.0538239 10.405536 15.87024 18.058176 23.399616 28.319904 33.158016 38.345375 40.666847 45.741215 48.062687 50.671776 54.112896 59.166721">Top Page + Item</tspan></text>
</g></g><path id="path192" style="fill:#65d925;fill-opacity:1;fill-rule:evenodd;stroke:none" d="m 280.74,97.075 h 5.638 v 5.638 h -5.638 z"/><g id="g194"><g clip-path="url(#clipPath200)" id="g196"><text id="text204" style="font-variant:normal;font-weight:normal;font-size:10.27200031px;font-family:Calibri;-inkscape-font-specification:Calibri;writing-mode:lr-tb;fill:#595959;fill-opacity:1;fill-rule:nonzero;stroke:none" transform="matrix(1,0,0,-1,288.82,96.912)"><tspan id="tspan202" y="0" x="0 5.0538239 10.384992 15.849696 18.037632 20.626177 24.170015 29.234112">Top Item</tspan></text>
</g></g><path id="path206" style="fill:#90d925;fill-opacity:1;fill-rule:evenodd;stroke:none" d="m 338.38,97.075 h 5.638 v 5.638 h -5.638 z"/><g id="g208"><g clip-path="url(#clipPath214)" id="g210"><text id="text218" style="font-variant:normal;font-weight:normal;font-size:10.27200031px;font-family:Calibri;-inkscape-font-specification:Calibri;writing-mode:lr-tb;fill:#595959;fill-opacity:1;fill-rule:nonzero;stroke:none" transform="matrix(1,0,0,-1,346.46,96.912)"><tspan id="tspan216" y="0" x="0 5.0538239 10.384992 15.849696 18.037632 23.348255 28.268543 33.065567">Top Page</tspan></text>
</g></g><path id="path220" style="fill:#bbd925;fill-opacity:1;fill-rule:evenodd;stroke:none" d="m 396.85,97.075 h 5.638 v 5.638 h -5.638 z"/><g id="g222"><g clip-path="url(#clipPath228)" id="g224"><text id="text232" style="font-variant:normal;font-weight:normal;font-size:10.27200031px;font-family:Calibri;-inkscape-font-specification:Calibri;writing-mode:lr-tb;fill:#595959;fill-opacity:1;fill-rule:nonzero;stroke:none" transform="matrix(1,0,0,-1,404.93,96.912)"><tspan id="tspan230" y="0" x="0 5.5879679 10.93968 14.493792 18.18144 20.513184 25.57728">Burried</tspan></text>
</g></g><path id="path234" style="fill:#d9a625;fill-opacity:1;fill-rule:evenodd;stroke:none" d="m 448.02,97.075 h 5.638 v 5.638 h -5.638 z"/><g id="g236"><g clip-path="url(#clipPath242)" id="g238"><text id="text246" style="font-variant:normal;font-weight:normal;font-size:10.27200031px;font-family:Calibri;-inkscape-font-specification:Calibri;writing-mode:lr-tb;fill:#595959;fill-opacity:1;fill-rule:nonzero;stroke:none" transform="matrix(1,0,0,-1,456.12,96.912)"><tspan id="tspan244" y="0" x="0 5.5776958 10.652064 12.983808 18.160896 22.670303 27.590591 33.055298">Relevant</tspan></text>
</g></g><path id="path248" style="fill:#d07624;fill-opacity:1;fill-rule:evenodd;stroke:none" d="m 504.73,97.075 h 5.638 v 5.638 h -5.638 z"/><g id="g250"><g clip-path="url(#clipPath256)" id="g252"><text id="text260" style="font-variant:normal;font-weight:normal;font-size:10.27200031px;font-family:Calibri;-inkscape-font-specification:Calibri;writing-mode:lr-tb;fill:#595959;fill-opacity:1;fill-rule:nonzero;stroke:none" transform="matrix(1,0,0,-1,512.83,96.912)"><tspan id="tspan258" y="0" x="0 2.5885439 6.1734719 9.6967678 14.873856 17.205601 22.269695 26.91264 31.832928 37.17437">Irrelevant</tspan></text>
</g></g><path id="path262" style="fill:#da5126;fill-opacity:1;fill-rule:evenodd;stroke:none" d="m 565.61,97.075 h 5.638 v 5.638 h -5.638 z"/><g id="g264"><g clip-path="url(#clipPath270)" id="g266"><text id="text274" style="font-variant:normal;font-weight:normal;font-size:10.27200031px;font-family:Calibri;-inkscape-font-specification:Calibri;writing-mode:lr-tb;fill:#595959;fill-opacity:1;fill-rule:nonzero;stroke:none" transform="matrix(1,0,0,-1,573.72,96.912)"><tspan id="tspan272" y="0" x="0 6.57408 12.038784 14.360256 16.948799 20.389919 25.454016 33.661343">No Items</tspan></text>
</g></g><path id="path276" style="fill:#da2626;fill-opacity:1;fill-rule:evenodd;stroke:none" d="m 623.5,97.075 h 5.638 v 5.638 H 623.5 Z"/><g id="g278"><g clip-path="url(#clipPath284)" id="g280"><text id="text288" style="font-variant:normal;font-weight:normal;font-size:10.27200031px;font-family:Calibri;-inkscape-font-specification:Calibri;writing-mode:lr-tb;fill:#595959;fill-opacity:1;fill-rule:nonzero;stroke:none" transform="matrix(1,0,0,-1,631.61,96.912)"><tspan id="tspan286" y="0" x="0 5.0538239 8.638752 12.22368 17.667839">Error</tspan></text>
</g></g><path id="path290" style="fill:none;stroke:#d9d9d9;stroke-width:0.85540003;stroke-linecap:butt;stroke-linejoin:round;stroke-miterlimit:10;stroke-dasharray:none;stroke-opacity:1" d="M 50.88,83.427 H 790.9 v 428.52 H 50.88 Z"/></g></svg>