<svg xmlns:dc="http://purl.org/dc/elements/1.1/" xmlns:cc="http://creativecommons.org/ns#" xmlns:rdf="http://www.w3.org/1999/02/22-rdf-syntax-ns#" xmlns:svg="http://www.w3.org/2000/svg" xmlns="http://www.w3.org/2000/svg" viewBox="67 106 988 582" xml:space="preserve" id="svg2" version="1.1"><metadata id="metadata8"><rdf:rdf><cc:work rdf:about=""><dc:format>image/svg+xml</dc:format><dc:type rdf:resource="http://purl.org/dc/dcmitype/StillImage"></dc:type></cc:work></rdf:rdf></metadata><defs id="defs6"><clipPath id="clipPath52" clipPathUnits="userSpaceOnUse"><path style="clip-rule:evenodd" id="path50" d="M 50.88,79.92 H 790.92 V 515.28 H 50.88 Z"></path></clipPath><clipPath id="clipPath68" clipPathUnits="userSpaceOnUse"><path style="clip-rule:evenodd" id="path66" d="M 50.88,79.92 H 790.92 V 515.28 H 50.88 Z"></path></clipPath><clipPath id="clipPath84" clipPathUnits="userSpaceOnUse"><path style="clip-rule:evenodd" id="path82" d="M 50.88,79.92 H 790.92 V 515.28 H 50.88 Z"></path></clipPath><clipPath id="clipPath100" clipPathUnits="userSpaceOnUse"><path style="clip-rule:evenodd" id="path98" d="M 50.88,79.92 H 790.92 V 515.28 H 50.88 Z"></path></clipPath><clipPath id="clipPath116" clipPathUnits="userSpaceOnUse"><path style="clip-rule:evenodd" id="path114" d="M 50.88,79.92 H 790.92 V 515.28 H 50.88 Z"></path></clipPath><clipPath id="clipPath132" clipPathUnits="userSpaceOnUse"><path style="clip-rule:evenodd" id="path130" d="M 50.88,79.92 H 790.92 V 515.28 H 50.88 Z"></path></clipPath><clipPath id="clipPath148" clipPathUnits="userSpaceOnUse"><path style="clip-rule:evenodd" id="path146" d="M 50.88,79.92 H 790.92 V 515.28 H 50.88 Z"></path></clipPath><clipPath id="clipPath164" clipPathUnits="userSpaceOnUse"><path style="clip-rule:evenodd" id="path162" d="M 50.88,79.92 H 790.92 V 515.28 H 50.88 Z"></path></clipPath><clipPath id="clipPath180" clipPathUnits="userSpaceOnUse"><path style="clip-rule:evenodd" id="path178" d="M 50.88,79.92 H 790.92 V 515.28 H 50.88 Z"></path></clipPath></defs><g transform="matrix(1.3333333,0,0,-1.3333333,0,793.76)" id="g10"><path id="path12" style="fill:#ffffff;fill-opacity:1;fill-rule:evenodd;stroke:none" d="m 50.88,79.989 h 739.97 v 435.37 H 50.88 Z"></path><path id="path14" style="fill:#25d93a;fill-opacity:1;fill-rule:evenodd;stroke:none" d="m 372.44,470.99 c 104.34,0 188.92,-84.58 188.92,-188.92 0,-1.68 -0.02,-3.35 -0.06,-5.03 l -188.86,5.03 z"></path><path id="path16" style="fill:none;stroke:#ffffff;stroke-width:1.86609995;stroke-linecap:butt;stroke-linejoin:round;stroke-miterlimit:10;stroke-dasharray:none;stroke-opacity:1" d="m 372.44,470.99 c 104.34,0 188.92,-84.58 188.92,-188.92 0,-1.68 -0.02,-3.35 -0.06,-5.03 l -188.86,5.03 z"></path><path id="path18" style="fill:#3ad925;fill-opacity:1;fill-rule:evenodd;stroke:none" d="M 561.3,277.04 C 559.28,201.11 511.98,133.78 441.24,106.12 l -68.8,175.95 z"></path><path id="path20" style="fill:none;stroke:#ffffff;stroke-width:1.86609995;stroke-linecap:butt;stroke-linejoin:round;stroke-miterlimit:10;stroke-dasharray:none;stroke-opacity:1" d="M 561.3,277.04 C 559.28,201.11 511.98,133.78 441.24,106.12 l -68.8,175.95 z"></path><path id="path22" style="fill:#65d925;fill-opacity:1;fill-rule:evenodd;stroke:none" d="M 441.24,106.12 C 416.16,96.314 389.28,91.982 362.39,93.415 l 10.05,188.655 z"></path><path id="path24" style="fill:none;stroke:#ffffff;stroke-width:1.86609995;stroke-linecap:butt;stroke-linejoin:round;stroke-miterlimit:10;stroke-dasharray:none;stroke-opacity:1" d="M 441.24,106.12 C 416.16,96.314 389.28,91.982 362.39,93.415 l 10.05,188.655 z"></path><path id="path26" style="fill:#90d925;fill-opacity:1;fill-rule:evenodd;stroke:none" d="m 362.39,93.415 c -40.53,2.16 -79.28,17.315 -110.53,43.215 l 120.58,145.44 z"></path><path id="path28" style="fill:none;stroke:#ffffff;stroke-width:1.86609995;stroke-linecap:butt;stroke-linejoin:round;stroke-miterlimit:10;stroke-dasharray:none;stroke-opacity:1" d="m 362.39,93.415 c -40.53,2.16 -79.28,17.315 -110.53,43.215 l 120.58,145.44 z"></path><path id="path30" style="fill:#d9a625;fill-opacity:1;fill-rule:evenodd;stroke:none" d="m 251.86,136.63 c -80.32,66.59 -91.45,185.7 -24.86,266.02 1.07,1.29 2.16,2.57 3.26,3.83 L 372.44,282.07 Z"></path><path id="path32" style="fill:none;stroke:#ffffff;stroke-width:1.86609995;stroke-linecap:butt;stroke-linejoin:round;stroke-miterlimit:10;stroke-dasharray:none;stroke-opacity:1" d="m 251.86,136.63 c -80.32,66.59 -91.45,185.7 -24.86,266.02 1.07,1.29 2.16,2.57 3.26,3.83 L 372.44,282.07 Z"></path><path id="path34" style="fill:#d97b25;fill-opacity:1;fill-rule:evenodd;stroke:none" d="m 230.27,406.48 c 22.21,25.38 50.81,44.36 82.84,54.95 l 59.33,-179.36 z"></path><path id="path36" style="fill:none;stroke:#ffffff;stroke-width:1.86609995;stroke-linecap:butt;stroke-linejoin:round;stroke-miterlimit:10;stroke-dasharray:none;stroke-opacity:1" d="m 230.27,406.48 c 22.21,25.38 50.81,44.36 82.84,54.95 l 59.33,-179.36 z"></path><path id="path38" style="fill:#d95025;fill-opacity:1;fill-rule:evenodd;stroke:none" d="m 313.11,461.43 c 6.36,2.11 12.84,3.88 19.4,5.29 l 39.93,-184.65 z"></path><path id="path40" style="fill:none;stroke:#ffffff;stroke-width:1.86609995;stroke-linecap:butt;stroke-linejoin:round;stroke-miterlimit:10;stroke-dasharray:none;stroke-opacity:1" d="m 313.11,461.43 c 6.36,2.11 12.84,3.88 19.4,5.29 l 39.93,-184.65 z"></path><path id="path42" style="fill:#da2626;fill-opacity:1;fill-rule:evenodd;stroke:none" d="m 332.51,466.72 c 13.12,2.84 26.51,4.27 39.93,4.27 V 282.07 Z"></path><path id="path44" style="fill:none;stroke:#ffffff;stroke-width:1.86609995;stroke-linecap:butt;stroke-linejoin:round;stroke-miterlimit:10;stroke-dasharray:none;stroke-opacity:1" d="m 332.51,466.72 c 13.12,2.84 26.51,4.27 39.93,4.27 V 282.07 Z"></path><g id="g46"><g clip-path="url(#clipPath52)" id="g48"><text id="text56" style="font-variant:normal;font-weight:normal;font-size:16.79999924px;font-family:Calibri;-inkscape-font-specification:Calibri;writing-mode:lr-tb;fill:#595959;fill-opacity:1;fill-rule:nonzero;stroke:none" transform="matrix(1,0,0,-1,396.53,490.44)"><tspan id="tspan54" y="0" x="0 8.8872004 17.186399 23.755199 32.524799 36.388802 42.0168">Results</tspan></text>
</g></g><path id="path58" style="fill:#25d93a;fill-opacity:1;fill-rule:evenodd;stroke:none" d="m 699.65,349.76 h 5.9132 v 5.9132 H 699.65 Z"></path><path id="path60" style="fill:none;stroke:#ffffff;stroke-width:1.79429996;stroke-linecap:butt;stroke-linejoin:round;stroke-miterlimit:10;stroke-dasharray:none;stroke-opacity:1" d="m 699.65,349.76 h 5.9132 v 5.9132 H 699.65 Z"></path><g id="g62"><g clip-path="url(#clipPath68)" id="g64"><text id="text72" style="font-variant:normal;font-weight:normal;font-size:10.77600002px;font-family:Calibri;-inkscape-font-specification:Calibri;writing-mode:lr-tb;fill:#595959;fill-opacity:1;fill-rule:nonzero;stroke:none" transform="matrix(1,0,0,-1,708.17,349.66)"><tspan id="tspan70" y="0" x="0 5.2910161 10.88376 16.605816 18.91188 24.483072 29.644775 34.67717 40.119049 42.554424 47.866993 50.302368 53.039471 56.649433 61.940449">Top Page + Item</tspan></text>
</g></g><path id="path74" style="fill:#3ad925;fill-opacity:1;fill-rule:evenodd;stroke:none" d="m 699.65,329.58 h 5.9132 v 5.9132 H 699.65 Z"></path><path id="path76" style="fill:none;stroke:#ffffff;stroke-width:1.79429996;stroke-linecap:butt;stroke-linejoin:round;stroke-miterlimit:10;stroke-dasharray:none;stroke-opacity:1" d="m 699.65,329.58 h 5.9132 v 5.9132 H 699.65 Z"></path><g id="g78"><g clip-path="url(#clipPath84)" id="g80"><text id="text88" style="font-variant:normal;font-weight:normal;font-size:10.75199986px;font-family:Calibri;-inkscape-font-specification:Calibri;writing-mode:lr-tb;fill:#595959;fill-opacity:1;fill-rule:nonzero;stroke:none" transform="matrix(1,0,0,-1,708.17,329.45)"><tspan id="tspan86" y="0" x="0 5.2899842 10.881024 16.601088 18.902016 21.611521 25.37472 30.675455">Top Item</tspan></text>
</g></g><path id="path90" style="fill:#65d925;fill-opacity:1;fill-rule:evenodd;stroke:none" d="m 699.65,309.39 h 5.9132 v 5.9132 H 699.65 Z"></path><path id="path92" style="fill:none;stroke:#ffffff;stroke-width:1.79429996;stroke-linecap:butt;stroke-linejoin:round;stroke-miterlimit:10;stroke-dasharray:none;stroke-opacity:1" d="m 699.65,309.39 h 5.9132 v 5.9132 H 699.65 Z"></path><g id="g94"><g clip-path="url(#clipPath100)" id="g96"><text id="text104" style="font-variant:normal;font-weight:normal;font-size:10.77600002px;font-family:Calibri;-inkscape-font-specification:Calibri;writing-mode:lr-tb;fill:#595959;fill-opacity:1;fill-rule:nonzero;stroke:none" transform="matrix(1,0,0,-1,708.17,309.26)"><tspan id="tspan102" y="0" x="0 5.2910161 10.88376 16.605816 18.91188 24.483072 29.644775 34.67717">Top Page</tspan></text>
</g></g><path id="path106" style="fill:#90d925;fill-opacity:1;fill-rule:evenodd;stroke:none" d="m 699.65,289.21 h 5.9132 v 5.9132 H 699.65 Z"></path><path id="path108" style="fill:none;stroke:#ffffff;stroke-width:1.79429996;stroke-linecap:butt;stroke-linejoin:round;stroke-miterlimit:10;stroke-dasharray:none;stroke-opacity:1" d="m 699.65,289.21 h 5.9132 v 5.9132 H 699.65 Z"></path><g id="g110"><g clip-path="url(#clipPath116)" id="g112"><text id="text120" style="font-variant:normal;font-weight:normal;font-size:10.77600002px;font-family:Calibri;-inkscape-font-specification:Calibri;writing-mode:lr-tb;fill:#595959;fill-opacity:1;fill-rule:nonzero;stroke:none" transform="matrix(1,0,0,-1,708.17,289.08)"><tspan id="tspan118" y="0" x="0 5.862144 11.47644 15.237264 19.095072 21.573551 26.843016">Burried</tspan></text>
</g></g><path id="path122" style="fill:#d9a625;fill-opacity:1;fill-rule:evenodd;stroke:none" d="m 699.65,269.02 h 5.9132 v 5.9132 H 699.65 Z"></path><path id="path124" style="fill:none;stroke:#ffffff;stroke-width:1.79429996;stroke-linecap:butt;stroke-linejoin:round;stroke-miterlimit:10;stroke-dasharray:none;stroke-opacity:1" d="m 699.65,269.02 h 5.9132 v 5.9132 H 699.65 Z"></path><g id="g126"><g clip-path="url(#clipPath132)" id="g128"><text id="text136" style="font-variant:normal;font-weight:normal;font-size:10.77600002px;font-family:Calibri;-inkscape-font-specification:Calibri;writing-mode:lr-tb;fill:#595959;fill-opacity:1;fill-rule:nonzero;stroke:none" transform="matrix(1,0,0,-1,708.17,268.9)"><tspan id="tspan134" y="0" x="0 5.851368 11.185488 13.663968 19.073521 23.804184 28.965887 34.687943">Relevant</tspan></text>
</g></g><path id="path138" style="fill:#d97b25;fill-opacity:1;fill-rule:evenodd;stroke:none" d="m 699.65,248.83 h 5.9132 v 5.9132 H 699.65 Z"></path><path id="path140" style="fill:none;stroke:#ffffff;stroke-width:1.79429996;stroke-linecap:butt;stroke-linejoin:round;stroke-miterlimit:10;stroke-dasharray:none;stroke-opacity:1" d="m 699.65,248.83 h 5.9132 v 5.9132 H 699.65 Z"></path><g id="g142"><g clip-path="url(#clipPath148)" id="g144"><text id="text152" style="font-variant:normal;font-weight:normal;font-size:10.75199986px;font-family:Calibri;-inkscape-font-specification:Calibri;writing-mode:lr-tb;fill:#595959;fill-opacity:1;fill-rule:nonzero;stroke:none" transform="matrix(1,0,0,-1,708.17,248.69)"><tspan id="tspan150" y="0" x="0 2.7095039 6.4619522 10.2144 15.665664 18.138624 23.417856 28.27776 33.427967 39.072769">Irrelevant</tspan></text>
</g></g><path id="path154" style="fill:#d95025;fill-opacity:1;fill-rule:evenodd;stroke:none" d="m 699.65,228.65 h 5.9132 v 5.9132 H 699.65 Z"></path><path id="path156" style="fill:none;stroke:#ffffff;stroke-width:1.79429996;stroke-linecap:butt;stroke-linejoin:round;stroke-miterlimit:10;stroke-dasharray:none;stroke-opacity:1" d="m 699.65,228.65 h 5.9132 v 5.9132 H 699.65 Z"></path><g id="g158"><g clip-path="url(#clipPath164)" id="g160"><text id="text168" style="font-variant:normal;font-weight:normal;font-size:10.77600002px;font-family:Calibri;-inkscape-font-specification:Calibri;writing-mode:lr-tb;fill:#595959;fill-opacity:1;fill-rule:nonzero;stroke:none" transform="matrix(1,0,0,-1,708.17,228.5)"><tspan id="tspan166" y="0" x="0 6.8858638 12.60792 15.043296 17.780399 21.39036 26.681376 35.291401">No Items</tspan></text>
</g></g><path id="path170" style="fill:#da2626;fill-opacity:1;fill-rule:evenodd;stroke:none" d="m 699.65,208.46 h 5.9132 v 5.9132 H 699.65 Z"></path><path id="path172" style="fill:none;stroke:#ffffff;stroke-width:1.79429996;stroke-linecap:butt;stroke-linejoin:round;stroke-miterlimit:10;stroke-dasharray:none;stroke-opacity:1" d="m 699.65,208.46 h 5.9132 v 5.9132 H 699.65 Z"></path><g id="g174"><g clip-path="url(#clipPath180)" id="g176"><text id="text184" style="font-variant:normal;font-weight:normal;font-size:10.77600002px;font-family:Calibri;-inkscape-font-specification:Calibri;writing-mode:lr-tb;fill:#595959;fill-opacity:1;fill-rule:nonzero;stroke:none" transform="matrix(1,0,0,-1,708.17,208.32)"><tspan id="tspan182" y="0" x="0 5.2910161 9.0518398 12.780336 18.502392">Error</tspan></text>
</g></g><path id="path186" style="fill:none;stroke:#d9d9d9;stroke-width:0.89714998;stroke-linecap:butt;stroke-linejoin:round;stroke-miterlimit:10;stroke-dasharray:none;stroke-opacity:1" d="m 50.88,79.989 h 739.97 v 435.37 H 50.88 Z"></path></g></svg>