<svg xmlns:dc="http://purl.org/dc/elements/1.1/" xmlns:cc="http://creativecommons.org/ns#" xmlns:rdf="http://www.w3.org/1999/02/22-rdf-syntax-ns#" xmlns:svg="http://www.w3.org/2000/svg" xmlns="http://www.w3.org/2000/svg" viewBox="67 110 988 575" xml:space="preserve" id="svg2" version="1.1"><metadata id="metadata8"><rdf:rdf><cc:work rdf:about=""><dc:format>image/svg+xml</dc:format><dc:type rdf:resource="http://purl.org/dc/dcmitype/StillImage"></dc:type></cc:work></rdf:rdf></metadata><defs id="defs6"><clipPath id="clipPath34" clipPathUnits="userSpaceOnUse"><path style="clip-rule:evenodd" id="path32" d="M 50.88,83.28 H 790.92 V 511.8 H 50.88 Z"></path></clipPath><clipPath id="clipPath46" clipPathUnits="userSpaceOnUse"><path style="clip-rule:evenodd" id="path44" d="M 50.88,83.28 H 790.92 V 511.8 H 50.88 Z"></path></clipPath><clipPath id="clipPath58" clipPathUnits="userSpaceOnUse"><path style="clip-rule:evenodd" id="path56" d="M 50.88,83.28 H 790.92 V 511.8 H 50.88 Z"></path></clipPath><clipPath id="clipPath70" clipPathUnits="userSpaceOnUse"><path style="clip-rule:evenodd" id="path68" d="M 50.88,83.28 H 790.92 V 511.8 H 50.88 Z"></path></clipPath><clipPath id="clipPath82" clipPathUnits="userSpaceOnUse"><path style="clip-rule:evenodd" id="path80" d="M 50.88,83.28 H 790.92 V 511.8 H 50.88 Z"></path></clipPath><clipPath id="clipPath94" clipPathUnits="userSpaceOnUse"><path style="clip-rule:evenodd" id="path92" d="M 50.88,83.28 H 790.92 V 511.8 H 50.88 Z"></path></clipPath><clipPath id="clipPath106" clipPathUnits="userSpaceOnUse"><path style="clip-rule:evenodd" id="path104" d="M 50.88,83.28 H 790.92 V 511.8 H 50.88 Z"></path></clipPath><clipPath id="clipPath118" clipPathUnits="userSpaceOnUse"><path style="clip-rule:evenodd" id="path116" d="M 50.88,83.28 H 790.92 V 511.8 H 50.88 Z"></path></clipPath><clipPath id="clipPath130" clipPathUnits="userSpaceOnUse"><path style="clip-rule:evenodd" id="path128" d="M 50.88,83.28 H 790.92 V 511.8 H 50.88 Z"></path></clipPath><clipPath id="clipPath142" clipPathUnits="userSpaceOnUse"><path style="clip-rule:evenodd" id="path140" d="M 50.88,83.28 H 790.92 V 511.8 H 50.88 Z"></path></clipPath><clipPath id="clipPath154" clipPathUnits="userSpaceOnUse"><path style="clip-rule:evenodd" id="path152" d="M 50.88,83.28 H 790.92 V 511.8 H 50.88 Z"></path></clipPath><clipPath id="clipPath166" clipPathUnits="userSpaceOnUse"><path style="clip-rule:evenodd" id="path164" d="M 50.88,83.28 H 790.92 V 511.8 H 50.88 Z"></path></clipPath><clipPath id="clipPath178" clipPathUnits="userSpaceOnUse"><path style="clip-rule:evenodd" id="path176" d="M 50.88,83.28 H 790.92 V 511.8 H 50.88 Z"></path></clipPath><clipPath id="clipPath190" clipPathUnits="userSpaceOnUse"><path style="clip-rule:evenodd" id="path188" d="M 50.88,83.28 H 790.92 V 511.8 H 50.88 Z"></path></clipPath><clipPath id="clipPath202" clipPathUnits="userSpaceOnUse"><path style="clip-rule:evenodd" id="path200" d="M 50.88,83.28 H 790.92 V 511.8 H 50.88 Z"></path></clipPath><clipPath id="clipPath214" clipPathUnits="userSpaceOnUse"><path style="clip-rule:evenodd" id="path212" d="M 50.88,83.28 H 790.92 V 511.8 H 50.88 Z"></path></clipPath><clipPath id="clipPath226" clipPathUnits="userSpaceOnUse"><path style="clip-rule:evenodd" id="path224" d="M 50.88,83.28 H 790.92 V 511.8 H 50.88 Z"></path></clipPath><clipPath id="clipPath238" clipPathUnits="userSpaceOnUse"><path style="clip-rule:evenodd" id="path236" d="M 50.88,83.28 H 790.92 V 511.8 H 50.88 Z"></path></clipPath><clipPath id="clipPath252" clipPathUnits="userSpaceOnUse"><path style="clip-rule:evenodd" id="path250" d="M 50.88,83.28 H 790.92 V 511.8 H 50.88 Z"></path></clipPath><clipPath id="clipPath266" clipPathUnits="userSpaceOnUse"><path style="clip-rule:evenodd" id="path264" d="M 50.88,83.28 H 790.92 V 511.8 H 50.88 Z"></path></clipPath><clipPath id="clipPath280" clipPathUnits="userSpaceOnUse"><path style="clip-rule:evenodd" id="path278" d="M 50.88,83.28 H 790.92 V 511.8 H 50.88 Z"></path></clipPath><clipPath id="clipPath294" clipPathUnits="userSpaceOnUse"><path style="clip-rule:evenodd" id="path292" d="M 50.88,83.28 H 790.92 V 511.8 H 50.88 Z"></path></clipPath><clipPath id="clipPath308" clipPathUnits="userSpaceOnUse"><path style="clip-rule:evenodd" id="path306" d="M 50.88,83.28 H 790.92 V 511.8 H 50.88 Z"></path></clipPath></defs><g transform="matrix(1.3333333,0,0,-1.3333333,0,793.76)" id="g10"><path id="path12" style="fill:#ffffff;fill-opacity:1;fill-rule:evenodd;stroke:none" d="M 50.88,83.358 H 790.9 v 428.52 H 50.88 Z"></path><path id="path14" style="fill:none;stroke:#d9d9d9;stroke-width:0.85540003;stroke-linecap:butt;stroke-linejoin:round;stroke-miterlimit:10;stroke-dasharray:none;stroke-opacity:1" d="M 214.98,469.58 V 135.91 m 79.66,333.67 V 135.91 m 79.79,333.67 V 135.91 m 79.79,333.67 V 135.91 m 79.65,333.67 V 135.91 m 79.8,333.67 V 135.91 m 79.79,333.67 V 135.91 m 79.7,333.67 V 135.91"></path><path id="path16" style="fill:#4472c4;fill-opacity:1;fill-rule:nonzero;stroke:none" d="M 294.64,148.37 H 135.19 v 16.7 h 159.45 z m 159.58,41.74 H 135.19 v 16.7 h 319.03 z m -279.2,41.75 h -39.83 v 16.69 h 39.83 z M 294.64,273.6 H 135.19 v 16.7 h 159.45 z m -39.83,41.61 H 135.19 v 16.69 h 119.62 z m 0,41.74 H 135.19 v 16.7 h 119.62 z"></path><path id="path18" style="fill:#ed7d31;fill-opacity:1;fill-rule:nonzero;stroke:none" d="m 334.6,148.37 h -39.96 v 16.7 h 39.96 z m 199.27,41.74 h -79.65 v 16.7 h 79.65 z m -318.89,41.75 h -39.96 v 16.69 h 39.96 z m 279.07,83.35 H 254.81 v 16.69 h 239.24 z"></path><path id="path20" style="fill:#a5a5a5;fill-opacity:1;fill-rule:nonzero;stroke:none" d="m 334.6,148.37 h 39.828 v 16.697 H 334.6 Z"></path><path id="path22" style="fill:#ffc000;fill-opacity:1;fill-rule:nonzero;stroke:none" d="M 733.29,148.37 H 374.43 v 16.7 h 358.86 z m -159.45,41.74 h -39.97 v 16.7 h 39.97 z m -279.2,41.75 h -79.66 v 16.69 h 79.66 z m 79.79,41.74 h -79.79 v 16.7 h 79.79 z m 239.24,41.61 H 494.05 v 16.69 h 119.62 z m -319.03,41.74 h -39.83 v 16.7 h 39.83 z m -119.62,41.74 h -39.83 v 16.7 h 39.83 z m 0,41.75 H 135.19 V 457 h 39.83 z"></path><path id="path24" style="fill:#5b9bd5;fill-opacity:1;fill-rule:nonzero;stroke:none" d="M 733.29,315.21 H 613.67 V 331.9 H 733.29 Z M 334.6,356.95 h -39.96 v 16.7 H 334.6 Z M 214.98,440.44 H 175.02 V 457 h 39.96 z"></path><path id="path26" style="fill:none;stroke:#d9d9d9;stroke-width:0.85540003;stroke-linecap:butt;stroke-linejoin:round;stroke-miterlimit:10;stroke-dasharray:none;stroke-opacity:1" d="M 135.19,135.91 V 469.58"></path><g id="g28"><g clip-path="url(#clipPath34)" id="g30"><text id="text38" style="font-variant:normal;font-weight:normal;font-size:10.27200031px;font-family:Calibri;-inkscape-font-specification:Calibri;writing-mode:lr-tb;fill:#595959;fill-opacity:1;fill-rule:nonzero;stroke:none" transform="matrix(1,0,0,-1,132.6,119.59)"><tspan id="tspan36" y="0" x="0">0</tspan></text>
</g></g><g id="g40"><g clip-path="url(#clipPath46)" id="g42"><text id="text50" style="font-variant:normal;font-weight:normal;font-size:10.27200031px;font-family:Calibri;-inkscape-font-specification:Calibri;writing-mode:lr-tb;fill:#595959;fill-opacity:1;fill-rule:nonzero;stroke:none" transform="matrix(1,0,0,-1,212.38,119.59)"><tspan id="tspan48" y="0" x="0">2</tspan></text>
</g></g><g id="g52"><g clip-path="url(#clipPath58)" id="g54"><text id="text62" style="font-variant:normal;font-weight:normal;font-size:10.27200031px;font-family:Calibri;-inkscape-font-specification:Calibri;writing-mode:lr-tb;fill:#595959;fill-opacity:1;fill-rule:nonzero;stroke:none" transform="matrix(1,0,0,-1,292.13,119.59)"><tspan id="tspan60" y="0" x="0">4</tspan></text>
</g></g><g id="g64"><g clip-path="url(#clipPath70)" id="g66"><text id="text74" style="font-variant:normal;font-weight:normal;font-size:10.27200031px;font-family:Calibri;-inkscape-font-specification:Calibri;writing-mode:lr-tb;fill:#595959;fill-opacity:1;fill-rule:nonzero;stroke:none" transform="matrix(1,0,0,-1,371.88,119.59)"><tspan id="tspan72" y="0" x="0">6</tspan></text>
</g></g><g id="g76"><g clip-path="url(#clipPath82)" id="g78"><text id="text86" style="font-variant:normal;font-weight:normal;font-size:10.27200031px;font-family:Calibri;-inkscape-font-specification:Calibri;writing-mode:lr-tb;fill:#595959;fill-opacity:1;fill-rule:nonzero;stroke:none" transform="matrix(1,0,0,-1,451.63,119.59)"><tspan id="tspan84" y="0" x="0">8</tspan></text>
</g></g><g id="g88"><g clip-path="url(#clipPath94)" id="g90"><text id="text98" style="font-variant:normal;font-weight:normal;font-size:10.27200031px;font-family:Calibri;-inkscape-font-specification:Calibri;writing-mode:lr-tb;fill:#595959;fill-opacity:1;fill-rule:nonzero;stroke:none" transform="matrix(1,0,0,-1,528.79,119.59)"><tspan id="tspan96" y="0" x="0 5.2079997">10</tspan></text>
</g></g><g id="g100"><g clip-path="url(#clipPath106)" id="g102"><text id="text110" style="font-variant:normal;font-weight:normal;font-size:10.27200031px;font-family:Calibri;-inkscape-font-specification:Calibri;writing-mode:lr-tb;fill:#595959;fill-opacity:1;fill-rule:nonzero;stroke:none" transform="matrix(1,0,0,-1,608.54,119.59)"><tspan id="tspan108" y="0" x="0 5.2079997">12</tspan></text>
</g></g><g id="g112"><g clip-path="url(#clipPath118)" id="g114"><text id="text122" style="font-variant:normal;font-weight:normal;font-size:10.27200031px;font-family:Calibri;-inkscape-font-specification:Calibri;writing-mode:lr-tb;fill:#595959;fill-opacity:1;fill-rule:nonzero;stroke:none" transform="matrix(1,0,0,-1,688.3,119.59)"><tspan id="tspan120" y="0" x="0 5.2079997">14</tspan></text>
</g></g><g id="g124"><g clip-path="url(#clipPath130)" id="g126"><text id="text134" style="font-variant:normal;font-weight:normal;font-size:10.27200031px;font-family:Calibri;-inkscape-font-specification:Calibri;writing-mode:lr-tb;fill:#595959;fill-opacity:1;fill-rule:nonzero;stroke:none" transform="matrix(1,0,0,-1,768.07,119.59)"><tspan id="tspan132" y="0" x="0 5.1840038">16</tspan></text>
</g></g><g id="g136"><g clip-path="url(#clipPath142)" id="g138"><text id="text146" style="font-variant:normal;font-weight:normal;font-size:10.27200031px;font-family:Calibri;-inkscape-font-specification:Calibri;writing-mode:lr-tb;fill:#595959;fill-opacity:1;fill-rule:nonzero;stroke:none" transform="matrix(1,0,0,-1,58.296,153.79)"><tspan id="tspan144" y="0" x="0 5.0538239 10.405536 15.87024 18.07872 23.42016 28.340448 33.178558 38.365921 40.687393 45.761761 48.083233 50.692322 54.133438 59.187263">Top Page + Item</tspan></text>
</g></g><g id="g148"><g clip-path="url(#clipPath154)" id="g150"><text id="text158" style="font-variant:normal;font-weight:normal;font-size:10.27200031px;font-family:Calibri;-inkscape-font-specification:Calibri;writing-mode:lr-tb;fill:#595959;fill-opacity:1;fill-rule:nonzero;stroke:none" transform="matrix(1,0,0,-1,88.224,195.5)"><tspan id="tspan156" y="0" x="0 5.0538239 10.384992 15.849696 18.037632 20.626177 24.170015 29.234112">Top Item</tspan></text>
</g></g><g id="g160"><g clip-path="url(#clipPath166)" id="g162"><text id="text170" style="font-variant:normal;font-weight:normal;font-size:10.24800014px;font-family:Calibri;-inkscape-font-specification:Calibri;writing-mode:lr-tb;fill:#595959;fill-opacity:1;fill-rule:nonzero;stroke:none" transform="matrix(1,0,0,-1,87.384,237.22)"><tspan id="tspan168" y="0" x="0 5.0522642 10.40172 15.8844 18.087721 23.426928 28.356216 33.183025">Top Page</tspan></text>
</g></g><g id="g172"><g clip-path="url(#clipPath178)" id="g174"><text id="text182" style="font-variant:normal;font-weight:normal;font-size:10.24800014px;font-family:Calibri;-inkscape-font-specification:Calibri;writing-mode:lr-tb;fill:#595959;fill-opacity:1;fill-rule:nonzero;stroke:none" transform="matrix(1,0,0,-1,94.68,278.93)"><tspan id="tspan180" y="0" x="0 5.6056561 10.985856 14.511168 18.200447 20.557487 25.589256">Burried</tspan></text>
</g></g><g id="g184"><g clip-path="url(#clipPath190)" id="g186"><text id="text194" style="font-variant:normal;font-weight:normal;font-size:10.27200031px;font-family:Calibri;-inkscape-font-specification:Calibri;writing-mode:lr-tb;fill:#595959;fill-opacity:1;fill-rule:nonzero;stroke:none" transform="matrix(1,0,0,-1,89.16,320.66)"><tspan id="tspan192" y="0" x="0 5.5776958 10.652064 12.983808 18.160896 22.670303 27.590591 33.055298">Relevant</tspan></text>
</g></g><g id="g196"><g clip-path="url(#clipPath202)" id="g198"><text id="text206" style="font-variant:normal;font-weight:normal;font-size:10.27200031px;font-family:Calibri;-inkscape-font-specification:Calibri;writing-mode:lr-tb;fill:#595959;fill-opacity:1;fill-rule:nonzero;stroke:none" transform="matrix(1,0,0,-1,84.96,362.38)"><tspan id="tspan204" y="0" x="0 2.5885439 6.1734719 9.7584 14.966304 17.298048 22.362144 27.005089 31.956192 37.307903">Irrelevant</tspan></text>
</g></g><g id="g208"><g clip-path="url(#clipPath214)" id="g210"><text id="text218" style="font-variant:normal;font-weight:normal;font-size:10.27200031px;font-family:Calibri;-inkscape-font-specification:Calibri;writing-mode:lr-tb;fill:#595959;fill-opacity:1;fill-rule:nonzero;stroke:none" transform="matrix(1,0,0,-1,87.96,404.09)"><tspan id="tspan216" y="0" x="0 6.57408 12.059328 14.3808 16.989887 20.431007 25.484833 33.692162">No Items</tspan></text>
</g></g><g id="g220"><g clip-path="url(#clipPath226)" id="g222"><text id="text230" style="font-variant:normal;font-weight:normal;font-size:10.24800014px;font-family:Calibri;-inkscape-font-specification:Calibri;writing-mode:lr-tb;fill:#595959;fill-opacity:1;fill-rule:nonzero;stroke:none" transform="matrix(1,0,0,-1,104.52,445.8)"><tspan id="tspan228" y="0" x="0 5.0522642 8.6288157 12.154128 17.616312">Error</tspan></text>
</g></g><g id="g232"><g clip-path="url(#clipPath238)" id="g234"><text id="text242" style="font-variant:normal;font-weight:normal;font-size:16.00799942px;font-family:Calibri;-inkscape-font-specification:Calibri;writing-mode:lr-tb;fill:#595959;fill-opacity:1;fill-rule:nonzero;stroke:none" transform="matrix(1,0,0,-1,359.38,488.11)"><tspan id="tspan240" y="0" x="0 8.500248 16.472233 22.731359 31.135559 34.817402 40.18008 46.439209 49.896935 58.637302 63.983974 71.955963 79.623795 86.443199 94.799377 103.28362 114.76135">Results Breakdown</tspan></text>
</g></g><path id="path244" style="fill:#4472c4;fill-opacity:1;fill-rule:evenodd;stroke:none" d="m 322.12,97.005 h 5.638 v 5.638 h -5.638 z"></path><g id="g246"><g clip-path="url(#clipPath252)" id="g248"><text id="text256" style="font-variant:normal;font-weight:normal;font-size:10.27200031px;font-family:Calibri;-inkscape-font-specification:Calibri;writing-mode:lr-tb;fill:#595959;fill-opacity:1;fill-rule:nonzero;stroke:none" transform="matrix(1,0,0,-1,330.19,96.84)"><tspan id="tspan254" y="0" x="0 4.6532159 9.5735044 13.959648">Fact</tspan></text>
</g></g><path id="path258" style="fill:#ed7d31;fill-opacity:1;fill-rule:evenodd;stroke:none" d="m 356.83,97.005 h 5.638 v 5.638 h -5.638 z"></path><g id="g260"><g clip-path="url(#clipPath266)" id="g262"><text id="text270" style="font-variant:normal;font-weight:normal;font-size:10.27200031px;font-family:Calibri;-inkscape-font-specification:Calibri;writing-mode:lr-tb;fill:#595959;fill-opacity:1;fill-rule:nonzero;stroke:none" transform="matrix(1,0,0,-1,364.92,96.84)"><tspan id="tspan268" y="0" x="0 5.8755841 9.4194241 12.829728 16.383841 18.715584 24.046753 29.511456 32.921761">Attribute</tspan></text>
</g></g><path id="path272" style="fill:#a5a5a5;fill-opacity:1;fill-rule:evenodd;stroke:none" d="m 412.23,97.005 h 5.638 v 5.638 h -5.638 z"></path><g id="g274"><g clip-path="url(#clipPath280)" id="g276"><text id="text284" style="font-variant:normal;font-weight:normal;font-size:10.27200031px;font-family:Calibri;-inkscape-font-specification:Calibri;writing-mode:lr-tb;fill:#595959;fill-opacity:1;fill-rule:nonzero;stroke:none" transform="matrix(1,0,0,-1,420.31,96.84)"><tspan id="tspan282" y="0" x="0 4.6532159 9.8508482 14.771136 18.325249 22.711391">Search</tspan></text>
</g></g><path id="path286" style="fill:#ffc000;fill-opacity:1;fill-rule:evenodd;stroke:none" d="m 457.59,97.005 h 5.638 v 5.638 h -5.638 z"></path><g id="g288"><g clip-path="url(#clipPath294)" id="g290"><text id="text298" style="font-variant:normal;font-weight:normal;font-size:10.27200031px;font-family:Calibri;-inkscape-font-specification:Calibri;writing-mode:lr-tb;fill:#595959;fill-opacity:1;fill-rule:nonzero;stroke:none" transform="matrix(1,0,0,-1,465.67,96.84)"><tspan id="tspan296" y="0" x="0 2.5885439 7.9813442 11.114304">Info</tspan></text>
</g></g><path id="path300" style="fill:#5b9bd5;fill-opacity:1;fill-rule:evenodd;stroke:none" d="m 491.42,97.005 h 5.638 v 5.638 h -5.638 z"></path><g id="g302"><g clip-path="url(#clipPath308)" id="g304"><text id="text312" style="font-variant:normal;font-weight:normal;font-size:10.27200031px;font-family:Calibri;-inkscape-font-specification:Calibri;writing-mode:lr-tb;fill:#595959;fill-opacity:1;fill-rule:nonzero;stroke:none" transform="matrix(1,0,0,-1,499.51,96.84)"><tspan id="tspan310" y="0" x="0 6.8308802 10.272 15.592896 20.790527">Other</tspan></text>
</g></g><path id="path314" style="fill:none;stroke:#d9d9d9;stroke-width:0.85540003;stroke-linecap:butt;stroke-linejoin:round;stroke-miterlimit:10;stroke-dasharray:none;stroke-opacity:1" d="M 50.88,83.358 H 790.9 v 428.52 H 50.88 Z"></path></g></svg>