<svg xmlns:dc="http://purl.org/dc/elements/1.1/" xmlns:cc="http://creativecommons.org/ns#" xmlns:rdf="http://www.w3.org/1999/02/22-rdf-syntax-ns#" xmlns:svg="http://www.w3.org/2000/svg" xmlns="http://www.w3.org/2000/svg" viewBox="67 110 988 575" xml:space="preserve" id="svg2" version="1.1"><metadata id="metadata8"><rdf:rdf><cc:work rdf:about=""><dc:format>image/svg+xml</dc:format><dc:type rdf:resource="http://purl.org/dc/dcmitype/StillImage"></dc:type></cc:work></rdf:rdf></metadata><defs id="defs6"><clipPath id="clipPath34" clipPathUnits="userSpaceOnUse"><path style="clip-rule:evenodd" id="path32" d="M 51,83.4 H 791.04 V 511.8 H 51 Z"></path></clipPath><clipPath id="clipPath46" clipPathUnits="userSpaceOnUse"><path style="clip-rule:evenodd" id="path44" d="M 51,83.4 H 791.04 V 511.8 H 51 Z"></path></clipPath><clipPath id="clipPath58" clipPathUnits="userSpaceOnUse"><path style="clip-rule:evenodd" id="path56" d="M 51,83.4 H 791.04 V 511.8 H 51 Z"></path></clipPath><clipPath id="clipPath70" clipPathUnits="userSpaceOnUse"><path style="clip-rule:evenodd" id="path68" d="M 51,83.4 H 791.04 V 511.8 H 51 Z"></path></clipPath><clipPath id="clipPath82" clipPathUnits="userSpaceOnUse"><path style="clip-rule:evenodd" id="path80" d="M 51,83.4 H 791.04 V 511.8 H 51 Z"></path></clipPath><clipPath id="clipPath94" clipPathUnits="userSpaceOnUse"><path style="clip-rule:evenodd" id="path92" d="M 51,83.4 H 791.04 V 511.8 H 51 Z"></path></clipPath><clipPath id="clipPath106" clipPathUnits="userSpaceOnUse"><path style="clip-rule:evenodd" id="path104" d="M 51,83.4 H 791.04 V 511.8 H 51 Z"></path></clipPath><clipPath id="clipPath118" clipPathUnits="userSpaceOnUse"><path style="clip-rule:evenodd" id="path116" d="M 51,83.4 H 791.04 V 511.8 H 51 Z"></path></clipPath><clipPath id="clipPath130" clipPathUnits="userSpaceOnUse"><path style="clip-rule:evenodd" id="path128" d="M 51,83.4 H 791.04 V 511.8 H 51 Z"></path></clipPath><clipPath id="clipPath142" clipPathUnits="userSpaceOnUse"><path style="clip-rule:evenodd" id="path140" d="M 51,83.4 H 791.04 V 511.8 H 51 Z"></path></clipPath><clipPath id="clipPath154" clipPathUnits="userSpaceOnUse"><path style="clip-rule:evenodd" id="path152" d="M 51,83.4 H 791.04 V 511.8 H 51 Z"></path></clipPath><clipPath id="clipPath166" clipPathUnits="userSpaceOnUse"><path style="clip-rule:evenodd" id="path164" d="M 51,83.4 H 791.04 V 511.8 H 51 Z"></path></clipPath><clipPath id="clipPath178" clipPathUnits="userSpaceOnUse"><path style="clip-rule:evenodd" id="path176" d="M 51,83.4 H 791.04 V 511.8 H 51 Z"></path></clipPath><clipPath id="clipPath190" clipPathUnits="userSpaceOnUse"><path style="clip-rule:evenodd" id="path188" d="M 51,83.4 H 791.04 V 511.8 H 51 Z"></path></clipPath><clipPath id="clipPath204" clipPathUnits="userSpaceOnUse"><path style="clip-rule:evenodd" id="path202" d="M 51,83.4 H 791.04 V 511.8 H 51 Z"></path></clipPath><clipPath id="clipPath218" clipPathUnits="userSpaceOnUse"><path style="clip-rule:evenodd" id="path216" d="M 51,83.4 H 791.04 V 511.8 H 51 Z"></path></clipPath><clipPath id="clipPath232" clipPathUnits="userSpaceOnUse"><path style="clip-rule:evenodd" id="path230" d="M 51,83.4 H 791.04 V 511.8 H 51 Z"></path></clipPath><clipPath id="clipPath246" clipPathUnits="userSpaceOnUse"><path style="clip-rule:evenodd" id="path244" d="M 51,83.4 H 791.04 V 511.8 H 51 Z"></path></clipPath><clipPath id="clipPath260" clipPathUnits="userSpaceOnUse"><path style="clip-rule:evenodd" id="path258" d="M 51,83.4 H 791.04 V 511.8 H 51 Z"></path></clipPath></defs><g transform="matrix(1.3333333,0,0,-1.3333333,0,793.76)" id="g10"><path id="path12" style="fill:#ffffff;fill-opacity:1;fill-rule:evenodd;stroke:none" d="m 50.972,83.417 h 740.03 v 428.44 H 50.972 Z"></path><path id="path14" style="fill:none;stroke:#d9d9d9;stroke-width:0.85115999;stroke-linecap:butt;stroke-linejoin:round;stroke-miterlimit:10;stroke-dasharray:none;stroke-opacity:1" d="M 185.11,469.76 V 135.7 M 249.8,469.76 V 135.7 m 64.55,334.06 V 135.7 m 64.69,334.06 V 135.7 m 64.69,334.06 V 135.7 m 64.69,334.06 V 135.7 m 64.69,334.06 V 135.7 m 64.68,334.06 V 135.7 m 64.69,334.06 V 135.7 M 767.1,469.76 V 135.7"></path><path id="path16" style="fill:#4472c4;fill-opacity:1;fill-rule:nonzero;stroke:none" d="M 425.75,185.83 H 120.4 v 66.73 H 425.75 Z M 289.16,352.79 H 120.4 v 66.87 h 168.76 z"></path><path id="path18" style="fill:#ed7d31;fill-opacity:1;fill-rule:nonzero;stroke:none" d="m 497.66,185.83 h -71.91 v 66.73 h 71.91 z m -39.9,166.96 h -168.6 v 66.87 h 168.6 z"></path><path id="path20" style="fill:#a5a5a5;fill-opacity:1;fill-rule:nonzero;stroke:none" d="m 497.66,185.83 h 17.976 v 66.731 H 497.66 Z"></path><path id="path22" style="fill:#ffc000;fill-opacity:1;fill-rule:nonzero;stroke:none" d="M 767.17,185.83 H 515.64 v 66.73 H 767.17 Z M 626.49,352.79 H 457.76 v 66.87 h 168.73 z"></path><path id="path24" style="fill:#5b9bd5;fill-opacity:1;fill-rule:nonzero;stroke:none" d="m 626.49,352.79 h 140.68 v 66.867 H 626.49 Z"></path><path id="path26" style="fill:none;stroke:#d9d9d9;stroke-width:0.85115999;stroke-linecap:butt;stroke-linejoin:round;stroke-miterlimit:10;stroke-dasharray:none;stroke-opacity:1" d="M 120.4,135.7 V 469.76"></path><g id="g28"><g clip-path="url(#clipPath34)" id="g30"><text id="text38" style="font-variant:normal;font-weight:normal;font-size:10.19999981px;font-family:Calibri;-inkscape-font-specification:Calibri;writing-mode:lr-tb;fill:#595959;fill-opacity:1;fill-rule:nonzero;stroke:none" transform="matrix(1,0,0,-1,114.17,119.45)"><tspan id="tspan36" y="0" x="0 5.184">0%</tspan></text>
</g></g><g id="g40"><g clip-path="url(#clipPath46)" id="g42"><text id="text50" style="font-variant:normal;font-weight:normal;font-size:10.19999981px;font-family:Calibri;-inkscape-font-specification:Calibri;writing-mode:lr-tb;fill:#595959;fill-opacity:1;fill-rule:nonzero;stroke:none" transform="matrix(1,0,0,-1,176.28,119.45)"><tspan id="tspan48" y="0" x="0 5.1599998 10.32">10%</tspan></text>
</g></g><g id="g52"><g clip-path="url(#clipPath58)" id="g54"><text id="text62" style="font-variant:normal;font-weight:normal;font-size:10.19999981px;font-family:Calibri;-inkscape-font-specification:Calibri;writing-mode:lr-tb;fill:#595959;fill-opacity:1;fill-rule:nonzero;stroke:none" transform="matrix(1,0,0,-1,240.96,119.45)"><tspan id="tspan60" y="0" x="0 5.1599998 10.32">20%</tspan></text>
</g></g><g id="g64"><g clip-path="url(#clipPath70)" id="g66"><text id="text74" style="font-variant:normal;font-weight:normal;font-size:10.19999981px;font-family:Calibri;-inkscape-font-specification:Calibri;writing-mode:lr-tb;fill:#595959;fill-opacity:1;fill-rule:nonzero;stroke:none" transform="matrix(1,0,0,-1,305.64,119.45)"><tspan id="tspan72" y="0" x="0 5.1599998 10.32">30%</tspan></text>
</g></g><g id="g76"><g clip-path="url(#clipPath82)" id="g78"><text id="text86" style="font-variant:normal;font-weight:normal;font-size:10.19999981px;font-family:Calibri;-inkscape-font-specification:Calibri;writing-mode:lr-tb;fill:#595959;fill-opacity:1;fill-rule:nonzero;stroke:none" transform="matrix(1,0,0,-1,370.3,119.45)"><tspan id="tspan84" y="0" x="0 5.184 10.368">40%</tspan></text>
</g></g><g id="g88"><g clip-path="url(#clipPath94)" id="g90"><text id="text98" style="font-variant:normal;font-weight:normal;font-size:10.19999981px;font-family:Calibri;-inkscape-font-specification:Calibri;writing-mode:lr-tb;fill:#595959;fill-opacity:1;fill-rule:nonzero;stroke:none" transform="matrix(1,0,0,-1,434.98,119.45)"><tspan id="tspan96" y="0" x="0 5.184 10.368">50%</tspan></text>
</g></g><g id="g100"><g clip-path="url(#clipPath106)" id="g102"><text id="text110" style="font-variant:normal;font-weight:normal;font-size:10.19999981px;font-family:Calibri;-inkscape-font-specification:Calibri;writing-mode:lr-tb;fill:#595959;fill-opacity:1;fill-rule:nonzero;stroke:none" transform="matrix(1,0,0,-1,499.66,119.45)"><tspan id="tspan108" y="0" x="0 5.184 10.368">60%</tspan></text>
</g></g><g id="g112"><g clip-path="url(#clipPath118)" id="g114"><text id="text122" style="font-variant:normal;font-weight:normal;font-size:10.19999981px;font-family:Calibri;-inkscape-font-specification:Calibri;writing-mode:lr-tb;fill:#595959;fill-opacity:1;fill-rule:nonzero;stroke:none" transform="matrix(1,0,0,-1,564.34,119.45)"><tspan id="tspan120" y="0" x="0 5.184 10.368">70%</tspan></text>
</g></g><g id="g124"><g clip-path="url(#clipPath130)" id="g126"><text id="text134" style="font-variant:normal;font-weight:normal;font-size:10.19999981px;font-family:Calibri;-inkscape-font-specification:Calibri;writing-mode:lr-tb;fill:#595959;fill-opacity:1;fill-rule:nonzero;stroke:none" transform="matrix(1,0,0,-1,629.02,119.45)"><tspan id="tspan132" y="0" x="0 5.184 10.368">80%</tspan></text>
</g></g><g id="g136"><g clip-path="url(#clipPath142)" id="g138"><text id="text146" style="font-variant:normal;font-weight:normal;font-size:10.19999981px;font-family:Calibri;-inkscape-font-specification:Calibri;writing-mode:lr-tb;fill:#595959;fill-opacity:1;fill-rule:nonzero;stroke:none" transform="matrix(1,0,0,-1,693.7,119.45)"><tspan id="tspan144" y="0" x="0 5.184 10.368">90%</tspan></text>
</g></g><g id="g148"><g clip-path="url(#clipPath154)" id="g150"><text id="text158" style="font-variant:normal;font-weight:normal;font-size:10.19999981px;font-family:Calibri;-inkscape-font-specification:Calibri;writing-mode:lr-tb;fill:#595959;fill-opacity:1;fill-rule:nonzero;stroke:none" transform="matrix(1,0,0,-1,755.78,119.45)"><tspan id="tspan156" y="0" x="0 5.184 10.368 15.552">100%</tspan></text>
</g></g><g id="g160"><g clip-path="url(#clipPath166)" id="g162"><text id="text170" style="font-variant:normal;font-weight:normal;font-size:10.19999981px;font-family:Calibri;-inkscape-font-specification:Calibri;writing-mode:lr-tb;fill:#595959;fill-opacity:1;fill-rule:nonzero;stroke:none" transform="matrix(1,0,0,-1,69.264,216.26)"><tspan id="tspan168" y="0" x="0 5.8548002 11.2914 15.2286 22.562401 27.6012 31.1304 36.281399">Answered</tspan></text>
</g></g><g id="g172"><g clip-path="url(#clipPath178)" id="g174"><text id="text182" style="font-variant:normal;font-weight:normal;font-size:10.19999981px;font-family:Calibri;-inkscape-font-specification:Calibri;writing-mode:lr-tb;fill:#595959;fill-opacity:1;fill-rule:nonzero;stroke:none" transform="matrix(1,0,0,-1,58.368,383.33)"><tspan id="tspan180" y="0" x="0 6.5483999 11.9646 16.7178 22.1544 26.0916 33.4254 38.443802 41.973 47.124001">Unanswered</tspan></text>
</g></g><g id="g184"><g clip-path="url(#clipPath190)" id="g186"><text id="text194" style="font-variant:normal;font-weight:normal;font-size:15.93599987px;font-family:Calibri;-inkscape-font-specification:Calibri;writing-mode:lr-tb;fill:#595959;fill-opacity:1;fill-rule:nonzero;stroke:none" transform="matrix(1,0,0,-1,359.81,488.21)"><tspan id="tspan192" y="0" x="0 8.4460802 16.382208 22.613184 30.91584 34.58112 39.919682 46.150658 49.560959 58.230145 63.584641 71.520767 79.154114 85.92691 94.229568 102.65971 114.08582">Results Breakdown</tspan></text>
</g></g><path id="path196" style="fill:#4472c4;fill-opacity:1;fill-rule:evenodd;stroke:none" d="m 322.7,96.997 h 5.61 v 5.61 h -5.61 z"></path><g id="g198"><g clip-path="url(#clipPath204)" id="g200"><text id="text208" style="font-variant:normal;font-weight:normal;font-size:10.22399998px;font-family:Calibri;-inkscape-font-specification:Calibri;writing-mode:lr-tb;fill:#595959;fill-opacity:1;fill-rule:nonzero;stroke:none" transform="matrix(1,0,0,-1,330.74,96.84)"><tspan id="tspan206" y="0" x="0 4.6314721 9.5287676 13.85352">Fact</tspan></text>
</g></g><path id="path210" style="fill:#ed7d31;fill-opacity:1;fill-rule:evenodd;stroke:none" d="m 357.24,96.997 h 5.61 v 5.61 h -5.61 z"></path><g id="g212"><g clip-path="url(#clipPath218)" id="g214"><text id="text222" style="font-variant:normal;font-weight:normal;font-size:10.22399998px;font-family:Calibri;-inkscape-font-specification:Calibri;writing-mode:lr-tb;fill:#595959;fill-opacity:1;fill-rule:nonzero;stroke:none" transform="matrix(1,0,0,-1,365.28,96.84)"><tspan id="tspan220" y="0" x="0 5.8583522 9.3958559 12.820896 16.3584 18.709921 23.985504 29.424671 32.849712">Attribute</tspan></text>
</g></g><path id="path224" style="fill:#a5a5a5;fill-opacity:1;fill-rule:evenodd;stroke:none" d="m 412.37,96.997 h 5.61 v 5.61 h -5.61 z"></path><g id="g226"><g clip-path="url(#clipPath232)" id="g228"><text id="text236" style="font-variant:normal;font-weight:normal;font-size:10.22399998px;font-family:Calibri;-inkscape-font-specification:Calibri;writing-mode:lr-tb;fill:#595959;fill-opacity:1;fill-rule:nonzero;stroke:none" transform="matrix(1,0,0,-1,420.41,96.84)"><tspan id="tspan234" y="0" x="0 4.6314721 9.8048162 14.702112 18.270288 22.595039">Search</tspan></text>
</g></g><path id="path238" style="fill:#ffc000;fill-opacity:1;fill-rule:evenodd;stroke:none" d="m 457.5,96.997 h 5.61 v 5.61 h -5.61 z"></path><g id="g240"><g clip-path="url(#clipPath246)" id="g242"><text id="text250" style="font-variant:normal;font-weight:normal;font-size:10.22399998px;font-family:Calibri;-inkscape-font-specification:Calibri;writing-mode:lr-tb;fill:#595959;fill-opacity:1;fill-rule:nonzero;stroke:none" transform="matrix(1,0,0,-1,465.55,96.84)"><tspan id="tspan248" y="0" x="0 2.576448 7.8929281 11.011248">Info</tspan></text>
</g></g><path id="path252" style="fill:#5b9bd5;fill-opacity:1;fill-rule:evenodd;stroke:none" d="m 491.16,96.997 h 5.61 v 5.61 h -5.61 z"></path><g id="g254"><g clip-path="url(#clipPath260)" id="g256"><text id="text264" style="font-variant:normal;font-weight:normal;font-size:10.22399998px;font-family:Calibri;-inkscape-font-specification:Calibri;writing-mode:lr-tb;fill:#595959;fill-opacity:1;fill-rule:nonzero;stroke:none" transform="matrix(1,0,0,-1,499.22,96.84)"><tspan id="tspan262" y="0" x="0 6.7682881 10.193328 15.499584 20.652479">Other</tspan></text>
</g></g><path id="path266" style="fill:none;stroke:#d9d9d9;stroke-width:0.85115999;stroke-linecap:butt;stroke-linejoin:round;stroke-miterlimit:10;stroke-dasharray:none;stroke-opacity:1" d="m 50.972,83.417 h 740.03 v 428.44 H 50.972 Z"></path></g></svg>