<svg xmlns:dc="http://purl.org/dc/elements/1.1/" xmlns:cc="http://creativecommons.org/ns#" xmlns:rdf="http://www.w3.org/1999/02/22-rdf-syntax-ns#" xmlns:svg="http://www.w3.org/2000/svg" xmlns="http://www.w3.org/2000/svg" viewBox="67 126 988 541" xml:space="preserve" id="svg2" version="1.1"><metadata id="metadata8"><rdf:rdf><cc:work rdf:about=""><dc:format>image/svg+xml</dc:format><dc:type rdf:resource="http://purl.org/dc/dcmitype/StillImage"></dc:type></cc:work></rdf:rdf></metadata><defs id="defs6"><clipPath id="clipPath28" clipPathUnits="userSpaceOnUse"><path style="clip-rule:evenodd" id="path26" d="M 102.89,146.43 H 771.26 V 456.46 H 102.89 Z"></path></clipPath><clipPath id="clipPath82" clipPathUnits="userSpaceOnUse"><path style="clip-rule:evenodd" id="path80" d="M 51,96.12 H 791.04 V 499.08 H 51 Z"></path></clipPath><clipPath id="clipPath94" clipPathUnits="userSpaceOnUse"><path style="clip-rule:evenodd" id="path92" d="M 51,96.12 H 791.04 V 499.08 H 51 Z"></path></clipPath><clipPath id="clipPath106" clipPathUnits="userSpaceOnUse"><path style="clip-rule:evenodd" id="path104" d="M 51,96.12 H 791.04 V 499.08 H 51 Z"></path></clipPath><clipPath id="clipPath118" clipPathUnits="userSpaceOnUse"><path style="clip-rule:evenodd" id="path116" d="M 51,96.12 H 791.04 V 499.08 H 51 Z"></path></clipPath><clipPath id="clipPath130" clipPathUnits="userSpaceOnUse"><path style="clip-rule:evenodd" id="path128" d="M 51,96.12 H 791.04 V 499.08 H 51 Z"></path></clipPath><clipPath id="clipPath142" clipPathUnits="userSpaceOnUse"><path style="clip-rule:evenodd" id="path140" d="M 51,96.12 H 791.04 V 499.08 H 51 Z"></path></clipPath><clipPath id="clipPath154" clipPathUnits="userSpaceOnUse"><path style="clip-rule:evenodd" id="path152" d="M 51,96.12 H 791.04 V 499.08 H 51 Z"></path></clipPath><clipPath id="clipPath166" clipPathUnits="userSpaceOnUse"><path style="clip-rule:evenodd" id="path164" d="M 51,96.12 H 791.04 V 499.08 H 51 Z"></path></clipPath><clipPath id="clipPath178" clipPathUnits="userSpaceOnUse"><path style="clip-rule:evenodd" id="path176" d="M 51,96.12 H 791.04 V 499.08 H 51 Z"></path></clipPath><clipPath id="clipPath190" clipPathUnits="userSpaceOnUse"><path style="clip-rule:evenodd" id="path188" d="M 51,96.12 H 791.04 V 499.08 H 51 Z"></path></clipPath><clipPath id="clipPath202" clipPathUnits="userSpaceOnUse"><path style="clip-rule:evenodd" id="path200" d="M 51,96.12 H 791.04 V 499.08 H 51 Z"></path></clipPath><clipPath id="clipPath214" clipPathUnits="userSpaceOnUse"><path style="clip-rule:evenodd" id="path212" d="M 51,96.12 H 791.04 V 499.08 H 51 Z"></path></clipPath><clipPath id="clipPath226" clipPathUnits="userSpaceOnUse"><path style="clip-rule:evenodd" id="path224" d="M 51,96.12 H 791.04 V 499.08 H 51 Z"></path></clipPath><clipPath id="clipPath238" clipPathUnits="userSpaceOnUse"><path style="clip-rule:evenodd" id="path236" d="M 51,96.12 H 791.04 V 499.08 H 51 Z"></path></clipPath><clipPath id="clipPath250" clipPathUnits="userSpaceOnUse"><path style="clip-rule:evenodd" id="path248" d="M 51,96.12 H 791.04 V 499.08 H 51 Z"></path></clipPath><clipPath id="clipPath262" clipPathUnits="userSpaceOnUse"><path style="clip-rule:evenodd" id="path260" d="M 51,96.12 H 791.04 V 499.08 H 51 Z"></path></clipPath><clipPath id="clipPath274" clipPathUnits="userSpaceOnUse"><path style="clip-rule:evenodd" id="path272" d="M 51,96.12 H 791.04 V 499.08 H 51 Z"></path></clipPath><clipPath id="clipPath286" clipPathUnits="userSpaceOnUse"><path style="clip-rule:evenodd" id="path284" d="M 51,96.12 H 791.04 V 499.08 H 51 Z"></path></clipPath><clipPath id="clipPath298" clipPathUnits="userSpaceOnUse"><path style="clip-rule:evenodd" id="path296" d="M 51,96.12 H 791.04 V 499.08 H 51 Z"></path></clipPath><clipPath id="clipPath310" clipPathUnits="userSpaceOnUse"><path style="clip-rule:evenodd" id="path308" d="M 51,96.12 H 791.04 V 499.08 H 51 Z"></path></clipPath></defs><g transform="matrix(1.3333333,0,0,-1.3333333,0,793.76)" id="g10"><path id="path12" style="fill:#ffffff;fill-opacity:1;fill-rule:evenodd;stroke:none" d="m 50.989,96.188 h 740.02 v 402.93 H 50.989 Z"></path><path id="path14" style="fill:none;stroke:#d9d9d9;stroke-width:0.86273003;stroke-linecap:butt;stroke-linejoin:round;stroke-miterlimit:10;stroke-dasharray:none;stroke-opacity:1" d="M 102.95,209.1 H 770.48 M 102.95,270.94 H 770.48 M 102.95,332.78 H 770.48 M 102.95,394.62 H 770.48 M 102.95,456.45 H 770.48"></path><path id="path16" style="fill:none;stroke:#d9d9d9;stroke-width:0.86273003;stroke-linecap:butt;stroke-linejoin:round;stroke-miterlimit:10;stroke-dasharray:none;stroke-opacity:1" d="M 169.7,456.45 V 147.27 m 66.81,309.18 V 147.27 m 66.67,309.18 V 147.27 m 66.81,309.18 V 147.27 m 66.67,309.18 V 147.27 m 66.81,309.18 V 147.27 m 66.81,309.18 V 147.27 m 66.68,309.18 V 147.27 m 66.8,309.18 V 147.27 m 66.72,309.18 V 147.27"></path><path id="path18" style="fill:none;stroke:#bfbfbf;stroke-width:0.86273003;stroke-linecap:butt;stroke-linejoin:round;stroke-miterlimit:10;stroke-dasharray:none;stroke-opacity:1" d="M 102.95,147.27 V 456.45"></path><path id="path20" style="fill:none;stroke:#bfbfbf;stroke-width:0.86273003;stroke-linecap:butt;stroke-linejoin:round;stroke-miterlimit:10;stroke-dasharray:none;stroke-opacity:1" d="M 102.95,147.27 H 770.48"></path><g id="g22"><g clip-path="url(#clipPath28)" id="g24"><path id="path30" style="fill:none;stroke:#4472c4;stroke-width:1.72549999;stroke-linecap:round;stroke-linejoin:round;stroke-miterlimit:10;stroke-dasharray:none;stroke-opacity:1" d="m 102.95,147.27 66.75,272.08 66.81,-49.44 66.67,-136.1 66.81,-86.54 66.67,49.41 66.81,-24.71 66.81,-24.7 h 66.68 l 66.8,12.41 66.72,-12.41"></path></g></g><path id="path32" style="fill:#4472c4;fill-opacity:1;fill-rule:nonzero;stroke:none" d="m 105.79,147.26 c 0,-1.6 -1.3,-2.9 -2.9,-2.9 -1.6,0 -2.898,1.3 -2.898,2.9 0,1.6 1.298,2.9 2.898,2.9 1.6,0 2.9,-1.3 2.9,-2.9 z"></path><path id="path34" style="fill:none;stroke:#4472c4;stroke-width:0.82822001;stroke-linecap:butt;stroke-linejoin:round;stroke-miterlimit:10;stroke-dasharray:none;stroke-opacity:1" d="m 105.79,147.26 c 0,-1.6 -1.3,-2.9 -2.9,-2.9 -1.6,0 -2.898,1.3 -2.898,2.9 0,1.6 1.298,2.9 2.898,2.9 1.6,0 2.9,-1.3 2.9,-2.9 z"></path><path id="path36" style="fill:#4472c4;fill-opacity:1;fill-rule:nonzero;stroke:none" d="m 172.6,419.33 c 0,-1.6 -1.3,-2.9 -2.9,-2.9 -1.6,0 -2.9,1.3 -2.9,2.9 0,1.6 1.3,2.9 2.9,2.9 1.6,0 2.9,-1.3 2.9,-2.9 z"></path><path id="path38" style="fill:none;stroke:#4472c4;stroke-width:0.82822001;stroke-linecap:butt;stroke-linejoin:round;stroke-miterlimit:10;stroke-dasharray:none;stroke-opacity:1" d="m 172.6,419.33 c 0,-1.6 -1.3,-2.9 -2.9,-2.9 -1.6,0 -2.9,1.3 -2.9,2.9 0,1.6 1.3,2.9 2.9,2.9 1.6,0 2.9,-1.3 2.9,-2.9 z"></path><path id="path40" style="fill:#4472c4;fill-opacity:1;fill-rule:nonzero;stroke:none" d="m 239.41,369.91 c 0,-1.6 -1.3,-2.89 -2.9,-2.89 -1.6,0 -2.9,1.29 -2.9,2.89 0,1.61 1.3,2.9 2.9,2.9 1.6,0 2.9,-1.29 2.9,-2.9 z"></path><path id="path42" style="fill:none;stroke:#4472c4;stroke-width:0.82822001;stroke-linecap:butt;stroke-linejoin:round;stroke-miterlimit:10;stroke-dasharray:none;stroke-opacity:1" d="m 239.41,369.91 c 0,-1.6 -1.3,-2.89 -2.9,-2.89 -1.6,0 -2.9,1.29 -2.9,2.89 0,1.61 1.3,2.9 2.9,2.9 1.6,0 2.9,-1.29 2.9,-2.9 z"></path><path id="path44" style="fill:#4472c4;fill-opacity:1;fill-rule:nonzero;stroke:none" d="m 306.08,233.81 c 0,-1.6 -1.3,-2.9 -2.9,-2.9 -1.6,0 -2.9,1.3 -2.9,2.9 0,1.6 1.3,2.9 2.9,2.9 1.6,0 2.9,-1.3 2.9,-2.9 z"></path><path id="path46" style="fill:none;stroke:#4472c4;stroke-width:0.82822001;stroke-linecap:butt;stroke-linejoin:round;stroke-miterlimit:10;stroke-dasharray:none;stroke-opacity:1" d="m 306.08,233.81 c 0,-1.6 -1.3,-2.9 -2.9,-2.9 -1.6,0 -2.9,1.3 -2.9,2.9 0,1.6 1.3,2.9 2.9,2.9 1.6,0 2.9,-1.3 2.9,-2.9 z"></path><path id="path48" style="fill:#4472c4;fill-opacity:1;fill-rule:nonzero;stroke:none" d="m 372.89,147.26 c 0,-1.6 -1.3,-2.9 -2.9,-2.9 -1.6,0 -2.9,1.3 -2.9,2.9 0,1.6 1.3,2.9 2.9,2.9 1.6,0 2.9,-1.3 2.9,-2.9 z"></path><path id="path50" style="fill:none;stroke:#4472c4;stroke-width:0.82822001;stroke-linecap:butt;stroke-linejoin:round;stroke-miterlimit:10;stroke-dasharray:none;stroke-opacity:1" d="m 372.89,147.26 c 0,-1.6 -1.3,-2.9 -2.9,-2.9 -1.6,0 -2.9,1.3 -2.9,2.9 0,1.6 1.3,2.9 2.9,2.9 1.6,0 2.9,-1.3 2.9,-2.9 z"></path><path id="path52" style="fill:#4472c4;fill-opacity:1;fill-rule:nonzero;stroke:none" d="m 439.56,196.68 c 0,-1.6 -1.3,-2.9 -2.9,-2.9 -1.6,0 -2.9,1.3 -2.9,2.9 0,1.6 1.3,2.9 2.9,2.9 1.6,0 2.9,-1.3 2.9,-2.9 z"></path><path id="path54" style="fill:none;stroke:#4472c4;stroke-width:0.82822001;stroke-linecap:butt;stroke-linejoin:round;stroke-miterlimit:10;stroke-dasharray:none;stroke-opacity:1" d="m 439.56,196.68 c 0,-1.6 -1.3,-2.9 -2.9,-2.9 -1.6,0 -2.9,1.3 -2.9,2.9 0,1.6 1.3,2.9 2.9,2.9 1.6,0 2.9,-1.3 2.9,-2.9 z"></path><path id="path56" style="fill:#4472c4;fill-opacity:1;fill-rule:nonzero;stroke:none" d="m 506.37,171.97 c 0,-1.6 -1.3,-2.9 -2.9,-2.9 -1.6,0 -2.9,1.3 -2.9,2.9 0,1.6 1.3,2.9 2.9,2.9 1.6,0 2.9,-1.3 2.9,-2.9 z"></path><path id="path58" style="fill:none;stroke:#4472c4;stroke-width:0.82822001;stroke-linecap:butt;stroke-linejoin:round;stroke-miterlimit:10;stroke-dasharray:none;stroke-opacity:1" d="m 506.37,171.97 c 0,-1.6 -1.3,-2.9 -2.9,-2.9 -1.6,0 -2.9,1.3 -2.9,2.9 0,1.6 1.3,2.9 2.9,2.9 1.6,0 2.9,-1.3 2.9,-2.9 z"></path><path id="path60" style="fill:#4472c4;fill-opacity:1;fill-rule:nonzero;stroke:none" d="m 573.18,147.26 c 0,-1.6 -1.3,-2.9 -2.9,-2.9 -1.6,0 -2.9,1.3 -2.9,2.9 0,1.6 1.3,2.9 2.9,2.9 1.6,0 2.9,-1.3 2.9,-2.9 z"></path><path id="path62" style="fill:none;stroke:#4472c4;stroke-width:0.82822001;stroke-linecap:butt;stroke-linejoin:round;stroke-miterlimit:10;stroke-dasharray:none;stroke-opacity:1" d="m 573.18,147.26 c 0,-1.6 -1.3,-2.9 -2.9,-2.9 -1.6,0 -2.9,1.3 -2.9,2.9 0,1.6 1.3,2.9 2.9,2.9 1.6,0 2.9,-1.3 2.9,-2.9 z"></path><path id="path64" style="fill:#4472c4;fill-opacity:1;fill-rule:nonzero;stroke:none" d="m 639.85,147.26 c 0,-1.6 -1.29,-2.9 -2.89,-2.9 -1.61,0 -2.9,1.3 -2.9,2.9 0,1.6 1.29,2.9 2.9,2.9 1.6,0 2.89,-1.3 2.89,-2.9 z"></path><path id="path66" style="fill:none;stroke:#4472c4;stroke-width:0.82822001;stroke-linecap:butt;stroke-linejoin:round;stroke-miterlimit:10;stroke-dasharray:none;stroke-opacity:1" d="m 639.85,147.26 c 0,-1.6 -1.29,-2.9 -2.89,-2.9 -1.61,0 -2.9,1.3 -2.9,2.9 0,1.6 1.29,2.9 2.9,2.9 1.6,0 2.89,-1.3 2.89,-2.9 z"></path><path id="path68" style="fill:#4472c4;fill-opacity:1;fill-rule:nonzero;stroke:none" d="m 706.66,159.68 c 0,-1.6 -1.29,-2.89 -2.89,-2.89 -1.61,0 -2.9,1.29 -2.9,2.89 0,1.61 1.29,2.9 2.9,2.9 1.6,0 2.89,-1.29 2.89,-2.9 z"></path><path id="path70" style="fill:none;stroke:#4472c4;stroke-width:0.82822001;stroke-linecap:butt;stroke-linejoin:round;stroke-miterlimit:10;stroke-dasharray:none;stroke-opacity:1" d="m 706.66,159.68 c 0,-1.6 -1.29,-2.89 -2.89,-2.89 -1.61,0 -2.9,1.29 -2.9,2.89 0,1.61 1.29,2.9 2.9,2.9 1.6,0 2.89,-1.29 2.89,-2.9 z"></path><path id="path72" style="fill:#4472c4;fill-opacity:1;fill-rule:nonzero;stroke:none" d="m 773.34,147.26 c 0,-1.6 -1.3,-2.9 -2.9,-2.9 -1.6,0 -2.9,1.3 -2.9,2.9 0,1.6 1.3,2.9 2.9,2.9 1.6,0 2.9,-1.3 2.9,-2.9 z"></path><path id="path74" style="fill:none;stroke:#4472c4;stroke-width:0.82822001;stroke-linecap:butt;stroke-linejoin:round;stroke-miterlimit:10;stroke-dasharray:none;stroke-opacity:1" d="m 773.34,147.26 c 0,-1.6 -1.3,-2.9 -2.9,-2.9 -1.6,0 -2.9,1.3 -2.9,2.9 0,1.6 1.3,2.9 2.9,2.9 1.6,0 2.9,-1.3 2.9,-2.9 z"></path><g id="g76"><g clip-path="url(#clipPath82)" id="g78"><text id="text86" style="font-variant:normal;font-weight:normal;font-size:10.34399986px;font-family:Calibri;-inkscape-font-specification:Calibri;writing-mode:lr-tb;fill:#595959;fill-opacity:1;fill-rule:nonzero;stroke:none" transform="matrix(1,0,0,-1,88.104,144.26)"><tspan id="tspan84" y="0" x="0">0</tspan></text>
</g></g><g id="g88"><g clip-path="url(#clipPath94)" id="g90"><text id="text98" style="font-variant:normal;font-weight:normal;font-size:10.34399986px;font-family:Calibri;-inkscape-font-specification:Calibri;writing-mode:lr-tb;fill:#595959;fill-opacity:1;fill-rule:nonzero;stroke:none" transform="matrix(1,0,0,-1,88.104,206.11)"><tspan id="tspan96" y="0" x="0">5</tspan></text>
</g></g><g id="g100"><g clip-path="url(#clipPath106)" id="g102"><text id="text110" style="font-variant:normal;font-weight:normal;font-size:10.34399986px;font-family:Calibri;-inkscape-font-specification:Calibri;writing-mode:lr-tb;fill:#595959;fill-opacity:1;fill-rule:nonzero;stroke:none" transform="matrix(1,0,0,-1,82.872,267.96)"><tspan id="tspan108" y="0" x="0 5.232008">10</tspan></text>
</g></g><g id="g112"><g clip-path="url(#clipPath118)" id="g114"><text id="text122" style="font-variant:normal;font-weight:normal;font-size:10.34399986px;font-family:Calibri;-inkscape-font-specification:Calibri;writing-mode:lr-tb;fill:#595959;fill-opacity:1;fill-rule:nonzero;stroke:none" transform="matrix(1,0,0,-1,82.872,329.81)"><tspan id="tspan120" y="0" x="0 5.232008">15</tspan></text>
</g></g><g id="g124"><g clip-path="url(#clipPath130)" id="g126"><text id="text134" style="font-variant:normal;font-weight:normal;font-size:10.34399986px;font-family:Calibri;-inkscape-font-specification:Calibri;writing-mode:lr-tb;fill:#595959;fill-opacity:1;fill-rule:nonzero;stroke:none" transform="matrix(1,0,0,-1,82.872,391.66)"><tspan id="tspan132" y="0" x="0 5.232008">20</tspan></text>
</g></g><g id="g136"><g clip-path="url(#clipPath142)" id="g138"><text id="text146" style="font-variant:normal;font-weight:normal;font-size:10.34399986px;font-family:Calibri;-inkscape-font-specification:Calibri;writing-mode:lr-tb;fill:#595959;fill-opacity:1;fill-rule:nonzero;stroke:none" transform="matrix(1,0,0,-1,82.872,453.5)"><tspan id="tspan144" y="0" x="0 5.232008">25</tspan></text>
</g></g><g id="g148"><g clip-path="url(#clipPath154)" id="g150"><text id="text158" style="font-variant:normal;font-weight:normal;font-size:10.34399986px;font-family:Calibri;-inkscape-font-specification:Calibri;writing-mode:lr-tb;fill:#595959;fill-opacity:1;fill-rule:nonzero;stroke:none" transform="matrix(1,0,0,-1,100.34,130.8)"><tspan id="tspan156" y="0" x="0">0</tspan></text>
</g></g><g id="g160"><g clip-path="url(#clipPath166)" id="g162"><text id="text170" style="font-variant:normal;font-weight:normal;font-size:10.34399986px;font-family:Calibri;-inkscape-font-specification:Calibri;writing-mode:lr-tb;fill:#595959;fill-opacity:1;fill-rule:nonzero;stroke:none" transform="matrix(1,0,0,-1,164.47,130.8)"><tspan id="tspan168" y="0" x="0 5.2560081">10</tspan></text>
</g></g><g id="g172"><g clip-path="url(#clipPath178)" id="g174"><text id="text182" style="font-variant:normal;font-weight:normal;font-size:10.34399986px;font-family:Calibri;-inkscape-font-specification:Calibri;writing-mode:lr-tb;fill:#595959;fill-opacity:1;fill-rule:nonzero;stroke:none" transform="matrix(1,0,0,-1,231.24,130.8)"><tspan id="tspan180" y="0" x="0 5.2560081">20</tspan></text>
</g></g><g id="g184"><g clip-path="url(#clipPath190)" id="g186"><text id="text194" style="font-variant:normal;font-weight:normal;font-size:10.34399986px;font-family:Calibri;-inkscape-font-specification:Calibri;writing-mode:lr-tb;fill:#595959;fill-opacity:1;fill-rule:nonzero;stroke:none" transform="matrix(1,0,0,-1,298.01,130.8)"><tspan id="tspan192" y="0" x="0 5.2560081">30</tspan></text>
</g></g><g id="g196"><g clip-path="url(#clipPath202)" id="g198"><text id="text206" style="font-variant:normal;font-weight:normal;font-size:10.34399986px;font-family:Calibri;-inkscape-font-specification:Calibri;writing-mode:lr-tb;fill:#595959;fill-opacity:1;fill-rule:nonzero;stroke:none" transform="matrix(1,0,0,-1,364.78,130.8)"><tspan id="tspan204" y="0" x="0 5.232008">40</tspan></text>
</g></g><g id="g208"><g clip-path="url(#clipPath214)" id="g210"><text id="text218" style="font-variant:normal;font-weight:normal;font-size:10.34399986px;font-family:Calibri;-inkscape-font-specification:Calibri;writing-mode:lr-tb;fill:#595959;fill-opacity:1;fill-rule:nonzero;stroke:none" transform="matrix(1,0,0,-1,431.52,130.8)"><tspan id="tspan216" y="0" x="0 5.2560081">50</tspan></text>
</g></g><g id="g220"><g clip-path="url(#clipPath226)" id="g222"><text id="text230" style="font-variant:normal;font-weight:normal;font-size:10.34399986px;font-family:Calibri;-inkscape-font-specification:Calibri;writing-mode:lr-tb;fill:#595959;fill-opacity:1;fill-rule:nonzero;stroke:none" transform="matrix(1,0,0,-1,498.29,130.8)"><tspan id="tspan228" y="0" x="0 5.2560081">60</tspan></text>
</g></g><g id="g232"><g clip-path="url(#clipPath238)" id="g234"><text id="text242" style="font-variant:normal;font-weight:normal;font-size:10.34399986px;font-family:Calibri;-inkscape-font-specification:Calibri;writing-mode:lr-tb;fill:#595959;fill-opacity:1;fill-rule:nonzero;stroke:none" transform="matrix(1,0,0,-1,565.06,130.8)"><tspan id="tspan240" y="0" x="0 5.2560081">70</tspan></text>
</g></g><g id="g244"><g clip-path="url(#clipPath250)" id="g246"><text id="text254" style="font-variant:normal;font-weight:normal;font-size:10.34399986px;font-family:Calibri;-inkscape-font-specification:Calibri;writing-mode:lr-tb;fill:#595959;fill-opacity:1;fill-rule:nonzero;stroke:none" transform="matrix(1,0,0,-1,631.82,130.8)"><tspan id="tspan252" y="0" x="0 5.232008">80</tspan></text>
</g></g><g id="g256"><g clip-path="url(#clipPath262)" id="g258"><text id="text266" style="font-variant:normal;font-weight:normal;font-size:10.34399986px;font-family:Calibri;-inkscape-font-specification:Calibri;writing-mode:lr-tb;fill:#595959;fill-opacity:1;fill-rule:nonzero;stroke:none" transform="matrix(1,0,0,-1,698.57,130.8)"><tspan id="tspan264" y="0" x="0 5.2560081">90</tspan></text>
</g></g><g id="g268"><g clip-path="url(#clipPath274)" id="g270"><text id="text278" style="font-variant:normal;font-weight:normal;font-size:10.34399986px;font-family:Calibri;-inkscape-font-specification:Calibri;writing-mode:lr-tb;fill:#595959;fill-opacity:1;fill-rule:nonzero;stroke:none" transform="matrix(1,0,0,-1,762.72,130.8)"><tspan id="tspan276" y="0" x="0 5.232008 10.464016">100</tspan></text>
</g></g><g id="g280"><g clip-path="url(#clipPath286)" id="g282"><text id="text290" style="font-variant:normal;font-weight:normal;font-size:11.47200012px;font-family:Calibri;-inkscape-font-specification:Calibri;writing-mode:lr-tb;fill:#595959;fill-opacity:1;fill-rule:nonzero;stroke:none" transform="matrix(-4.4e-8,1,1,4.4e-8,76.272,277.3)"><tspan id="tspan288" y="0" x="0 5.2656479 9.2120161 14.85624 20.913456 26.970673 32.614895 38.672112 43.524769">Frequency</tspan></text>
</g></g><g id="g292"><g clip-path="url(#clipPath298)" id="g294"><text id="text302" style="font-variant:normal;font-weight:normal;font-size:11.47200012px;font-family:Calibri;-inkscape-font-specification:Calibri;writing-mode:lr-tb;fill:#595959;fill-opacity:1;fill-rule:nonzero;stroke:none" transform="matrix(1,0,0,-1,398.9,113.62)"><tspan id="tspan300" y="0" x="0 4.8182402 10.863984 19.032047 24.699217 28.702944 31.456224 37.696991 43.742737 49.799953 55.857166 61.914383 64.380867 67.85688 72.250656">Lower Bound (s)</tspan></text>
</g></g><g id="g304"><g clip-path="url(#clipPath310)" id="g306"><text id="text314" style="font-variant:normal;font-weight:normal;font-size:16.15200043px;font-family:Calibri;-inkscape-font-specification:Calibri;writing-mode:lr-tb;fill:#595959;fill-opacity:1;fill-rule:nonzero;stroke:none" transform="matrix(1,0,0,-1,360.26,475.15)"><tspan id="tspan312" y="0" x="0 7.4137678 15.893568 23.856504 31.851744 40.283089 43.981895 53.915375 57.630337 63.848858 69.259773 74.896828 78.611786 87.026978 95.458321 100.86924 104.5842 113.09631">Speed Distribution</tspan></text>
</g></g><path id="path316" style="fill:none;stroke:#d9d9d9;stroke-width:0.86273003;stroke-linecap:butt;stroke-linejoin:round;stroke-miterlimit:10;stroke-dasharray:none;stroke-opacity:1" d="m 50.989,96.188 h 740.02 v 402.93 H 50.989 Z"></path></g></svg>