<svg xmlns:dc="http://purl.org/dc/elements/1.1/" xmlns:cc="http://creativecommons.org/ns#" xmlns:rdf="http://www.w3.org/1999/02/22-rdf-syntax-ns#" xmlns:svg="http://www.w3.org/2000/svg" xmlns="http://www.w3.org/2000/svg" viewBox="67 70 988 651" xml:space="preserve" id="svg2" version="1.1"><metadata id="metadata8"><rdf:rdf><cc:work rdf:about=""><dc:format>image/svg+xml</dc:format><dc:type rdf:resource="http://purl.org/dc/dcmitype/StillImage"></dc:type></cc:work></rdf:rdf></metadata><defs id="defs6"><clipPath id="clipPath248" clipPathUnits="userSpaceOnUse"><path style="clip-rule:evenodd" id="path246" d="M 128.6,110.1 H 771.87 V 494.29 H 128.6 Z"></path></clipPath><clipPath id="clipPath258" clipPathUnits="userSpaceOnUse"><path style="clip-rule:evenodd" id="path256" d="M 51.12,55.32 H 791.04 V 539.76 H 51.12 Z"></path></clipPath><clipPath id="clipPath270" clipPathUnits="userSpaceOnUse"><path style="clip-rule:evenodd" id="path268" d="M 51.12,55.32 H 791.04 V 539.76 H 51.12 Z"></path></clipPath><clipPath id="clipPath282" clipPathUnits="userSpaceOnUse"><path style="clip-rule:evenodd" id="path280" d="M 51.12,55.32 H 791.04 V 539.76 H 51.12 Z"></path></clipPath><clipPath id="clipPath294" clipPathUnits="userSpaceOnUse"><path style="clip-rule:evenodd" id="path292" d="M 51.12,55.32 H 791.04 V 539.76 H 51.12 Z"></path></clipPath><clipPath id="clipPath306" clipPathUnits="userSpaceOnUse"><path style="clip-rule:evenodd" id="path304" d="M 51.12,55.32 H 791.04 V 539.76 H 51.12 Z"></path></clipPath><clipPath id="clipPath318" clipPathUnits="userSpaceOnUse"><path style="clip-rule:evenodd" id="path316" d="M 51.12,55.32 H 791.04 V 539.76 H 51.12 Z"></path></clipPath><clipPath id="clipPath330" clipPathUnits="userSpaceOnUse"><path style="clip-rule:evenodd" id="path328" d="M 51.12,55.32 H 791.04 V 539.76 H 51.12 Z"></path></clipPath><clipPath id="clipPath342" clipPathUnits="userSpaceOnUse"><path style="clip-rule:evenodd" id="path340" d="M 51.12,55.32 H 791.04 V 539.76 H 51.12 Z"></path></clipPath><clipPath id="clipPath354" clipPathUnits="userSpaceOnUse"><path style="clip-rule:evenodd" id="path352" d="M 51.12,55.32 H 791.04 V 539.76 H 51.12 Z"></path></clipPath><clipPath id="clipPath366" clipPathUnits="userSpaceOnUse"><path style="clip-rule:evenodd" id="path364" d="M 51.12,55.32 H 791.04 V 539.76 H 51.12 Z"></path></clipPath><clipPath id="clipPath378" clipPathUnits="userSpaceOnUse"><path style="clip-rule:evenodd" id="path376" d="M 51.12,55.32 H 791.04 V 539.76 H 51.12 Z"></path></clipPath><clipPath id="clipPath390" clipPathUnits="userSpaceOnUse"><path style="clip-rule:evenodd" id="path388" d="M 51.12,55.32 H 791.04 V 539.76 H 51.12 Z"></path></clipPath><clipPath id="clipPath402" clipPathUnits="userSpaceOnUse"><path style="clip-rule:evenodd" id="path400" d="M 51.12,55.32 H 791.04 V 539.76 H 51.12 Z"></path></clipPath><clipPath id="clipPath414" clipPathUnits="userSpaceOnUse"><path style="clip-rule:evenodd" id="path412" d="M 51.12,55.32 H 791.04 V 539.76 H 51.12 Z"></path></clipPath><clipPath id="clipPath426" clipPathUnits="userSpaceOnUse"><path style="clip-rule:evenodd" id="path424" d="M 51.12,55.32 H 791.04 V 539.76 H 51.12 Z"></path></clipPath><clipPath id="clipPath438" clipPathUnits="userSpaceOnUse"><path style="clip-rule:evenodd" id="path436" d="M 51.12,55.32 H 791.04 V 539.76 H 51.12 Z"></path></clipPath><clipPath id="clipPath450" clipPathUnits="userSpaceOnUse"><path style="clip-rule:evenodd" id="path448" d="M 51.12,55.32 H 791.04 V 539.76 H 51.12 Z"></path></clipPath><clipPath id="clipPath462" clipPathUnits="userSpaceOnUse"><path style="clip-rule:evenodd" id="path460" d="M 51.12,55.32 H 791.04 V 539.76 H 51.12 Z"></path></clipPath></defs><g transform="matrix(1.3333333,0,0,-1.3333333,0,793.76)" id="g10"><path id="path12" style="fill:#ffffff;fill-opacity:1;fill-rule:evenodd;stroke:none" d="m 51.081,55.423 h 739.94 v 484.4 H 51.081 Z"></path><path id="path14" style="fill:none;stroke:#d9d9d9;stroke-width:0.88422;stroke-linecap:butt;stroke-linejoin:round;stroke-miterlimit:10;stroke-dasharray:none;stroke-opacity:1" d="M 128.6,174.05 H 771.86 M 128.6,238.01 H 771.86 M 128.6,302.12 H 771.86 M 128.6,366.22 H 771.86 M 128.6,430.18 H 771.86 M 128.6,494.29 h 643.26"></path><path id="path16" style="fill:none;stroke:#d9d9d9;stroke-width:0.88422;stroke-linecap:butt;stroke-linejoin:round;stroke-miterlimit:10;stroke-dasharray:none;stroke-opacity:1" d="M 220.56,494.29 V 109.95 m 91.81,384.34 V 109.95 m 91.95,384.34 V 109.95 m 91.96,384.34 V 109.95 m 91.81,384.34 V 109.95 m 91.96,384.34 V 109.95 m 91.81,384.34 V 109.95"></path><path id="path18" style="fill:none;stroke:#bfbfbf;stroke-width:0.92106003;stroke-linecap:butt;stroke-linejoin:round;stroke-miterlimit:10;stroke-dasharray:none;stroke-opacity:1" d="M 128.65,109.95 V 494.28"></path><path id="path20" style="fill:none;stroke:#bfbfbf;stroke-width:0.92106003;stroke-linecap:butt;stroke-linejoin:round;stroke-miterlimit:10;stroke-dasharray:none;stroke-opacity:1" d="M 128.65,109.95 H 771.91"></path><path id="path22" style="fill:#4472c4;fill-opacity:1;fill-rule:nonzero;stroke:none" d="m 260.35,143.11 c 0,-1.71 -1.39,-3.1 -3.1,-3.1 -1.71,0 -3.09,1.39 -3.09,3.1 0,1.71 1.38,3.09 3.09,3.09 1.71,0 3.1,-1.38 3.1,-3.09 z"></path><path id="path24" style="fill:none;stroke:#4472c4;stroke-width:0.88422;stroke-linecap:butt;stroke-linejoin:round;stroke-miterlimit:10;stroke-dasharray:none;stroke-opacity:1" d="m 260.35,143.11 c 0,-1.71 -1.39,-3.1 -3.1,-3.1 -1.71,0 -3.09,1.39 -3.09,3.1 0,1.71 1.38,3.09 3.09,3.09 1.71,0 3.1,-1.38 3.1,-3.09 z"></path><path id="path26" style="fill:#4472c4;fill-opacity:1;fill-rule:nonzero;stroke:none" d="m 140.98,114.66 c 0,-1.7 -1.39,-3.09 -3.1,-3.09 -1.71,0 -3.09,1.39 -3.09,3.09 0,1.71 1.38,3.1 3.09,3.1 1.71,0 3.1,-1.39 3.1,-3.1 z"></path><path id="path28" style="fill:none;stroke:#4472c4;stroke-width:0.88422;stroke-linecap:butt;stroke-linejoin:round;stroke-miterlimit:10;stroke-dasharray:none;stroke-opacity:1" d="m 140.98,114.66 c 0,-1.7 -1.39,-3.09 -3.1,-3.09 -1.71,0 -3.09,1.39 -3.09,3.09 0,1.71 1.38,3.1 3.09,3.1 1.71,0 3.1,-1.39 3.1,-3.1 z"></path><path id="path30" style="fill:#4472c4;fill-opacity:1;fill-rule:nonzero;stroke:none" d="m 398.28,148.71 c 0,-1.71 -1.38,-3.1 -3.09,-3.1 -1.71,0 -3.1,1.39 -3.1,3.1 0,1.71 1.39,3.09 3.1,3.09 1.71,0 3.09,-1.38 3.09,-3.09 z"></path><path id="path32" style="fill:none;stroke:#4472c4;stroke-width:0.88422;stroke-linecap:butt;stroke-linejoin:round;stroke-miterlimit:10;stroke-dasharray:none;stroke-opacity:1" d="m 398.28,148.71 c 0,-1.71 -1.38,-3.1 -3.09,-3.1 -1.71,0 -3.1,1.39 -3.1,3.1 0,1.71 1.39,3.09 3.1,3.09 1.71,0 3.09,-1.38 3.09,-3.09 z"></path><path id="path34" style="fill:#4472c4;fill-opacity:1;fill-rule:nonzero;stroke:none" d="m 471.82,255.7 c 0,-1.71 -1.39,-3.1 -3.09,-3.1 -1.71,0 -3.1,1.39 -3.1,3.1 0,1.71 1.39,3.09 3.1,3.09 1.7,0 3.09,-1.38 3.09,-3.09 z"></path><path id="path36" style="fill:none;stroke:#4472c4;stroke-width:0.88422;stroke-linecap:butt;stroke-linejoin:round;stroke-miterlimit:10;stroke-dasharray:none;stroke-opacity:1" d="m 471.82,255.7 c 0,-1.71 -1.39,-3.1 -3.09,-3.1 -1.71,0 -3.1,1.39 -3.1,3.1 0,1.71 1.39,3.09 3.1,3.09 1.7,0 3.09,-1.38 3.09,-3.09 z"></path><path id="path38" style="fill:#4472c4;fill-opacity:1;fill-rule:nonzero;stroke:none" d="m 306.32,139.13 c 0,-1.71 -1.38,-3.1 -3.09,-3.1 -1.71,0 -3.1,1.39 -3.1,3.1 0,1.71 1.39,3.09 3.1,3.09 1.71,0 3.09,-1.38 3.09,-3.09 z"></path><path id="path40" style="fill:none;stroke:#4472c4;stroke-width:0.88422;stroke-linecap:butt;stroke-linejoin:round;stroke-miterlimit:10;stroke-dasharray:none;stroke-opacity:1" d="m 306.32,139.13 c 0,-1.71 -1.38,-3.1 -3.09,-3.1 -1.71,0 -3.1,1.39 -3.1,3.1 0,1.71 1.39,3.09 3.1,3.09 1.71,0 3.09,-1.38 3.09,-3.09 z"></path><path id="path42" style="fill:#4472c4;fill-opacity:1;fill-rule:nonzero;stroke:none" d="m 398.28,268.37 c 0,-1.71 -1.38,-3.09 -3.09,-3.09 -1.71,0 -3.1,1.38 -3.1,3.09 0,1.71 1.39,3.1 3.1,3.1 1.71,0 3.09,-1.39 3.09,-3.1 z"></path><path id="path44" style="fill:none;stroke:#4472c4;stroke-width:0.88422;stroke-linecap:butt;stroke-linejoin:round;stroke-miterlimit:10;stroke-dasharray:none;stroke-opacity:1" d="m 398.28,268.37 c 0,-1.71 -1.38,-3.09 -3.09,-3.09 -1.71,0 -3.1,1.38 -3.1,3.09 0,1.71 1.39,3.1 3.1,3.1 1.71,0 3.09,-1.39 3.09,-3.1 z"></path><path id="path46" style="fill:#4472c4;fill-opacity:1;fill-rule:nonzero;stroke:none" d="m 379.86,156.22 c 0,-1.71 -1.38,-3.09 -3.09,-3.09 -1.71,0 -3.1,1.38 -3.1,3.09 0,1.71 1.39,3.1 3.1,3.1 1.71,0 3.09,-1.39 3.09,-3.1 z"></path><path id="path48" style="fill:none;stroke:#4472c4;stroke-width:0.88422;stroke-linecap:butt;stroke-linejoin:round;stroke-miterlimit:10;stroke-dasharray:none;stroke-opacity:1" d="m 379.86,156.22 c 0,-1.71 -1.38,-3.09 -3.09,-3.09 -1.71,0 -3.1,1.38 -3.1,3.09 0,1.71 1.39,3.1 3.1,3.1 1.71,0 3.09,-1.39 3.09,-3.1 z"></path><path id="path50" style="fill:#4472c4;fill-opacity:1;fill-rule:nonzero;stroke:none" d="m 545.21,445.21 c 0,-1.71 -1.39,-3.09 -3.1,-3.09 -1.7,0 -3.09,1.38 -3.09,3.09 0,1.71 1.39,3.1 3.09,3.1 1.71,0 3.1,-1.39 3.1,-3.1 z"></path><path id="path52" style="fill:none;stroke:#4472c4;stroke-width:0.88422;stroke-linecap:butt;stroke-linejoin:round;stroke-miterlimit:10;stroke-dasharray:none;stroke-opacity:1" d="m 545.21,445.21 c 0,-1.71 -1.39,-3.09 -3.1,-3.09 -1.7,0 -3.09,1.38 -3.09,3.09 0,1.71 1.39,3.1 3.09,3.1 1.71,0 3.1,-1.39 3.1,-3.1 z"></path><path id="path54" style="fill:#4472c4;fill-opacity:1;fill-rule:nonzero;stroke:none" d="m 260.35,146.35 c 0,-1.71 -1.39,-3.1 -3.1,-3.1 -1.71,0 -3.09,1.39 -3.09,3.1 0,1.71 1.38,3.09 3.09,3.09 1.71,0 3.1,-1.38 3.1,-3.09 z"></path><path id="path56" style="fill:none;stroke:#4472c4;stroke-width:0.88422;stroke-linecap:butt;stroke-linejoin:round;stroke-miterlimit:10;stroke-dasharray:none;stroke-opacity:1" d="m 260.35,146.35 c 0,-1.71 -1.39,-3.1 -3.1,-3.1 -1.71,0 -3.09,1.39 -3.09,3.1 0,1.71 1.38,3.09 3.09,3.09 1.71,0 3.1,-1.38 3.1,-3.09 z"></path><path id="path58" style="fill:#4472c4;fill-opacity:1;fill-rule:nonzero;stroke:none" d="m 343.17,194.69 c 0,-1.71 -1.39,-3.1 -3.1,-3.1 -1.71,0 -3.09,1.39 -3.09,3.1 0,1.71 1.38,3.09 3.09,3.09 1.71,0 3.1,-1.38 3.1,-3.09 z"></path><path id="path60" style="fill:none;stroke:#4472c4;stroke-width:0.88422;stroke-linecap:butt;stroke-linejoin:round;stroke-miterlimit:10;stroke-dasharray:none;stroke-opacity:1" d="m 343.17,194.69 c 0,-1.71 -1.39,-3.1 -3.1,-3.1 -1.71,0 -3.09,1.39 -3.09,3.1 0,1.71 1.38,3.09 3.09,3.09 1.71,0 3.1,-1.38 3.1,-3.09 z"></path><path id="path62" style="fill:#4472c4;fill-opacity:1;fill-rule:nonzero;stroke:none" d="m 251.21,200.14 c 0,-1.71 -1.39,-3.1 -3.1,-3.1 -1.71,0 -3.09,1.39 -3.09,3.1 0,1.71 1.38,3.09 3.09,3.09 1.71,0 3.1,-1.38 3.1,-3.09 z"></path><path id="path64" style="fill:none;stroke:#4472c4;stroke-width:0.88422;stroke-linecap:butt;stroke-linejoin:round;stroke-miterlimit:10;stroke-dasharray:none;stroke-opacity:1" d="m 251.21,200.14 c 0,-1.71 -1.39,-3.1 -3.1,-3.1 -1.71,0 -3.09,1.39 -3.09,3.1 0,1.71 1.38,3.09 3.09,3.09 1.71,0 3.1,-1.38 3.1,-3.09 z"></path><path id="path66" style="fill:#4472c4;fill-opacity:1;fill-rule:nonzero;stroke:none" d="m 269.63,146.35 c 0,-1.71 -1.39,-3.1 -3.1,-3.1 -1.7,0 -3.09,1.39 -3.09,3.1 0,1.71 1.39,3.09 3.09,3.09 1.71,0 3.1,-1.38 3.1,-3.09 z"></path><path id="path68" style="fill:none;stroke:#4472c4;stroke-width:0.88422;stroke-linecap:butt;stroke-linejoin:round;stroke-miterlimit:10;stroke-dasharray:none;stroke-opacity:1" d="m 269.63,146.35 c 0,-1.71 -1.39,-3.1 -3.1,-3.1 -1.7,0 -3.09,1.39 -3.09,3.1 0,1.71 1.39,3.09 3.09,3.09 1.71,0 3.1,-1.38 3.1,-3.09 z"></path><path id="path70" style="fill:#4472c4;fill-opacity:1;fill-rule:nonzero;stroke:none" d="m 168.53,128.22 c 0,-1.71 -1.38,-3.09 -3.09,-3.09 -1.71,0 -3.1,1.38 -3.1,3.09 0,1.71 1.39,3.1 3.1,3.1 1.71,0 3.09,-1.39 3.09,-3.1 z"></path><path id="path72" style="fill:none;stroke:#4472c4;stroke-width:0.88422;stroke-linecap:butt;stroke-linejoin:round;stroke-miterlimit:10;stroke-dasharray:none;stroke-opacity:1" d="m 168.53,128.22 c 0,-1.71 -1.38,-3.09 -3.09,-3.09 -1.71,0 -3.1,1.38 -3.1,3.09 0,1.71 1.39,3.1 3.1,3.1 1.71,0 3.09,-1.39 3.09,-3.1 z"></path><path id="path74" style="fill:#4472c4;fill-opacity:1;fill-rule:nonzero;stroke:none" d="m 278.77,121.74 c 0,-1.71 -1.39,-3.1 -3.1,-3.1 -1.71,0 -3.09,1.39 -3.09,3.1 0,1.71 1.38,3.09 3.09,3.09 1.71,0 3.1,-1.38 3.1,-3.09 z"></path><path id="path76" style="fill:none;stroke:#4472c4;stroke-width:0.88422;stroke-linecap:butt;stroke-linejoin:round;stroke-miterlimit:10;stroke-dasharray:none;stroke-opacity:1" d="m 278.77,121.74 c 0,-1.71 -1.39,-3.1 -3.1,-3.1 -1.71,0 -3.09,1.39 -3.09,3.1 0,1.71 1.38,3.09 3.09,3.09 1.71,0 3.1,-1.38 3.1,-3.09 z"></path><path id="path78" style="fill:#4472c4;fill-opacity:1;fill-rule:nonzero;stroke:none" d="m 287.9,132.35 c 0,-1.71 -1.38,-3.1 -3.09,-3.1 -1.71,0 -3.1,1.39 -3.1,3.1 0,1.71 1.39,3.09 3.1,3.09 1.71,0 3.09,-1.38 3.09,-3.09 z"></path><path id="path80" style="fill:none;stroke:#4472c4;stroke-width:0.88422;stroke-linecap:butt;stroke-linejoin:round;stroke-miterlimit:10;stroke-dasharray:none;stroke-opacity:1" d="m 287.9,132.35 c 0,-1.71 -1.38,-3.1 -3.09,-3.1 -1.71,0 -3.1,1.39 -3.1,3.1 0,1.71 1.39,3.09 3.1,3.09 1.71,0 3.09,-1.38 3.09,-3.09 z"></path><path id="path82" style="fill:#4472c4;fill-opacity:1;fill-rule:nonzero;stroke:none" d="m 297.19,122.18 c 0,-1.71 -1.39,-3.09 -3.1,-3.09 -1.71,0 -3.09,1.38 -3.09,3.09 0,1.71 1.38,3.1 3.09,3.1 1.71,0 3.1,-1.39 3.1,-3.1 z"></path><path id="path84" style="fill:none;stroke:#4472c4;stroke-width:0.88422;stroke-linecap:butt;stroke-linejoin:round;stroke-miterlimit:10;stroke-dasharray:none;stroke-opacity:1" d="m 297.19,122.18 c 0,-1.71 -1.39,-3.09 -3.1,-3.09 -1.71,0 -3.09,1.38 -3.09,3.09 0,1.71 1.38,3.1 3.09,3.1 1.71,0 3.1,-1.39 3.1,-3.1 z"></path><path id="path86" style="fill:#4472c4;fill-opacity:1;fill-rule:nonzero;stroke:none" d="m 352.3,164.03 c 0,-1.71 -1.38,-3.09 -3.09,-3.09 -1.71,0 -3.1,1.38 -3.1,3.09 0,1.71 1.39,3.1 3.1,3.1 1.71,0 3.09,-1.39 3.09,-3.1 z"></path><path id="path88" style="fill:none;stroke:#4472c4;stroke-width:0.88422;stroke-linecap:butt;stroke-linejoin:round;stroke-miterlimit:10;stroke-dasharray:none;stroke-opacity:1" d="m 352.3,164.03 c 0,-1.71 -1.38,-3.09 -3.09,-3.09 -1.71,0 -3.1,1.38 -3.1,3.09 0,1.71 1.39,3.1 3.1,3.1 1.71,0 3.09,-1.39 3.09,-3.1 z"></path><path id="path90" style="fill:#4472c4;fill-opacity:1;fill-rule:nonzero;stroke:none" d="m 306.32,165.8 c 0,-1.71 -1.38,-3.09 -3.09,-3.09 -1.71,0 -3.1,1.38 -3.1,3.09 0,1.71 1.39,3.1 3.1,3.1 1.71,0 3.09,-1.39 3.09,-3.1 z"></path><path id="path92" style="fill:none;stroke:#4472c4;stroke-width:0.88422;stroke-linecap:butt;stroke-linejoin:round;stroke-miterlimit:10;stroke-dasharray:none;stroke-opacity:1" d="m 306.32,165.8 c 0,-1.71 -1.38,-3.09 -3.09,-3.09 -1.71,0 -3.1,1.38 -3.1,3.09 0,1.71 1.39,3.1 3.1,3.1 1.71,0 3.09,-1.39 3.09,-3.1 z"></path><path id="path94" style="fill:#4472c4;fill-opacity:1;fill-rule:nonzero;stroke:none" d="m 352.3,196.16 c 0,-1.71 -1.38,-3.09 -3.09,-3.09 -1.71,0 -3.1,1.38 -3.1,3.09 0,1.71 1.39,3.09 3.1,3.09 1.71,0 3.09,-1.38 3.09,-3.09 z"></path><path id="path96" style="fill:none;stroke:#4472c4;stroke-width:0.88422;stroke-linecap:butt;stroke-linejoin:round;stroke-miterlimit:10;stroke-dasharray:none;stroke-opacity:1" d="m 352.3,196.16 c 0,-1.71 -1.38,-3.09 -3.09,-3.09 -1.71,0 -3.1,1.38 -3.1,3.09 0,1.71 1.39,3.09 3.1,3.09 1.71,0 3.09,-1.38 3.09,-3.09 z"></path><path id="path98" style="fill:#4472c4;fill-opacity:1;fill-rule:nonzero;stroke:none" d="m 306.32,148.85 c 0,-1.7 -1.38,-3.09 -3.09,-3.09 -1.71,0 -3.1,1.39 -3.1,3.09 0,1.71 1.39,3.1 3.1,3.1 1.71,0 3.09,-1.39 3.09,-3.1 z"></path><path id="path100" style="fill:none;stroke:#4472c4;stroke-width:0.88422;stroke-linecap:butt;stroke-linejoin:round;stroke-miterlimit:10;stroke-dasharray:none;stroke-opacity:1" d="m 306.32,148.85 c 0,-1.7 -1.38,-3.09 -3.09,-3.09 -1.71,0 -3.1,1.39 -3.1,3.09 0,1.71 1.39,3.1 3.1,3.1 1.71,0 3.09,-1.39 3.09,-3.1 z"></path><path id="path102" style="fill:#4472c4;fill-opacity:1;fill-rule:nonzero;stroke:none" d="m 306.32,127.19 c 0,-1.71 -1.38,-3.09 -3.09,-3.09 -1.71,0 -3.1,1.38 -3.1,3.09 0,1.71 1.39,3.1 3.1,3.1 1.71,0 3.09,-1.39 3.09,-3.1 z"></path><path id="path104" style="fill:none;stroke:#4472c4;stroke-width:0.88422;stroke-linecap:butt;stroke-linejoin:round;stroke-miterlimit:10;stroke-dasharray:none;stroke-opacity:1" d="m 306.32,127.19 c 0,-1.71 -1.38,-3.09 -3.09,-3.09 -1.71,0 -3.1,1.38 -3.1,3.09 0,1.71 1.39,3.1 3.1,3.1 1.71,0 3.09,-1.39 3.09,-3.1 z"></path><path id="path106" style="fill:#4472c4;fill-opacity:1;fill-rule:nonzero;stroke:none" d="m 407.42,144.58 c 0,-1.71 -1.39,-3.09 -3.1,-3.09 -1.7,0 -3.09,1.38 -3.09,3.09 0,1.71 1.39,3.1 3.09,3.1 1.71,0 3.1,-1.39 3.1,-3.1 z"></path><path id="path108" style="fill:none;stroke:#4472c4;stroke-width:0.88422;stroke-linecap:butt;stroke-linejoin:round;stroke-miterlimit:10;stroke-dasharray:none;stroke-opacity:1" d="m 407.42,144.58 c 0,-1.71 -1.39,-3.09 -3.1,-3.09 -1.7,0 -3.09,1.38 -3.09,3.09 0,1.71 1.39,3.1 3.09,3.1 1.71,0 3.1,-1.39 3.1,-3.1 z"></path><path id="path110" style="fill:#4472c4;fill-opacity:1;fill-rule:nonzero;stroke:none" d="m 343.17,243.76 c 0,-1.71 -1.39,-3.09 -3.1,-3.09 -1.71,0 -3.09,1.38 -3.09,3.09 0,1.71 1.38,3.1 3.09,3.1 1.71,0 3.1,-1.39 3.1,-3.1 z"></path><path id="path112" style="fill:none;stroke:#4472c4;stroke-width:0.88422;stroke-linecap:butt;stroke-linejoin:round;stroke-miterlimit:10;stroke-dasharray:none;stroke-opacity:1" d="m 343.17,243.76 c 0,-1.71 -1.39,-3.09 -3.1,-3.09 -1.71,0 -3.09,1.38 -3.09,3.09 0,1.71 1.38,3.1 3.09,3.1 1.71,0 3.1,-1.39 3.1,-3.1 z"></path><path id="path114" style="fill:#4472c4;fill-opacity:1;fill-rule:nonzero;stroke:none" d="m 361.44,131.02 c 0,-1.71 -1.39,-3.09 -3.09,-3.09 -1.71,0 -3.1,1.38 -3.1,3.09 0,1.71 1.39,3.1 3.1,3.1 1.7,0 3.09,-1.39 3.09,-3.1 z"></path><path id="path116" style="fill:none;stroke:#4472c4;stroke-width:0.88422;stroke-linecap:butt;stroke-linejoin:round;stroke-miterlimit:10;stroke-dasharray:none;stroke-opacity:1" d="m 361.44,131.02 c 0,-1.71 -1.39,-3.09 -3.09,-3.09 -1.71,0 -3.1,1.38 -3.1,3.09 0,1.71 1.39,3.1 3.1,3.1 1.7,0 3.09,-1.39 3.09,-3.1 z"></path><path id="path118" style="fill:#4472c4;fill-opacity:1;fill-rule:nonzero;stroke:none" d="m 278.77,166.1 c 0,-1.71 -1.39,-3.1 -3.1,-3.1 -1.71,0 -3.09,1.39 -3.09,3.1 0,1.71 1.38,3.09 3.09,3.09 1.71,0 3.1,-1.38 3.1,-3.09 z"></path><path id="path120" style="fill:none;stroke:#4472c4;stroke-width:0.88422;stroke-linecap:butt;stroke-linejoin:round;stroke-miterlimit:10;stroke-dasharray:none;stroke-opacity:1" d="m 278.77,166.1 c 0,-1.71 -1.39,-3.1 -3.1,-3.1 -1.71,0 -3.09,1.39 -3.09,3.1 0,1.71 1.38,3.09 3.09,3.09 1.71,0 3.1,-1.38 3.1,-3.09 z"></path><path id="path122" style="fill:#4472c4;fill-opacity:1;fill-rule:nonzero;stroke:none" d="m 306.32,135.15 c 0,-1.71 -1.38,-3.1 -3.09,-3.1 -1.71,0 -3.1,1.39 -3.1,3.1 0,1.71 1.39,3.09 3.1,3.09 1.71,0 3.09,-1.38 3.09,-3.09 z"></path><path id="path124" style="fill:none;stroke:#4472c4;stroke-width:0.88422;stroke-linecap:butt;stroke-linejoin:round;stroke-miterlimit:10;stroke-dasharray:none;stroke-opacity:1" d="m 306.32,135.15 c 0,-1.71 -1.38,-3.1 -3.09,-3.1 -1.71,0 -3.1,1.39 -3.1,3.1 0,1.71 1.39,3.09 3.1,3.09 1.71,0 3.09,-1.38 3.09,-3.09 z"></path><path id="path126" style="fill:#4472c4;fill-opacity:1;fill-rule:nonzero;stroke:none" d="m 389,201.61 c 0,-1.71 -1.39,-3.09 -3.1,-3.09 -1.71,0 -3.09,1.38 -3.09,3.09 0,1.71 1.38,3.1 3.09,3.1 1.71,0 3.1,-1.39 3.1,-3.1 z"></path><path id="path128" style="fill:none;stroke:#4472c4;stroke-width:0.88422;stroke-linecap:butt;stroke-linejoin:round;stroke-miterlimit:10;stroke-dasharray:none;stroke-opacity:1" d="m 389,201.61 c 0,-1.71 -1.39,-3.09 -3.1,-3.09 -1.71,0 -3.09,1.38 -3.09,3.09 0,1.71 1.38,3.1 3.09,3.1 1.71,0 3.1,-1.39 3.1,-3.1 z"></path><path id="path130" style="fill:#4472c4;fill-opacity:1;fill-rule:nonzero;stroke:none" d="m 352.3,203.09 c 0,-1.71 -1.38,-3.1 -3.09,-3.1 -1.71,0 -3.1,1.39 -3.1,3.1 0,1.71 1.39,3.09 3.1,3.09 1.71,0 3.09,-1.38 3.09,-3.09 z"></path><path id="path132" style="fill:none;stroke:#4472c4;stroke-width:0.88422;stroke-linecap:butt;stroke-linejoin:round;stroke-miterlimit:10;stroke-dasharray:none;stroke-opacity:1" d="m 352.3,203.09 c 0,-1.71 -1.38,-3.1 -3.09,-3.1 -1.71,0 -3.1,1.39 -3.1,3.1 0,1.71 1.39,3.09 3.1,3.09 1.71,0 3.09,-1.38 3.09,-3.09 z"></path><path id="path134" style="fill:#4472c4;fill-opacity:1;fill-rule:nonzero;stroke:none" d="m 352.3,391.57 c 0,-1.71 -1.38,-3.09 -3.09,-3.09 -1.71,0 -3.1,1.38 -3.1,3.09 0,1.71 1.39,3.1 3.1,3.1 1.71,0 3.09,-1.39 3.09,-3.1 z"></path><path id="path136" style="fill:none;stroke:#4472c4;stroke-width:0.88422;stroke-linecap:butt;stroke-linejoin:round;stroke-miterlimit:10;stroke-dasharray:none;stroke-opacity:1" d="m 352.3,391.57 c 0,-1.71 -1.38,-3.09 -3.09,-3.09 -1.71,0 -3.1,1.38 -3.1,3.09 0,1.71 1.39,3.1 3.1,3.1 1.71,0 3.09,-1.39 3.09,-3.1 z"></path><path id="path138" style="fill:#4472c4;fill-opacity:1;fill-rule:nonzero;stroke:none" d="m 379.86,159.91 c 0,-1.71 -1.38,-3.1 -3.09,-3.1 -1.71,0 -3.1,1.39 -3.1,3.1 0,1.71 1.39,3.09 3.1,3.09 1.71,0 3.09,-1.38 3.09,-3.09 z"></path><path id="path140" style="fill:none;stroke:#4472c4;stroke-width:0.88422;stroke-linecap:butt;stroke-linejoin:round;stroke-miterlimit:10;stroke-dasharray:none;stroke-opacity:1" d="m 379.86,159.91 c 0,-1.71 -1.38,-3.1 -3.09,-3.1 -1.71,0 -3.1,1.39 -3.1,3.1 0,1.71 1.39,3.09 3.1,3.09 1.71,0 3.09,-1.38 3.09,-3.09 z"></path><path id="path142" style="fill:#4472c4;fill-opacity:1;fill-rule:nonzero;stroke:none" d="m 389,147.97 c 0,-1.71 -1.39,-3.09 -3.1,-3.09 -1.71,0 -3.09,1.38 -3.09,3.09 0,1.71 1.38,3.1 3.09,3.1 1.71,0 3.1,-1.39 3.1,-3.1 z"></path><path id="path144" style="fill:none;stroke:#4472c4;stroke-width:0.88422;stroke-linecap:butt;stroke-linejoin:round;stroke-miterlimit:10;stroke-dasharray:none;stroke-opacity:1" d="m 389,147.97 c 0,-1.71 -1.39,-3.09 -3.1,-3.09 -1.71,0 -3.09,1.38 -3.09,3.09 0,1.71 1.38,3.1 3.09,3.1 1.71,0 3.1,-1.39 3.1,-3.1 z"></path><path id="path146" style="fill:#4472c4;fill-opacity:1;fill-rule:nonzero;stroke:none" d="m 370.72,142.37 c 0,-1.71 -1.38,-3.09 -3.09,-3.09 -1.71,0 -3.09,1.38 -3.09,3.09 0,1.71 1.38,3.1 3.09,3.1 1.71,0 3.09,-1.39 3.09,-3.1 z"></path><path id="path148" style="fill:none;stroke:#4472c4;stroke-width:0.88422;stroke-linecap:butt;stroke-linejoin:round;stroke-miterlimit:10;stroke-dasharray:none;stroke-opacity:1" d="m 370.72,142.37 c 0,-1.71 -1.38,-3.09 -3.09,-3.09 -1.71,0 -3.09,1.38 -3.09,3.09 0,1.71 1.38,3.1 3.09,3.1 1.71,0 3.09,-1.39 3.09,-3.1 z"></path><path id="path150" style="fill:#4472c4;fill-opacity:1;fill-rule:nonzero;stroke:none" d="m 297.19,134.41 c 0,-1.71 -1.39,-3.09 -3.1,-3.09 -1.71,0 -3.09,1.38 -3.09,3.09 0,1.71 1.38,3.1 3.09,3.1 1.71,0 3.1,-1.39 3.1,-3.1 z"></path><path id="path152" style="fill:none;stroke:#4472c4;stroke-width:0.88422;stroke-linecap:butt;stroke-linejoin:round;stroke-miterlimit:10;stroke-dasharray:none;stroke-opacity:1" d="m 297.19,134.41 c 0,-1.71 -1.39,-3.09 -3.1,-3.09 -1.71,0 -3.09,1.38 -3.09,3.09 0,1.71 1.38,3.1 3.09,3.1 1.71,0 3.1,-1.39 3.1,-3.1 z"></path><path id="path154" style="fill:#4472c4;fill-opacity:1;fill-rule:nonzero;stroke:none" d="m 287.9,128.52 c 0,-1.71 -1.38,-3.1 -3.09,-3.1 -1.71,0 -3.1,1.39 -3.1,3.1 0,1.71 1.39,3.09 3.1,3.09 1.71,0 3.09,-1.38 3.09,-3.09 z"></path><path id="path156" style="fill:none;stroke:#4472c4;stroke-width:0.88422;stroke-linecap:butt;stroke-linejoin:round;stroke-miterlimit:10;stroke-dasharray:none;stroke-opacity:1" d="m 287.9,128.52 c 0,-1.71 -1.38,-3.1 -3.09,-3.1 -1.71,0 -3.1,1.39 -3.1,3.1 0,1.71 1.39,3.09 3.1,3.09 1.71,0 3.09,-1.38 3.09,-3.09 z"></path><path id="path158" style="fill:#4472c4;fill-opacity:1;fill-rule:nonzero;stroke:none" d="m 343.17,127.63 c 0,-1.71 -1.39,-3.09 -3.1,-3.09 -1.71,0 -3.09,1.38 -3.09,3.09 0,1.71 1.38,3.1 3.09,3.1 1.71,0 3.1,-1.39 3.1,-3.1 z"></path><path id="path160" style="fill:none;stroke:#4472c4;stroke-width:0.88422;stroke-linecap:butt;stroke-linejoin:round;stroke-miterlimit:10;stroke-dasharray:none;stroke-opacity:1" d="m 343.17,127.63 c 0,-1.71 -1.39,-3.09 -3.1,-3.09 -1.71,0 -3.09,1.38 -3.09,3.09 0,1.71 1.38,3.1 3.09,3.1 1.71,0 3.1,-1.39 3.1,-3.1 z"></path><path id="path162" style="fill:#4472c4;fill-opacity:1;fill-rule:nonzero;stroke:none" d="m 306.32,125.57 c 0,-1.71 -1.38,-3.09 -3.09,-3.09 -1.71,0 -3.1,1.38 -3.1,3.09 0,1.71 1.39,3.09 3.1,3.09 1.71,0 3.09,-1.38 3.09,-3.09 z"></path><path id="path164" style="fill:none;stroke:#4472c4;stroke-width:0.88422;stroke-linecap:butt;stroke-linejoin:round;stroke-miterlimit:10;stroke-dasharray:none;stroke-opacity:1" d="m 306.32,125.57 c 0,-1.71 -1.38,-3.09 -3.09,-3.09 -1.71,0 -3.1,1.38 -3.1,3.09 0,1.71 1.39,3.09 3.1,3.09 1.71,0 3.09,-1.38 3.09,-3.09 z"></path><path id="path166" style="fill:#4472c4;fill-opacity:1;fill-rule:nonzero;stroke:none" d="m 352.3,127.78 c 0,-1.71 -1.38,-3.09 -3.09,-3.09 -1.71,0 -3.1,1.38 -3.1,3.09 0,1.71 1.39,3.1 3.1,3.1 1.71,0 3.09,-1.39 3.09,-3.1 z"></path><path id="path168" style="fill:none;stroke:#4472c4;stroke-width:0.88422;stroke-linecap:butt;stroke-linejoin:round;stroke-miterlimit:10;stroke-dasharray:none;stroke-opacity:1" d="m 352.3,127.78 c 0,-1.71 -1.38,-3.09 -3.09,-3.09 -1.71,0 -3.1,1.38 -3.1,3.09 0,1.71 1.39,3.1 3.1,3.1 1.71,0 3.09,-1.39 3.09,-3.1 z"></path><path id="path170" style="fill:#4472c4;fill-opacity:1;fill-rule:nonzero;stroke:none" d="m 462.54,258.64 c 0,-1.7 -1.39,-3.09 -3.1,-3.09 -1.71,0 -3.09,1.39 -3.09,3.09 0,1.71 1.38,3.1 3.09,3.1 1.71,0 3.1,-1.39 3.1,-3.1 z"></path><path id="path172" style="fill:none;stroke:#4472c4;stroke-width:0.88422;stroke-linecap:butt;stroke-linejoin:round;stroke-miterlimit:10;stroke-dasharray:none;stroke-opacity:1" d="m 462.54,258.64 c 0,-1.7 -1.39,-3.09 -3.1,-3.09 -1.71,0 -3.09,1.39 -3.09,3.09 0,1.71 1.38,3.1 3.09,3.1 1.71,0 3.1,-1.39 3.1,-3.1 z"></path><path id="path174" style="fill:#4472c4;fill-opacity:1;fill-rule:nonzero;stroke:none" d="m 444.11,277.51 c 0,-1.71 -1.38,-3.1 -3.09,-3.1 -1.71,0 -3.1,1.39 -3.1,3.1 0,1.71 1.39,3.09 3.1,3.09 1.71,0 3.09,-1.38 3.09,-3.09 z"></path><path id="path176" style="fill:none;stroke:#4472c4;stroke-width:0.88422;stroke-linecap:butt;stroke-linejoin:round;stroke-miterlimit:10;stroke-dasharray:none;stroke-opacity:1" d="m 444.11,277.51 c 0,-1.71 -1.38,-3.1 -3.09,-3.1 -1.71,0 -3.1,1.39 -3.1,3.1 0,1.71 1.39,3.09 3.1,3.09 1.71,0 3.09,-1.38 3.09,-3.09 z"></path><path id="path178" style="fill:#4472c4;fill-opacity:1;fill-rule:nonzero;stroke:none" d="m 324.75,115.4 c 0,-1.71 -1.39,-3.09 -3.1,-3.09 -1.71,0 -3.09,1.38 -3.09,3.09 0,1.71 1.38,3.1 3.09,3.1 1.71,0 3.1,-1.39 3.1,-3.1 z"></path><path id="path180" style="fill:none;stroke:#4472c4;stroke-width:0.88422;stroke-linecap:butt;stroke-linejoin:round;stroke-miterlimit:10;stroke-dasharray:none;stroke-opacity:1" d="m 324.75,115.4 c 0,-1.71 -1.39,-3.09 -3.1,-3.09 -1.71,0 -3.09,1.38 -3.09,3.09 0,1.71 1.38,3.1 3.09,3.1 1.71,0 3.1,-1.39 3.1,-3.1 z"></path><path id="path182" style="fill:#4472c4;fill-opacity:1;fill-rule:nonzero;stroke:none" d="m 315.46,136.18 c 0,-1.71 -1.38,-3.09 -3.09,-3.09 -1.71,0 -3.1,1.38 -3.1,3.09 0,1.71 1.39,3.1 3.1,3.1 1.71,0 3.09,-1.39 3.09,-3.1 z"></path><path id="path184" style="fill:none;stroke:#4472c4;stroke-width:0.88422;stroke-linecap:butt;stroke-linejoin:round;stroke-miterlimit:10;stroke-dasharray:none;stroke-opacity:1" d="m 315.46,136.18 c 0,-1.71 -1.38,-3.09 -3.09,-3.09 -1.71,0 -3.1,1.38 -3.1,3.09 0,1.71 1.39,3.1 3.1,3.1 1.71,0 3.09,-1.39 3.09,-3.1 z"></path><path id="path186" style="fill:#4472c4;fill-opacity:1;fill-rule:nonzero;stroke:none" d="m 379.86,152.24 c 0,-1.71 -1.38,-3.09 -3.09,-3.09 -1.71,0 -3.1,1.38 -3.1,3.09 0,1.71 1.39,3.1 3.1,3.1 1.71,0 3.09,-1.39 3.09,-3.1 z"></path><path id="path188" style="fill:none;stroke:#4472c4;stroke-width:0.88422;stroke-linecap:butt;stroke-linejoin:round;stroke-miterlimit:10;stroke-dasharray:none;stroke-opacity:1" d="m 379.86,152.24 c 0,-1.71 -1.38,-3.09 -3.09,-3.09 -1.71,0 -3.1,1.38 -3.1,3.09 0,1.71 1.39,3.1 3.1,3.1 1.71,0 3.09,-1.39 3.09,-3.1 z"></path><path id="path190" style="fill:#4472c4;fill-opacity:1;fill-rule:nonzero;stroke:none" d="m 434.98,270.58 c 0,-1.71 -1.39,-3.09 -3.1,-3.09 -1.71,0 -3.09,1.38 -3.09,3.09 0,1.71 1.38,3.1 3.09,3.1 1.71,0 3.1,-1.39 3.1,-3.1 z"></path><path id="path192" style="fill:none;stroke:#4472c4;stroke-width:0.88422;stroke-linecap:butt;stroke-linejoin:round;stroke-miterlimit:10;stroke-dasharray:none;stroke-opacity:1" d="m 434.98,270.58 c 0,-1.71 -1.39,-3.09 -3.1,-3.09 -1.71,0 -3.09,1.38 -3.09,3.09 0,1.71 1.38,3.1 3.09,3.1 1.71,0 3.1,-1.39 3.1,-3.1 z"></path><path id="path194" style="fill:#4472c4;fill-opacity:1;fill-rule:nonzero;stroke:none" d="m 306.32,129.25 c 0,-1.7 -1.38,-3.09 -3.09,-3.09 -1.71,0 -3.1,1.39 -3.1,3.09 0,1.71 1.39,3.1 3.1,3.1 1.71,0 3.09,-1.39 3.09,-3.1 z"></path><path id="path196" style="fill:none;stroke:#4472c4;stroke-width:0.88422;stroke-linecap:butt;stroke-linejoin:round;stroke-miterlimit:10;stroke-dasharray:none;stroke-opacity:1" d="m 306.32,129.25 c 0,-1.7 -1.38,-3.09 -3.09,-3.09 -1.71,0 -3.1,1.39 -3.1,3.09 0,1.71 1.39,3.1 3.1,3.1 1.71,0 3.09,-1.39 3.09,-3.1 z"></path><path id="path198" style="fill:#4472c4;fill-opacity:1;fill-rule:nonzero;stroke:none" d="m 287.9,124.98 c 0,-1.71 -1.38,-3.09 -3.09,-3.09 -1.71,0 -3.1,1.38 -3.1,3.09 0,1.71 1.39,3.1 3.1,3.1 1.71,0 3.09,-1.39 3.09,-3.1 z"></path><path id="path200" style="fill:none;stroke:#4472c4;stroke-width:0.88422;stroke-linecap:butt;stroke-linejoin:round;stroke-miterlimit:10;stroke-dasharray:none;stroke-opacity:1" d="m 287.9,124.98 c 0,-1.71 -1.38,-3.09 -3.09,-3.09 -1.71,0 -3.1,1.38 -3.1,3.09 0,1.71 1.39,3.1 3.1,3.1 1.71,0 3.09,-1.39 3.09,-3.1 z"></path><path id="path202" style="fill:#4472c4;fill-opacity:1;fill-rule:nonzero;stroke:none" d="m 278.77,120.85 c 0,-1.7 -1.39,-3.09 -3.1,-3.09 -1.71,0 -3.09,1.39 -3.09,3.09 0,1.71 1.38,3.1 3.09,3.1 1.71,0 3.1,-1.39 3.1,-3.1 z"></path><path id="path204" style="fill:none;stroke:#4472c4;stroke-width:0.88422;stroke-linecap:butt;stroke-linejoin:round;stroke-miterlimit:10;stroke-dasharray:none;stroke-opacity:1" d="m 278.77,120.85 c 0,-1.7 -1.39,-3.09 -3.1,-3.09 -1.71,0 -3.09,1.39 -3.09,3.09 0,1.71 1.38,3.1 3.09,3.1 1.71,0 3.1,-1.39 3.1,-3.1 z"></path><path id="path206" style="fill:#4472c4;fill-opacity:1;fill-rule:nonzero;stroke:none" d="m 517.65,170.81 c 0,-1.71 -1.38,-3.09 -3.09,-3.09 -1.71,0 -3.1,1.38 -3.1,3.09 0,1.71 1.39,3.1 3.1,3.1 1.71,0 3.09,-1.39 3.09,-3.1 z"></path><path id="path208" style="fill:none;stroke:#4472c4;stroke-width:0.88422;stroke-linecap:butt;stroke-linejoin:round;stroke-miterlimit:10;stroke-dasharray:none;stroke-opacity:1" d="m 517.65,170.81 c 0,-1.71 -1.38,-3.09 -3.09,-3.09 -1.71,0 -3.1,1.38 -3.1,3.09 0,1.71 1.39,3.1 3.1,3.1 1.71,0 3.09,-1.39 3.09,-3.1 z"></path><path id="path210" style="fill:#4472c4;fill-opacity:1;fill-rule:nonzero;stroke:none" d="m 471.82,115.11 c 0,-1.71 -1.39,-3.1 -3.09,-3.1 -1.71,0 -3.1,1.39 -3.1,3.1 0,1.71 1.39,3.09 3.1,3.09 1.7,0 3.09,-1.38 3.09,-3.09 z"></path><path id="path212" style="fill:none;stroke:#4472c4;stroke-width:0.88422;stroke-linecap:butt;stroke-linejoin:round;stroke-miterlimit:10;stroke-dasharray:none;stroke-opacity:1" d="m 471.82,115.11 c 0,-1.71 -1.39,-3.1 -3.09,-3.1 -1.71,0 -3.1,1.39 -3.1,3.1 0,1.71 1.39,3.09 3.1,3.09 1.7,0 3.09,-1.38 3.09,-3.09 z"></path><path id="path214" style="fill:#4472c4;fill-opacity:1;fill-rule:nonzero;stroke:none" d="m 343.17,161.09 c 0,-1.71 -1.39,-3.1 -3.1,-3.1 -1.71,0 -3.09,1.39 -3.09,3.1 0,1.71 1.38,3.09 3.09,3.09 1.71,0 3.1,-1.38 3.1,-3.09 z"></path><path id="path216" style="fill:none;stroke:#4472c4;stroke-width:0.88422;stroke-linecap:butt;stroke-linejoin:round;stroke-miterlimit:10;stroke-dasharray:none;stroke-opacity:1" d="m 343.17,161.09 c 0,-1.71 -1.39,-3.1 -3.1,-3.1 -1.71,0 -3.09,1.39 -3.09,3.1 0,1.71 1.38,3.09 3.09,3.09 1.71,0 3.1,-1.38 3.1,-3.09 z"></path><path id="path218" style="fill:#4472c4;fill-opacity:1;fill-rule:nonzero;stroke:none" d="m 425.84,145.76 c 0,-1.71 -1.38,-3.09 -3.09,-3.09 -1.71,0 -3.1,1.38 -3.1,3.09 0,1.71 1.39,3.09 3.1,3.09 1.71,0 3.09,-1.38 3.09,-3.09 z"></path><path id="path220" style="fill:none;stroke:#4472c4;stroke-width:0.88422;stroke-linecap:butt;stroke-linejoin:round;stroke-miterlimit:10;stroke-dasharray:none;stroke-opacity:1" d="m 425.84,145.76 c 0,-1.71 -1.38,-3.09 -3.09,-3.09 -1.71,0 -3.1,1.38 -3.1,3.09 0,1.71 1.39,3.09 3.1,3.09 1.71,0 3.09,-1.38 3.09,-3.09 z"></path><path id="path222" style="fill:#4472c4;fill-opacity:1;fill-rule:nonzero;stroke:none" d="m 232.79,137.21 c 0,-1.71 -1.39,-3.09 -3.1,-3.09 -1.71,0 -3.09,1.38 -3.09,3.09 0,1.71 1.38,3.1 3.09,3.1 1.71,0 3.1,-1.39 3.1,-3.1 z"></path><path id="path224" style="fill:none;stroke:#4472c4;stroke-width:0.88422;stroke-linecap:butt;stroke-linejoin:round;stroke-miterlimit:10;stroke-dasharray:none;stroke-opacity:1" d="m 232.79,137.21 c 0,-1.71 -1.39,-3.09 -3.1,-3.09 -1.71,0 -3.09,1.38 -3.09,3.09 0,1.71 1.38,3.1 3.09,3.1 1.71,0 3.1,-1.39 3.1,-3.1 z"></path><path id="path226" style="fill:#4472c4;fill-opacity:1;fill-rule:nonzero;stroke:none" d="m 287.9,161.68 c 0,-1.71 -1.38,-3.1 -3.09,-3.1 -1.71,0 -3.1,1.39 -3.1,3.1 0,1.7 1.39,3.09 3.1,3.09 1.71,0 3.09,-1.39 3.09,-3.09 z"></path><path id="path228" style="fill:none;stroke:#4472c4;stroke-width:0.88422;stroke-linecap:butt;stroke-linejoin:round;stroke-miterlimit:10;stroke-dasharray:none;stroke-opacity:1" d="m 287.9,161.68 c 0,-1.71 -1.38,-3.1 -3.09,-3.1 -1.71,0 -3.1,1.39 -3.1,3.1 0,1.7 1.39,3.09 3.1,3.09 1.71,0 3.09,-1.39 3.09,-3.09 z"></path><path id="path230" style="fill:#4472c4;fill-opacity:1;fill-rule:nonzero;stroke:none" d="m 177.67,182.01 c 0,-1.71 -1.38,-3.09 -3.09,-3.09 -1.71,0 -3.1,1.38 -3.1,3.09 0,1.71 1.39,3.1 3.1,3.1 1.71,0 3.09,-1.39 3.09,-3.1 z"></path><path id="path232" style="fill:none;stroke:#4472c4;stroke-width:0.88422;stroke-linecap:butt;stroke-linejoin:round;stroke-miterlimit:10;stroke-dasharray:none;stroke-opacity:1" d="m 177.67,182.01 c 0,-1.71 -1.38,-3.09 -3.09,-3.09 -1.71,0 -3.1,1.38 -3.1,3.09 0,1.71 1.39,3.1 3.1,3.1 1.71,0 3.09,-1.39 3.09,-3.1 z"></path><path id="path234" style="fill:#4472c4;fill-opacity:1;fill-rule:nonzero;stroke:none" d="m 186.81,127.63 c 0,-1.71 -1.39,-3.09 -3.1,-3.09 -1.71,0 -3.09,1.38 -3.09,3.09 0,1.71 1.38,3.1 3.09,3.1 1.71,0 3.1,-1.39 3.1,-3.1 z"></path><path id="path236" style="fill:none;stroke:#4472c4;stroke-width:0.88422;stroke-linecap:butt;stroke-linejoin:round;stroke-miterlimit:10;stroke-dasharray:none;stroke-opacity:1" d="m 186.81,127.63 c 0,-1.71 -1.39,-3.09 -3.1,-3.09 -1.71,0 -3.09,1.38 -3.09,3.09 0,1.71 1.38,3.1 3.09,3.1 1.71,0 3.1,-1.39 3.1,-3.1 z"></path><path id="path238" style="fill:#4472c4;fill-opacity:1;fill-rule:nonzero;stroke:none" d="m 196.09,182.6 c 0,-1.71 -1.38,-3.09 -3.09,-3.09 -1.71,0 -3.1,1.38 -3.1,3.09 0,1.71 1.39,3.1 3.1,3.1 1.71,0 3.09,-1.39 3.09,-3.1 z"></path><path id="path240" style="fill:none;stroke:#4472c4;stroke-width:0.88422;stroke-linecap:butt;stroke-linejoin:round;stroke-miterlimit:10;stroke-dasharray:none;stroke-opacity:1" d="m 196.09,182.6 c 0,-1.71 -1.38,-3.09 -3.09,-3.09 -1.71,0 -3.1,1.38 -3.1,3.09 0,1.71 1.39,3.1 3.1,3.1 1.71,0 3.09,-1.39 3.09,-3.1 z"></path><g id="g242"><g clip-path="url(#clipPath248)" id="g244"><path id="path250" style="fill:none;stroke:#4472c4;stroke-width:1.91579998;stroke-linecap:round;stroke-linejoin:round;stroke-miterlimit:10;stroke-dasharray:5.7474, 7.6632;stroke-dashoffset:0;stroke-opacity:1" d="m 128.67,120.04 0.74,0.15 h 0.73 0.74 l 0.89,0.15 h 0.73 l 0.74,0.15 h 0.74 0.73 l 0.74,0.14 h 0.88 0.74 l 0.74,0.15 h 0.73 l 0.74,0.15 h 0.89 0.73 l 0.74,0.15 h 0.74 l 0.73,0.14 h 0.74 0.88 l 0.74,0.15 h 0.74 l 0.73,0.15 h 0.74 0.89 l 0.73,0.14 h 0.74 l 0.74,0.15 h 0.73 0.74 l 0.88,0.15 h 0.74 l 0.74,0.15 h 0.73 l 0.74,0.14 h 0.89 0.73 l 0.74,0.15 h 0.74 l 0.73,0.15 h 0.74 l 0.88,0.15 h 0.74 l 0.74,0.14 h 0.73 l 0.74,0.15 h 0.89 0.73 l 0.74,0.15 h 0.74 l 0.73,0.15 h 0.74 l 0.88,0.14 h 0.74 l 0.74,0.15 h 0.73 l 0.74,0.15 h 0.89 l 0.73,0.15 h 0.74 l 0.74,0.14 h 0.73 l 0.74,0.15 h 0.88 l 0.74,0.15 h 0.74 l 0.73,0.14 h 0.74 l 0.89,0.15 h 0.73 l 0.74,0.15 h 0.74 l 0.73,0.15 h 0.74 l 0.88,0.14 h 0.74 l 0.74,0.15 0.73,0.15 h 0.74 l 0.89,0.15 h 0.73 l 0.74,0.14 h 0.74 l 0.73,0.15 h 0.74 l 0.88,0.15 0.74,0.15 h 0.74 l 0.73,0.14 h 0.74 l 0.89,0.15 h 0.73 l 0.74,0.15 0.74,0.15 h 0.73 l 0.74,0.14 h 0.88 l 0.74,0.15 0.74,0.15 h 0.73 l 0.74,0.14 0.89,0.15 h 0.73 l 0.74,0.15 h 0.74 l 0.73,0.15 0.74,0.14 h 0.88 l 0.74,0.15 0.74,0.15 h 0.73 l 0.74,0.15 0.89,0.14 h 0.73 l 0.74,0.15 h 0.74 l 0.73,0.15 0.74,0.15 0.88,0.14 h 0.74 l 0.74,0.15 0.73,0.15 h 0.74 l 0.89,0.15 0.73,0.14 h 0.74 l 0.74,0.15 0.73,0.15 h 0.74 l 0.88,0.14 0.74,0.15 0.74,0.15 h 0.73 l 0.74,0.15 0.89,0.14 0.73,0.15 h 0.74 l 0.74,0.15 0.73,0.15 0.74,0.14 h 0.88 l 0.74,0.15 0.74,0.15 0.73,0.15 h 0.74 l 0.89,0.14 0.73,0.15 0.74,0.15 h 0.74 l 0.73,0.15 0.74,0.14 0.88,0.15 0.74,0.15 h 0.74 l 0.73,0.14 0.74,0.15 0.89,0.15 0.73,0.15 0.74,0.14 h 0.74 l 0.73,0.15 0.74,0.15 0.88,0.15 0.74,0.14 0.74,0.15 0.73,0.15 h 0.74 l 0.89,0.15 0.73,0.14 0.74,0.15 0.74,0.15 0.73,0.15 0.74,0.14 0.88,0.15 h 0.74 l 0.74,0.15 0.74,0.15 0.73,0.14 0.89,0.15 0.73,0.15 0.74,0.14 0.74,0.15 0.73,0.15 0.74,0.15 0.88,0.14 0.74,0.15 0.74,0.15 0.74,0.15 0.73,0.14 0.89,0.15 0.73,0.15 0.74,0.15 0.74,0.14 0.73,0.15 0.74,0.15 0.88,0.15 0.74,0.14 0.74,0.15 0.74,0.15 0.73,0.14 0.74,0.15 0.88,0.15 0.74,0.15 0.74,0.14 0.73,0.15 0.74,0.15 0.88,0.15 0.74,0.14 0.74,0.15 0.74,0.15 0.73,0.15 0.74,0.14 0.88,0.3 0.74,0.15 0.74,0.14 0.73,0.15 0.74,0.15 0.88,0.14 0.74,0.15 0.74,0.15 0.74,0.29 0.73,0.15 0.74,0.15 0.88,0.15 0.74,0.14 0.74,0.15 0.73,0.3 0.74,0.14 0.88,0.15 0.74,0.15 0.74,0.15 0.74,0.29 0.73,0.15 0.74,0.14 0.88,0.15 0.74,0.3 0.74,0.14 0.73,0.15 0.74,0.15 0.88,0.29 0.74,0.15 0.74,0.15 0.74,0.15 0.73,0.29 0.74,0.15 0.88,0.15 0.74,0.29 0.74,0.15 0.73,0.14 0.74,0.3 0.88,0.15 0.74,0.14 0.74,0.3 0.74,0.15 0.73,0.29 0.74,0.15 0.88,0.15 0.74,0.29 0.74,0.15 0.73,0.15 0.74,0.29 0.88,0.15 0.74,0.29 0.74,0.15 0.74,0.29 0.73,0.15 0.74,0.3 0.88,0.14 0.74,0.3 0.74,0.15 0.73,0.29 0.74,0.15 0.88,0.29 0.74,0.15 0.74,0.29 0.74,0.15 0.73,0.3 0.74,0.14 0.88,0.3 0.74,0.15 0.74,0.29 0.73,0.15 0.74,0.29 0.88,0.3 0.74,0.15 0.74,0.29 0.74,0.29 0.73,0.15 0.74,0.3 0.88,0.14 0.74,0.3 0.74,0.29 0.73,0.15 0.74,0.3 0.89,0.29 0.73,0.3 0.74,0.14 0.74,0.3 0.73,0.29 0.74,0.15 0.88,0.29 0.74,0.3 0.74,0.29 0.73,0.15 0.74,0.3 0.89,0.29 0.73,0.3 0.74,0.29 0.74,0.29 0.73,0.15 0.74,0.3 0.88,0.29 0.74,0.3 0.74,0.29 0.73,0.3 0.74,0.29 0.89,0.15 0.73,0.29 0.74,0.3 0.74,0.29 0.73,0.3 0.74,0.29 0.88,0.3 0.74,0.29 0.74,0.3 0.73,0.29 0.74,0.3 0.89,0.29 0.73,0.29 0.74,0.3 0.74,0.29 0.73,0.3 0.74,0.29 0.88,0.3 0.74,0.29 0.74,0.45 0.73,0.29 0.74,0.29 0.89,0.3 0.73,0.29 0.74,0.3 0.74,0.29 0.73,0.45 0.74,0.29 0.88,0.3 0.74,0.29 0.74,0.29 0.73,0.45 0.74,0.29 0.89,0.3 0.73,0.29 0.74,0.44 0.74,0.3 0.73,0.29 0.74,0.44 0.88,0.3 0.74,0.29 0.74,0.45 0.73,0.29 0.74,0.3 0.89,0.44 0.73,0.29 0.74,0.44 0.74,0.3 0.73,0.29 0.74,0.45 0.88,0.29 0.74,0.44 0.74,0.3 0.73,0.44 0.74,0.29 0.89,0.45 0.73,0.44 0.74,0.29 0.74,0.45 0.73,0.29 0.74,0.44 0.88,0.3 0.74,0.44 0.74,0.44 0.73,0.3 0.74,0.44 0.89,0.44 0.73,0.3 0.74,0.44 0.74,0.44 0.73,0.44 0.74,0.3 0.88,0.44 0.74,0.44 0.74,0.44 0.73,0.44 0.74,0.3 0.89,0.44 0.73,0.44 0.74,0.45 0.74,0.44 0.73,0.44 0.74,0.44 0.88,0.44 0.74,0.45 0.74,0.44 0.73,0.44 0.74,0.44 0.89,0.44 0.73,0.45 0.74,0.44 0.74,0.44 0.73,0.44 0.74,0.45 0.88,0.44 0.74,0.44 0.74,0.44 0.73,0.44 0.74,0.59 0.89,0.45 0.73,0.44 0.74,0.44 0.74,0.44 0.73,0.59 0.74,0.44 0.88,0.45 0.74,0.58 0.74,0.45 0.73,0.44 0.74,0.59 0.89,0.44 0.73,0.44 0.74,0.59 0.74,0.44 0.73,0.59 0.74,0.45 0.88,0.59 0.74,0.44 0.74,0.59 0.73,0.44 0.74,0.59 0.89,0.44 0.73,0.59 0.74,0.59 0.74,0.44 0.73,0.59 0.74,0.59 0.88,0.44 0.74,0.59 0.74,0.59 0.73,0.59 0.74,0.44 0.89,0.59 0.73,0.59 0.74,0.59 0.74,0.59 0.73,0.59 0.74,0.44 0.88,0.59 0.74,0.59 0.74,0.59 0.73,0.59 0.74,0.59 0.89,0.59 0.73,0.59 0.74,0.59 0.74,0.59 0.73,0.73 0.74,0.59 0.88,0.59 0.74,0.59 0.74,0.59 0.73,0.59 0.74,0.74 0.89,0.59 0.73,0.59 0.74,0.74 0.74,0.58 0.73,0.59 0.74,0.74 0.88,0.59 0.74,0.59 0.74,0.74 0.73,0.59 0.74,0.73 0.89,0.59 0.73,0.74 0.74,0.59 0.74,0.74 0.73,0.73 0.74,0.59 0.88,0.74 0.74,0.74 0.74,0.59 0.73,0.73 0.74,0.74 0.89,0.74 0.73,0.59 0.74,0.73 0.74,0.74 0.73,0.74 0.74,0.73 0.88,0.74 0.74,0.74 0.74,0.73 0.73,0.74 0.74,0.74 0.89,0.73 0.73,0.74 0.74,0.74 0.74,0.73 0.73,0.74 0.74,0.89 0.88,0.73 0.74,0.74 0.74,0.74 0.73,0.88 0.74,0.74 0.89,0.73 0.73,0.89 0.74,0.73 0.74,0.89 0.73,0.74 0.74,0.88 0.88,0.74 0.74,0.88 0.74,0.74 0.73,0.88 0.74,0.89 0.89,0.73 0.73,0.89 0.74,0.88 0.74,0.74 0.73,0.88 0.74,0.89 0.88,0.88 0.74,0.89 0.74,0.88 0.73,0.88 0.74,0.89 0.74,0.88 0.88,0.89 0.74,0.88 0.74,0.88 0.73,0.89 0.74,0.88 0.88,1.03 0.74,0.89 0.74,0.88 0.74,0.89 0.73,1.03 0.74,0.88 0.88,1.03 0.74,0.89 0.74,0.88 0.73,1.03 0.74,1.04 0.88,0.88 0.74,1.03 0.74,0.89 0.74,1.03 0.73,1.03 0.74,1.03 0.88,0.89 0.74,1.03 0.74,1.03 0.73,1.03 0.74,1.03 0.88,1.03 0.74,1.03 0.74,1.04 0.74,1.03 0.73,1.03 0.74,1.03 0.88,1.03 0.74,1.18 0.74,1.03 0.73,1.03 0.74,1.18 0.88,1.04 0.74,1.03 0.74,1.18 0.74,1.03 0.73,1.18 0.74,1.03 0.88,1.18 0.74,1.18 0.74,1.03 0.73,1.18 0.74,1.18 0.88,1.17 0.74,1.18 0.74,1.18 0.74,1.18 0.73,1.03 0.74,1.33 0.88,1.18 0.74,1.18 0.74,1.18 0.73,1.18 0.74,1.17 0.88,1.33 0.74,1.18 0.74,1.18 0.74,1.32 0.73,1.18 0.74,1.33 0.88,1.18 0.74,1.33 0.74,1.17 0.73,1.33 0.74,1.33 0.88,1.32 0.74,1.33 0.74,1.18 0.74,1.32 0.73,1.33 0.74,1.33 0.88,1.32 0.74,1.33 0.74,1.47 0.73,1.33 0.74,1.33 0.88,1.32 0.74,1.48 0.74,1.32 0.74,1.48 0.73,1.32 0.74,1.48 0.88,1.32 0.74,1.48 0.74,1.47 0.73,1.33 0.74,1.47 0.88,1.47 0.74,1.48 0.74,1.47 0.74,1.47 0.73,1.48 0.74,1.47 0.88,1.48 0.74,1.47 0.74,1.62 0.73,1.47 0.74,1.48 0.88,1.62 0.74,1.47 0.74,1.62 0.74,1.48 0.73,1.62 0.74,1.62 0.88,1.62 0.74,1.47 0.74,1.63 0.73,1.62 0.74,1.62 0.88,1.62 0.74,1.62 0.74,1.77 0.74,1.62 0.73,1.62 0.74,1.62 0.88,1.77 0.74,1.62 0.74,1.77 0.73,1.62 0.74,1.77 0.89,1.77 0.73,1.77 0.74,1.62 0.74,1.77 0.73,1.76 0.74,1.77 0.88,1.77 0.74,1.77 0.74,1.91 0.73,1.77 0.74,1.77 0.89,1.92 0.73,1.77 0.74,1.91 0.74,1.77 0.73,1.92 0.74,1.91 0.88,1.92 0.74,1.77 0.74,1.91 0.73,1.92 0.74,1.91 0.89,2.07 0.73,1.91 0.74,1.92 0.74,1.91 0.73,2.07 0.74,1.91 0.88,2.07 0.74,1.91 0.74,2.06 0.73,2.07 0.74,2.06 0.89,2.06"></path></g></g><g id="g252"><g clip-path="url(#clipPath258)" id="g254"><text id="text262" style="font-variant:normal;font-weight:normal;font-size:11.06400013px;font-family:Calibri;-inkscape-font-specification:Calibri;writing-mode:lr-tb;fill:#595959;fill-opacity:1;fill-rule:nonzero;stroke:none" transform="matrix(1,0,0,-1,96.312,106.75)"><tspan id="tspan260" y="0" x="0 5.609448 8.3975763 14.007024">0.00</tspan></text>
</g></g><g id="g264"><g clip-path="url(#clipPath270)" id="g266"><text id="text274" style="font-variant:normal;font-weight:normal;font-size:11.03999996px;font-family:Calibri;-inkscape-font-specification:Calibri;writing-mode:lr-tb;fill:#595959;fill-opacity:1;fill-rule:nonzero;stroke:none" transform="matrix(1,0,0,-1,90.72,170.81)"><tspan id="tspan272" y="0" x="0 5.59728 11.19456 13.97664 19.573919">20.00</tspan></text>
</g></g><g id="g276"><g clip-path="url(#clipPath282)" id="g278"><text id="text286" style="font-variant:normal;font-weight:normal;font-size:11.06400013px;font-family:Calibri;-inkscape-font-specification:Calibri;writing-mode:lr-tb;fill:#595959;fill-opacity:1;fill-rule:nonzero;stroke:none" transform="matrix(1,0,0,-1,90.72,234.89)"><tspan id="tspan284" y="0" x="0 5.609448 11.185704 13.973832 19.583281">40.00</tspan></text>
</g></g><g id="g288"><g clip-path="url(#clipPath294)" id="g290"><text id="text298" style="font-variant:normal;font-weight:normal;font-size:11.03999996px;font-family:Calibri;-inkscape-font-specification:Calibri;writing-mode:lr-tb;fill:#595959;fill-opacity:1;fill-rule:nonzero;stroke:none" transform="matrix(1,0,0,-1,90.72,298.94)"><tspan id="tspan296" y="0" x="0 5.59728 11.19456 13.97664 19.573919">60.00</tspan></text>
</g></g><g id="g300"><g clip-path="url(#clipPath306)" id="g302"><text id="text310" style="font-variant:normal;font-weight:normal;font-size:11.06400013px;font-family:Calibri;-inkscape-font-specification:Calibri;writing-mode:lr-tb;fill:#595959;fill-opacity:1;fill-rule:nonzero;stroke:none" transform="matrix(1,0,0,-1,90.72,363.02)"><tspan id="tspan308" y="0" x="0 5.609448 11.185704 13.973832 19.583281">80.00</tspan></text>
</g></g><g id="g312"><g clip-path="url(#clipPath318)" id="g314"><text id="text322" style="font-variant:normal;font-weight:normal;font-size:11.06400013px;font-family:Calibri;-inkscape-font-specification:Calibri;writing-mode:lr-tb;fill:#595959;fill-opacity:1;fill-rule:nonzero;stroke:none" transform="matrix(1,0,0,-1,85.128,427.08)"><tspan id="tspan320" y="0" x="0 5.609448 11.185704 16.795153 19.583281 25.148472">100.00</tspan></text>
</g></g><g id="g324"><g clip-path="url(#clipPath330)" id="g326"><text id="text334" style="font-variant:normal;font-weight:normal;font-size:11.03999996px;font-family:Calibri;-inkscape-font-specification:Calibri;writing-mode:lr-tb;fill:#595959;fill-opacity:1;fill-rule:nonzero;stroke:none" transform="matrix(1,0,0,-1,85.128,491.14)"><tspan id="tspan332" y="0" x="0 5.592 11.184 16.775999 19.552799 25.1448">120.00</tspan></text>
</g></g><g id="g336"><g clip-path="url(#clipPath342)" id="g338"><text id="text346" style="font-variant:normal;font-weight:normal;font-size:11.06400013px;font-family:Calibri;-inkscape-font-specification:Calibri;writing-mode:lr-tb;fill:#595959;fill-opacity:1;fill-rule:nonzero;stroke:none" transform="matrix(1,0,0,-1,125.86,92.376)"><tspan id="tspan344" y="0" x="0">0</tspan></text>
</g></g><g id="g348"><g clip-path="url(#clipPath354)" id="g350"><text id="text358" style="font-variant:normal;font-weight:normal;font-size:11.06400013px;font-family:Calibri;-inkscape-font-specification:Calibri;writing-mode:lr-tb;fill:#595959;fill-opacity:1;fill-rule:nonzero;stroke:none" transform="matrix(1,0,0,-1,214.97,92.376)"><tspan id="tspan356" y="0" x="0 5.5920482">10</tspan></text>
</g></g><g id="g360"><g clip-path="url(#clipPath366)" id="g362"><text id="text370" style="font-variant:normal;font-weight:normal;font-size:11.06400013px;font-family:Calibri;-inkscape-font-specification:Calibri;writing-mode:lr-tb;fill:#595959;fill-opacity:1;fill-rule:nonzero;stroke:none" transform="matrix(1,0,0,-1,306.89,92.376)"><tspan id="tspan368" y="0" x="0 5.5920482">20</tspan></text>
</g></g><g id="g372"><g clip-path="url(#clipPath378)" id="g374"><text id="text382" style="font-variant:normal;font-weight:normal;font-size:11.06400013px;font-family:Calibri;-inkscape-font-specification:Calibri;writing-mode:lr-tb;fill:#595959;fill-opacity:1;fill-rule:nonzero;stroke:none" transform="matrix(1,0,0,-1,398.78,92.376)"><tspan id="tspan380" y="0" x="0 5.5920482">30</tspan></text>
</g></g><g id="g384"><g clip-path="url(#clipPath390)" id="g386"><text id="text394" style="font-variant:normal;font-weight:normal;font-size:11.06400013px;font-family:Calibri;-inkscape-font-specification:Calibri;writing-mode:lr-tb;fill:#595959;fill-opacity:1;fill-rule:nonzero;stroke:none" transform="matrix(1,0,0,-1,490.7,92.376)"><tspan id="tspan392" y="0" x="0 5.5920482">40</tspan></text>
</g></g><g id="g396"><g clip-path="url(#clipPath402)" id="g398"><text id="text406" style="font-variant:normal;font-weight:normal;font-size:11.06400013px;font-family:Calibri;-inkscape-font-specification:Calibri;writing-mode:lr-tb;fill:#595959;fill-opacity:1;fill-rule:nonzero;stroke:none" transform="matrix(1,0,0,-1,582.6,92.376)"><tspan id="tspan404" y="0" x="0 5.5920482">50</tspan></text>
</g></g><g id="g408"><g clip-path="url(#clipPath414)" id="g410"><text id="text418" style="font-variant:normal;font-weight:normal;font-size:11.06400013px;font-family:Calibri;-inkscape-font-specification:Calibri;writing-mode:lr-tb;fill:#595959;fill-opacity:1;fill-rule:nonzero;stroke:none" transform="matrix(1,0,0,-1,674.52,92.376)"><tspan id="tspan416" y="0" x="0 5.5920482">60</tspan></text>
</g></g><g id="g420"><g clip-path="url(#clipPath426)" id="g422"><text id="text430" style="font-variant:normal;font-weight:normal;font-size:11.06400013px;font-family:Calibri;-inkscape-font-specification:Calibri;writing-mode:lr-tb;fill:#595959;fill-opacity:1;fill-rule:nonzero;stroke:none" transform="matrix(1,0,0,-1,766.42,92.376)"><tspan id="tspan428" y="0" x="0 5.5920482">70</tspan></text>
</g></g><g id="g432"><g clip-path="url(#clipPath438)" id="g434"><text id="text442" style="font-variant:normal;font-weight:normal;font-size:12.2159996px;font-family:Calibri;-inkscape-font-specification:Calibri;writing-mode:lr-tb;fill:#595959;fill-opacity:1;fill-rule:nonzero;stroke:none" transform="matrix(-4.4e-8,1,1,4.4e-8,78.096,265.82)"><tspan id="tspan440" y="0" x="0 5.9003282 8.7100077 18.470592 24.505297 27.583729 33.484055 39.372169 44.979313 51.062881 57.525143 60.322609 64.024055 68.751648">Time Taken (s)</tspan></text>
</g></g><g id="g444"><g clip-path="url(#clipPath450)" id="g446"><text id="text454" style="font-variant:normal;font-weight:normal;font-size:12.23999977px;font-family:Calibri;-inkscape-font-specification:Calibri;writing-mode:lr-tb;fill:#595959;fill-opacity:1;fill-rule:nonzero;stroke:none" transform="matrix(1,0,0,-1,386.9,74.016)"><tspan id="tspan452" y="0" x="0 3.08448 9.5594397 16.02216 22.48488 26.585279 29.27808 34.41888 40.5144 46.940399 52.705441 56.84256 63.305279 66.096001 69.804718 74.982239 81.408241 87.32016 91.591919 94.382637 99.560158 106.01064 112.4856 118.94832 123.04872">Input Length (char count)</tspan></text>
</g></g><g id="g456"><g clip-path="url(#clipPath462)" id="g458"><text id="text466" style="font-variant:normal;font-weight:normal;font-size:17.25600052px;font-family:Calibri;-inkscape-font-specification:Calibri;writing-mode:lr-tb;fill:#595959;fill-opacity:1;fill-rule:nonzero;stroke:none" transform="matrix(1,0,0,-1,362.69,514.25)"><tspan id="tspan464" y="0" x="0 8.4036722 12.372552 26.091072 34.684559 38.446369 47.592049 56.685959 70.473503 79.412109 83.380989 91.646614 99.118462 103.12186 108.90262">Time Complexity</tspan></text>
</g></g><path id="path468" style="fill:none;stroke:#d9d9d9;stroke-width:0.92106003;stroke-linecap:butt;stroke-linejoin:round;stroke-miterlimit:10;stroke-dasharray:none;stroke-opacity:1" d="m 51.081,55.423 h 739.94 v 484.4 H 51.081 Z"></path></g></svg>