<svg version="1" xmlns="http://www.w3.org/2000/svg" width="2133.333" height="2133.333" viewBox="0 0 1600.000000 1600.000000"><path d="M1304.9 425.7c-.1.5-.1 1.1 0 1.5 0 .4-1 .3-2.4-.2-1.6-.6-2.5-.6-2.5 0s-.5 1-1.1 1c-.5 0-.7-.5-.4-1 .3-.6.1-1-.4-1-.6 0-1.1.8-1.2 1.7 0 1.1-.3 1.3-.6.5-.2-.6-1-.9-1.6-.5-1.2.8-1.8.9-3.8 1.2-.5 0-.7.5-.4 1.1.4.6-.1.7-1.1.3-1.2-.4-1.5-.3-1 .5s.2 1-.8.6-1.6-.1-1.6.7c0 .7-.3 1-.6.6-1.2-1.1-9 6.5-22.4 21.8-5.7 6.6-11.6 13.2-13 14.7-1.4 1.5-3.4 3.8-4.5 5.1-1.1 1.3-4.7 5.5-8 9.2-3.3 3.7-6.7 7.6-7.6 8.7-1.8 2-14.7 16.2-20 21.9-1.9 2.1-7 7.6-11.4 12.4-4.4 4.8-11.6 12.6-16.1 17.4-4.4 4.7-9.8 10.6-12 13.1-2.1 2.4-6.1 6.7-8.9 9.6-2.7 2.8-8.7 8.9-13.1 13.5-8.2 8.4-32.1 31.7-38.5 37.5-6.5 5.8-23.6 19.9-30.8 25.4-4 3-7.8 6-8.4 6.5-1.8 1.6-11.9 8.9-13.8 10-2.2 1.3-14.8 8.7-17.4 10.2-3.1 1.7-20.4 10.3-20.8 10.3-.3 0-2.1.7-4.1 1.5-2 .8-3.7 1.5-3.8 1.4-.2-.1-2.2.8-4.5 2-2.4 1.2-4.3 1.9-4.3 1.5 0-.4-.7 0-1.7.7-.9.8-1.8 1.2-2 1.1-.2-.2-3.4.5-7.1 1.6-8.1 2.5-29.4 8-33.4 8.7-1.5.3-5.9 1.2-9.6 1.9-3.7.8-8.3 1.7-10.2 2-1.9.3-4.6.8-6 1.1-1.4.3-4.3.7-6.5 1-4.1.5-7.9 1-15 2.1-2.2.3-5.8.7-8 .9-2.2.2-6 .6-8.5.9-13.6 1.5-25.5 2-53.5 1.9-17 0-33-.3-35.5-.6-2.5-.4-8.3-.9-13-1.2-9-.6-14.9-1.2-19-2-1.4-.2-5.2-.7-8.5-1.1-3.3-.3-6.4-.9-6.9-1.1-.5-.3-2.5-.7-4.5-.8-3.7-.3-9.4-1.2-12.1-2-.8-.2-3.1-.7-5-1-1.9-.3-4.2-.8-5.1-1.1-1-.2-3-.7-4.5-.9-1.6-.2-5.8-1.2-9.4-2-3.6-.9-7.4-1.8-8.6-1.9-1.1-.2-2.5-.5-3-.8-.5-.4-2.5-.9-4.4-1.2-1.9-.3-6.2-1.2-9.5-2-3.3-.7-10.5-2.4-16-3.6-5.5-1.2-11.3-2.6-12.9-3.1-1.6-.5-4.1-.9-5.5-.9-1.5 0-3.1-.4-3.7-.9-.5-.5-2.5-1.2-4.4-1.4-1.9-.3-3.5-.6-3.5-.7 0-.2-6.2-1.5-12.7-2.5-1.8-.3-4.4-.8-5.8-1.2-1.4-.3-2.9-.7-3.5-.8-1.6-.4-8.8-1.7-11.2-2-1.2-.2-3.4-.6-5-.9-5.9-1.3-8-1.6-13.3-2.1-5-.5-7.5-.8-17.5-2-1.6-.2-3-.4-3-.4 0-.1-3.6-.4-8-.7-4.4-.3-10.7-.8-14-1.1-8.9-.8-52.6-.8-63 0-13.9 1.2-24.6 2.4-27.5 3.2-.8.2-3.3.6-5.5 1-2.2.3-4.7.7-5.5 1-.8.2-2.6.6-4 .9-1.4.3-3.5.7-4.7 1-1.3.4-3.1.8-4 1-1 .2-4.4 1.1-7.5 1.9-3.2.8-5.8 1.2-5.8.9 0-.4-.4-.2-.8.5-.4.6-2 1.3-3.7 1.6-1.6.3-5 1.2-7.5 2-2.5.9-5.6 1.8-7 2.1-2.2.4-17.7 5.6-22 7.3-.8.4-1.7.7-2 .8-.6.2-5.9 2.3-8 3.2-.8.3-1.9.7-2.5.9-2.5.6-26 11-35.5 15.7-5.8 2.8-10.8 5.1-11.2 4.9-.5-.1-.8.2-.8.6 0 .5-2.6 2.2-5.7 3.8-3.2 1.5-6 3.2-6.1 3.6-.2.4-1 .8-1.8.8s-1.4.5-1.4 1.1c0 .5-.5.7-1 .4-.5-.3-1-.1-1 .4 0 .6-.4 1.1-.8 1.1-1.6 0-21.1 13-24.4 16.2-1 1-1.8 1.5-1.8 1.2 0-.3-2.1 1.2-4.7 3.3-2.7 2.2-6.4 5-8.3 6.3-1.9 1.3-3.9 3-4.5 3.6-1.1 1.4-7.3 6.5-12.5 10.4-1.8 1.4-6.8 5.8-10.9 9.7-4.2 4-7.9 7.3-8.3 7.3-.5 0-.8.7-.8 1.5s-.3 1.4-.7 1.3c-.5-.2-2.3 1.2-4.2 3-1.9 1.7-3.2 3.2-2.9 3.2.2 0-2.4 3-6 6.7-3.5 3.6-7.1 7.8-8 9.2-.9 1.4-2.2 3-2.9 3.4-.7.4-1.3 1.5-1.3 2.3 0 .8-.4 1.3-.8 1-.4-.3-1.7 1.2-2.8 3.2-1 2-2.5 4.3-3.2 5.1-1.2 1.2-3.7 4.9-7.9 11.6-.7 1.1-1.8 3.2-2.5 4.7-.7 1.6-1.6 2.8-2 2.8-.4 0-.8.6-.8 1.4 0 .8-.3 1.6-.7 1.8-.9.3-5.1 8.9-4.9 9.9 0 .3-.7 1.3-1.7 2.3-.9 1-1.5 2.1-1.2 2.5.2.5-.4 1.6-1.5 2.6s-2 2.2-2 2.6c0 .4-.5 2-1.2 3.6-.6 1.5-1.1 3.1-1 3.5.1.5-.3.8-.9.8-.5 0-.8.4-.5.9.3.5 0 1.4-.8 2-.7.6-1.6 3-2 5.3-.4 2.3-1.4 4.7-2.4 5.5-.9.7-1.2 1.2-.6 1.1.7-.2 1.2.1 1.2.7 0 .5-.3.9-.7.8-.4-.1-.8.5-.8 1.3 0 .7.4 1.4.9 1.4.4 0 .8-.5.8-1.1 0-.5.5-.7 1.2-.3.6.4.8.3.5-.3-.3-.5 0-1 .8-1 1 0 1.2.4.5 1.2-.5.7-.6 1.6-.2 2 .4.5.2.6-.3.2-.6-.3-1.7-.2-2.4.2-.9.6-.4.8 1.3.8 1.5 0 2.6-.5 2.6-1.3s.5-1.4 1-1.4c.7 0 .7.6 0 2-.6 1.1-.8 2-.4 2 .3 0 0 .8-.7 1.7-1.2 1.4-1.2 1.6 0 .8 1.1-.6 1.3-.4.8.7-.6 1.6 1.5 1.9 2.9.5.4-.4 1.4-.1 2.2.6 1.3 1 1.4.9.8-.1-.5-.9-.3-1.3.5-1.1.8.1 2.8.1 4.4 0 2.4-.1 2.7-.3 1.5-1.2-1.2-.9-1-1 .8-.6 1.7.4 2.2.2 1.8-.8-.3-.8-.1-1.7.5-2 .5-.4.6-1.2.2-1.8-.5-.9-.3-.9.8 0 1.7 1.4 4.5.1 3.5-1.6-.5-.7-.1-.8 1-.4 1.2.4 1.5.3 1-.5-.4-.7-.2-1.2.4-1.2 1.5 0 4-2.5 4-4 0-.6.5-.8 1-.5.6.3 1 .1 1-.5s1.3-2.4 3-4c1.6-1.6 3-3.4 3-4 0-.5.5-1 1-1 .6 0 1.3-.7 1.7-1.5.3-.9 2-3 3.7-4.8 1.7-1.8 4.5-5.1 6.3-7.3 1.7-2.1 4.4-5.4 6-7.3 3.8-4.6 21.9-22.8 26.9-27.1 2.3-1.9 6.5-5.5 9.4-8 2.9-2.5 6.9-6 8.9-7.7 2-1.8 4.2-3.3 4.9-3.3.6 0 1.2-.5 1.2-1 0-.6.6-1 1.4-1 .8 0 1.6-.4 1.8-.9.3-1 3-3.1 14.3-10.8 3.9-2.6 7.2-5 7.5-5.3.5-.6 9.7-6.5 13.1-8.5 1-.6 5.3-3.1 9.6-5.6 8-4.8 24.6-13.3 31.8-16.4 2.2-.9 4.8-2.1 5.8-2.6.9-.5 5-2.2 9-3.8 3.9-1.5 8.1-3.2 9.2-3.6 1.1-.4 2.5-.9 3-1.1.6-.2 6.4-2.2 13-4.5 11.3-3.9 33.6-10.6 38-11.4 1.1-.2 2.9-.6 4-.8 5.5-1.4 16.3-3.7 19-4.1 1.7-.2 3-.5 3-.6 0-.1 1.4-.3 3-.5 1.7-.2 4.6-.7 6.5-1.1 3.8-.7 4.8-.8 16-1.9 12.7-1.3 42.7-.8 62 1 2.5.2 7.7.7 11.5 1 7.8.6 12.8 1.2 16.5 1.9 1.4.3 4.7.7 7.5 1.1 2.7.3 5.7.7 6.5.9.8.3 3.2.7 5.4 1.1 2.1.3 4.1.7 4.5.9.3.2 2.4.7 4.6 1 2.2.4 4.7.8 5.5 1.1.8.2 2.6.6 4 .9 1.4.3 3.9.8 5.5 1.1 1.7.3 5.5 1.3 8.5 2.1s6.4 1.6 7.5 1.8c1.7.3 11.1 2.6 17 4.2 1.1.3 2.7.7 3.5.8 2.1.3 7.2 1.6 9 2.3.8.3 2.4.7 3.5.9 1.8.2 6.5 1.4 19 4.6 2.2.5 5.1 1.2 6.5 1.4 1.4.3 3.6.9 5 1.4 2.1.7 8.5 2 10.5 2.1.2 0 1.9.5 3.7 1 4.1 1.3 6.7 1.9 9.3 2.3 1.1.2 4 .8 6.5 1.4 2.5.6 5.6 1.3 7 1.5 1.4.3 6.1 1.3 10.5 2.2 4.4.9 9.6 1.8 11.5 2 1.9.2 5.1.7 7 1 6.6 1.2 20.7 2.9 33 4 5.7.5 31 1.8 37.3 1.9 2.6 0 4.7.4 4.7.9 0 .4.5.5 1.1.1.7-.4 8.2-.8 16.8-1 16.1-.2 33.9-1.1 42.6-1.9 2.8-.3 7-.7 9.5-1 5.1-.4 12.8-1.3 18-2.1 8-1.1 9.7-1.3 13.5-1.8 6.1-.8 10.5-1.6 16.5-2.8 3-.7 6.6-1.3 8-1.4 1.4-.1 3.6-.5 5-.8 1.4-.3 3.6-.8 5-1.1 9.3-2 9.4-2 17-4 3.6-1 7.2-1.9 8-2 .8-.1 4.2-1 7.5-2 3.3-1.1 6.3-2 6.8-2.1.4-.1.9-.3 1.2-.4.3-.1.8-.3 1.3-.4.4-.1 2.3-.7 4.3-1.4s4.5-1.4 5.5-1.6c1-.3 3.3-1 4.9-1.7 1.7-.6 3.5-1.3 4-1.4 5.9-1.5 28.1-11.8 42-19.5 5-2.8 10-5.6 11.3-6.2 1.2-.6 2.2-1.5 2.2-2 0-.4.5-.8 1-.8 1.2 0 12.4-7.2 12.8-8.3.2-.4.8-.7 1.3-.7.6 0 1.5-.5 2.2-1 .7-.6 7.1-5.5 14.2-11 14.9-11.5 14.1-10.9 22-17.5 3.3-2.7 6.7-5.7 7.6-6.7.9-1 1.9-1.8 2.2-1.8 1.8 0 55.4-53 71.7-71 4.7-5.1 10.7-11.6 13.4-14.4 4.6-4.9 4.8-5 4.1-2.1-.4 1.6-.9 4.1-1 5.5-.5 4-1.7 12.3-2.1 14.5-.3 1.1-.7 4.2-1 7-.3 2.7-.7 5.7-.8 6.5-.2.8-.6 3.7-1 6.5-.4 2.7-1 6.1-1.2 7.5-.2 1.4-.7 5-1 8-.2 3-.7 6.6-.9 8-.7 4.2-1.3 9.2-2 16.5-.8 8-1.2 11.6-2 16.5-.3 1.9-.7 6.2-1 9.5-.6 5.9-1.1 11.2-2.1 21-.8 8.4-1.4 17.7-1.7 25.2-.1 4-.5 7.3-.8 7.3-.3 0-.5 1.7-.5 3.7.1 2.1-.1 5.2-.5 7-.4 1.8-.2 3.6.4 4.2.8.8.8 1.1 0 1.1-.6 0-1 1.4-.9 3.1.1 1.6-.2 3.3-.6 3.5-.5.3-.4 1.2.3 2 .9 1.1.9 1.4-.1 1.4-.9 0-.9.4-.2 1.3.7.8.7 1.8.2 2.7-.5.8-.4 2.2.2 3.3.8 1.5.7 1.8-.2 1.2-.8-.5-1.1-.3-.8.6.3.8.1 2.5-.4 3.8-.7 2-.6 2.2.9 1.7 1.6-.6 1.5-.5-.1 1.3-1.7 1.8-1.7 2 .1 3 1.7 1 1.7 1-.2 1.1-1.5 0-1.7.2-.6.9s1.1 1 0 1.5c-.8.3-.3.4 1.1.2 2.4-.5 2.4-.4.5 1-1.5 1.1-2 2.7-2.1 7.4 0 3.3.3 6 .8 6s.7-.4.4-.8c-.2-.4-.1-1.4.4-2.2.5-.9.5-1.9-.2-2.7-.7-.9-.6-1.4.6-1.9.9-.4 2-.4 2.3 0 .4.3-.1.6-1.1.6-.9 0-1.4.5-1.1 1 .4.6 1.2.7 1.8.3.7-.4.4.5-.5 1.9l-1.8 2.7 3-.4c1.7-.2 2.8 0 2.5.5-.3.5-1.3.6-2.3.3-1.5-.6-1.5-.5-.3 1 1.1 1.3 1.7 1.5 2.8.6.7-.7 1.6-.9 2-.6.3.4-.2.9-1.1 1.3-1.2.4-1.4 1-.6 1.8.7.9.5 1.9-.6 3.2-.8 1-1.2 1.3-.8.5.5-1 .3-1.2-.6-.6-.9.6-1.1.4-.5-.5.6-.9.4-1.1-.5-.5-.9.6-1.1.4-.5-.5.6-.9.4-1.1-.5-.5-.9.6-1.1.4-.5-.5.5-.9.4-1.1-.3-.6-1.6.9-1.5-.7 0-2.2.9-.9.9-1.2 0-1.2-.7 0-1.2.5-1.2 1.1 0 .5-.5.7-1.1.3-.8-.4-.8 0 0 1.5.7 1.1.9 2.1.5 2.1-.3 0 0 .7.7 1.6.8.9 1.4 2.3 1.4 3 0 .8.4 1.3.9 1.3 1.6-.1 2.5 2.5 1.3 4.1-1 1.3-1 1.3.4.3.9-.7 1.9-.9 2.4-.5.4.4.3-.3-.4-1.5-.6-1.3-.7-2.4-.2-2.8.5-.3 1.3.4 1.6 1.5.8 2.4 3.1 2.1 2.9-.4-.1-.9.3-1.5 1-1.3.6.3 1 1.1.8 1.8-.3 1.1-.1 1.2 1 .1 1.1-1.1 1-1.4-.2-2.2-.8-.5-1.1-1.2-.7-1.6.3-.4 1.3-.2 2 .4 1.4 1.2 2.7.6 2.7-1.2 0-.6-.5-.4-1 .4s-1 1.3-1.1 1c0-.3-.2-1.3-.4-2.3-.2-1.2.1-1.7 1-1.3 1 .4 1.1-.2.5-2.4-.4-1.6-.6-3.1-.3-3.3.2-.3-.1-1.5-.7-2.7-.9-1.7-.9-2.5.1-3.4.9-.8 1-.8.5.1-.8 1.5 1 5.3 2.5 5.3.6 0 .5-.9-.2-2.3-1.1-2-1.1-2.1.4-.9 1.3 1.1 1.5 1 1-.7-.3-1.2-.9-1.8-1.4-1.5-.6.3-.1-.9 1-2.7 1.1-1.8 1.8-3.6 1.5-4.1-.3-.4.2-.5 1-.2 1.1.4 1.3 0 .9-1.8-.4-1.3-1.1-2.7-1.7-3.1-.6-.5-.1-.6 1.1-.2 1.8.5 2.1.3 1.8-1.4-.2-1.2 0-2.1.4-2.1.5 0 1.1-.9 1.4-2 .3-1.2.1-1.8-.5-1.4-.6.4-.2-.5.7-2 1.6-2.4 1.4-3.1-.8-2.7-.5.1-.6-.3-.2-.9.3-.6 1.1-.7 1.7-.4.6.4.9-.3.7-1.7-.2-1.3.3-3.5 1.1-4.9.8-1.4 1.5-3.2 1.6-4 .6-4.5 1.7-9.6 2.2-10.5.7-1 1-2.5 1.5-6 .2-1.2.6-2.5.9-3 .3-.6.4-1.8.3-2.8-.2-.9.1-1.7.6-1.7s.9-.9.9-1.9c0-1.1.4-2.2.9-2.5.4-.3.7-1.7.6-3.1-.2-1.4.1-2.5.6-2.5.6 0 .9-.6.8-1.3-.2-1.2 1.6-8.9 2.8-11.7.4-.8.8-2 .9-2.5.1-.6.3-1.2.4-1.5.1-.3.4-1.8.6-3.3.3-1.5 1-4 1.6-5.5.6-1.5 1.3-3.5 1.4-4.4.2-.9 1.8-6.5 3.5-12.5 1.7-5.9 3.2-11.3 3.3-11.8.6-2.4 3-10.5 4.7-16.1 1.1-3.3 2.1-7 2.4-8.2.2-1.2.6-2.6.9-3 .3-.5.7-1.9 1-3.3.2-1.3 1.2-4.1 2-6.2.9-2 1.3-3.7 1-3.7-.4 0-.1-.7.6-1.5s1-1.5.6-1.5c-.3 0 .3-2.1 1.3-4.8 1-2.6 1.9-5 2-5.4.1-.4.3-1.3.6-2 .5-1.7 3.8-13.1 4-13.8.2-1.2 7.9-24.7 8.6-26.5 1.2-3.1 5.1-14.8 5.4-16.5.2-.8.4-1.5.5-1.5.1 0 .3-.9.5-2 .2-1 .9-2.8 1.4-4 .6-1.1 1.5-4 2.1-6.5.6-2.5 1.2-5 1.3-5.5.1-.6.5-1.5.8-2 .9-1.5 2.3-6.9 2-7.9-.1-.4.4-1.4 1-2.2.6-.8.8-1.4.3-1.4-.4 0-.3-.5.4-1.2s1.2-2 1.2-2.9c0-1 .5-3 1.2-4.6.6-1.5 1.2-3.3 1.4-3.8.5-2 7.5-21.1 8.3-23 .8-1.6 2-5 2.6-7.5.1-.3.7-1.7 1.3-3.1 1.5-3.6 3-9.6 3.7-14.4.3-2.2.8-4.6 1-5.3.2-.6-.1-1.2-.7-1.2-.7 0-.7-.4.1-1.4.8-1 .9-1.6.1-2.1-.7-.4-.7-1.2 0-2.6.7-1.3.7-1.9 0-1.9-.5 0-1-1.5-1-3.4 0-2.4-.7-3.9-2.1-4.9-1.5-1.1-1.7-1.6-.7-2.1.7-.3.3-.4-1-.2-1.9.4-2.1.2-1.1-1 .9-1.1.9-1.4 0-1.4-.7 0-1-.4-.7-.9.9-1.4-4.9-7.1-7.2-7.1-2 0-2.7-1-2.3-3.2 0-.4-.5-.5-1.3-.2-.7.3-2.1-.2-2.9-1.1-.9-.9-1.9-1.6-2.2-1.5-.3 0-.6 0-.7-.1-2.2-.6-3.8-.5-3.8.3 0 .6.8.7 1.8.3 1.3-.5 1.4-.4.5.6-1 1-1.6.9-2.9-.2-.9-.8-2.6-1.3-3.7-1.1-1.2.2-1.7-.1-1.3-.7.4-.6.5-1.1.2-1.1s-.7.3-.7.7zm14 4.9c1.4 1.2-1.9.1-3.5-1.2-1.8-1.4-1.8-1.4.6-.3 1.4.6 2.7 1.3 2.9 1.5zm10 6.1c.4.3-2.8-.2-4.7-.6-.2-.1 0-.6.3-1.1.5-.8 1.2-.7 2.3.2 1 .7 1.9 1.4 2.1 1.5zm1.6 2.2c.3.5.2 1.2-.3 1.5-.5.3-.9-.1-.9-.9 0-1.7.3-1.9 1.2-.6zm5.3 9.6c-.3.3-.9-.2-1.2-1.2-.6-1.4-.5-1.5.5-.6.7.7 1 1.5.7 1.8zm-113.4 334.1c.3.8.2 1.2-.4.9-.6-.3-1-1-1-1.6 0-1.4.7-1.1 1.4.7zm.6 3c0 .8-1.9 1.3-2.4.6-.3-.5.1-.9.9-.9s1.5.2 1.5.3zm-2.7 8.7c.3.8-.1 1.4-.8 1.4-.7 0-1.1-.6-.8-1.4.3-.7.6-1.3.8-1.3.2 0 .5.6.8 1.3zm10.7 1.7c0 .5-.2 1-.4 1-.3 0-.8-.5-1.1-1-.3-.6-.1-1 .4-1 .6 0 1.1.4 1.1 1zm6-.6c0 .3-.4.8-1 1.1-.5.3-1 .1-1-.4 0-.6.5-1.1 1-1.1.6 0 1 .2 1 .4zm-10.4 4.6c0 1.2-.4 1.6-.9 1.1s-.6-1.4-.3-2c1-1.5 1.2-1.4 1.2.9zm-2.9 1.2c-.3.8-.6.5-.6-.6-.1-1.1.2-1.7.5-1.3.3.3.4 1.2.1 1.9zm9 3.2c-.3.6 0 1.9.4 2.8.7 1.2.4 2-.8 2.7-1.3.7-1.4 1-.4 1.1.8 0 .3.9-1.2 2-1.7 1.3-2.4 2.7-2.1 3.8.4 1.2 0 1-1.3-.6-1-1.3-2.2-2-2.6-1.5-1.3 1.2-3.8 1.2-3.4 0 .2-.7-.3-2.1-1.2-3.2-1.5-1.9-1.4-1.9.9.1 2.7 2.2 6 2.1 6-.2 0-.8.5-1.4 1.1-1.4.5 0 .8.4.4.9-.3.5-.1 1.2.3 1.5.8.5.9-.9.3-4.9-.1-.6-.6-.3-1.1.5-.5.8-1 1-1 .4s.3-1.3.6-1.7c.9-.9 3.5.4 2.8 1.4-.3.5.2.9 1 .9 1.3 0 1.4-.4.4-2.5-.6-1.3-1.5-2.2-2.1-1.8-.6.3-.7.2-.4-.4.8-1.3 3.9-1.2 3.4.1zM205 827.4c0 .2-.7.7-1.6 1-.8.3-1.2.2-.9-.4.6-1 2.5-1.4 2.5-.6zm-37.6 58.4c.3.5-.1.9-.9.9s-1.2-.4-.9-.9c.3-.4.7-.8.9-.8.2 0 .6.4.9.8zm-1 3.7c-.4.8-1.1 1.5-1.6 1.5-.6 0-.5-.6.2-1.5.7-.8 1.4-1.5 1.6-1.5.2 0 .1.7-.2 1.5zm2.3.2c-.4.3.1 1.6 1 2.7 1.8 2.1 1.8 2.1-.4.2-2-1.6-2.3-3.6-.6-3.6.4 0 .3.3 0 .7zm3.8 8.5c.6 0 1.6.4 2.2 1 .9.7 1.5.6 1.9-.6.3-.9 1.1-1.6 1.7-1.6.5 0 .2.9-.8 2-1.4 1.5-2.1 1.7-3.2.9-1-.9-1.3-.8-1.3.2 0 .8-.6.6-1.6-.7-.8-1-1.3-1.3-.9-.7.3.7.3 1.8-.1 2.4-1.3 2.1-2.3-1.3-1.1-3.9.9-2 1.2-2.1 1.7-.7.3.9 1 1.7 1.5 1.7z"/><path d="M1227 814.1c0 .5.5.7 1 .4.6-.3 1-.8 1-1.1 0-.2-.4-.4-1-.4-.5 0-1 .5-1 1.1zM1441.1 763.3c-.8 1-.7 1.4.2 1.4.8 0 1.4-.6 1.4-1.4 0-.7-.1-1.3-.2-1.3-.2 0-.8.6-1.4 1.3z"/><path d="M1437.2 764.5c1.2 1.3-1.2 3.4-3 2.8-1.3-.4-1.3-.3.2.9 1.3 1 1.5 1.7.8 2.2-.7.4-1.2.2-1.2-.3 0-.6-1-1-2.2-1-1.8.1-1.9.2-.5.6.9.2 1.4.9 1.1 1.5-.4.7-.2.8.4.4.7-.4 1.2-.1 1.2.6 0 .9.3 1 .8.2.4-.6 1.5-1 2.5-.8 1.5.2 1.6 0 .5-1.4s-1-1.5.5-.9c1 .4 2.1.7 2.4.7.3 0-.1.8-.8 1.7-1.2 1.4-1.2 1.6 0 .8 1-.5 1.2-.4.7.4-.6.9-1.1.9-2.2 0s-2-.4-4.6 2.2c-2.8 3-3 3-1.5.6 1-1.5 1.3-2.7.7-2.7-.5 0-1.5.9-2.2 2-1.5 2.4-3 2.7-2.1.3.4-1 .2-1.4-.5-.9-.6.3-1.4.2-1.7-.4-.4-.6-.1-.9.7-.8.7.2 1.2-.3 1-1-.1-.8.2-1.1.8-.7.6.3.8 1.1.5 1.6-.4.5-.2.9.4.9 2 0 2.1-1.9.2-2.9-1.4-.8-2.2-.7-3.1.4-.7.8-1.6 1.3-2 1-.4-.3-1.4.3-2.1 1.3-1.3 1.5-1.2 1.6.4.3 1.8-1.4 2.2-.7 1.8 2.8-.2.8.2 1 1 .5s1-.3.5.5c-.5.7-1 1-1.3.7-.3-.3-1.4-.1-2.4.5-1.5.7-1.7.6-1.3-.6.3-.8 1-1.3 1.4-1 .4.3 1.1-.2 1.4-1 .4-1.2.2-1.3-1.3-.6-1 .6-2.2.7-2.6.3-.5-.4-.5-.2-.1.5.3.6.2 1.4-.4 1.8-.5.3-1 0-1.1-.7 0-.7-.5-.4-1.1.8-.5 1.2-2.7 3.2-4.8 4.5-2.1 1.3-3.7 2.6-3.6 2.9.2.3-.5 1.3-1.6 2.2-1 1-1.8 1.6-1.8 1.3 0-.6-5.4 4.2-8.8 7.7-1.4 1.6-3.2 2.8-3.9 2.8-.8 0-1.1.4-.8 1 .3.5.1 1-.5 1s-.8.4-.5 1c.3.5.1 1-.5 1-1.4 0-1.8.4-15.3 13.2-22.5 21.6-37.7 37.1-54.7 55.8-4.7 5.2-9.8 10.8-11.5 12.6-1.6 1.7-3.9 4.2-5 5.5-1.1 1.3-5.6 6.7-10.1 11.9-4.4 5.2-8.9 10.6-10 11.8-1 1.3-2.9 3.6-4.2 5-1.8 2-13.5 16.9-15.9 20.1-.8 1.1-1.6-1.3-1.9-6.1-.5-5.8-1.2-11.3-1.4-11.3-.1 0-.4-1.6-.6-3.5-.3-3.2-1.2-8.1-2.9-15.5-.4-1.7-.8-3.5-.9-4-1.4-6.1-1.9-8.2-2.4-9-.4-.6-.8-1.6-.9-2.3-.5-2-1-3.6-1.7-5.7-.5-1.1-1.2-3.4-1.8-5-.6-1.7-2.3-5.8-3.9-9.3-1.6-3.5-2.9-6.7-2.9-7.2 0-.6-.4-1-1-1-.5 0-1-.5-1-1 0-3.2-21-29.8-23.7-29.9-.6-.1-1.3-.5-1.5-.9-.2-.4-2.5-2.3-5.3-4.2-2.7-1.9-5.2-3.8-5.5-4.1-.7-.9-18.8-9.9-19.9-9.9-.5 0-2.2-.5-3.8-1.1-1.5-.6-2.9-1-3-1-.2 0-1.7-.5-3.5-1-4.2-1.3-7.7-2.1-10.8-2.4-1.4-.2-2.5-.4-2.5-.5 0-.3-3.7-.9-8.5-1.4-2.5-.3-6.5-.8-9-1.1-2.5-.4-7.2-.8-10.5-1-3.3-.2-6-.4-6-.5 0-.6-25.8-1.4-49-1.4-24.4-.1-35.9.4-45.7 1.9-1.8.3-8 1.2-13.8 2-5.8.8-11.8 1.6-13.5 1.9-4.8.8-24.7 3.7-28 4.1-3.1.4-6.1.9-16 2.6-3.3.6-7.5 1.3-9.4 1.5-1.9.3-3.7.6-4.1.9-.3.2-2.9.7-5.6 1.1-2.7.3-5.7 1-6.6 1.5-1 .6-1.8.8-1.8.6 0-.3-3.9.4-8.7 1.3-4.8 1-9.1 1.6-9.5 1.4-.5-.3-.8-.1-.8.4s-.6.9-1.2.9c-.7 0-4.7.8-8.8 1.7-4.1.9-8.4 1.8-9.5 2.1-1.1.2-3.5.8-5.2 1.4-1.8.5-3.3.8-3.3.6 0-.3-1.1 0-2.6.5-1.4.6-3.7 1.2-5.2 1.5-1.5.3-10.6 2.5-20.2 5s-18.2 4.8-19 5c-.8.2-1.5.4-1.5.5 0 .1-.7.3-1.5.5-2.9.7-5.5 1.4-11.5 3.1-3.3.9-6.7 1.8-7.5 1.9-.8.1-2.2.5-3 .8-2.5.9-8.6 2.7-11.1 3.3-2.7.6-2.9.6-8.9 2.3-2.5.8-4.9 1.4-5.5 1.6-.5.1-1.7.5-2.5.8-1.2.4-20.7 5.9-25.5 7.1-.5.2-1.7.6-2.5.9-.8.3-2.8.9-4.5 1.3-4.5 1.1-4.2 1-15.5 4.4-5.8 1.7-11.4 3.3-12.5 3.5-2.1.5-7.7 2.1-20.8 6.1-4.2 1.3-9.1 2.6-10.9 2.9-1.7.3-3.6.9-4.2 1.3-.6.3-1.5.7-2.1.9-.5.1-1.9.4-3 .6-1.1.3-13.2 3.7-27 7.7-13.7 4-25.4 7.3-26 7.5-.5.1-1.7.5-2.5.8-1.7.7-22.7 6.8-25 7.2-.8.2-1.5.4-1.5.5 0 .1-.8.3-1.7.5-1 .2-4.6 1.2-8 2.3-3.5 1.1-7.6 2.3-9.3 2.7-3.4 1-3.5 1-5.5 1.8-1.9.7-19.1 5.9-20.5 6.1-.5.1-1.4.4-2 .7-1 .6-6.8 2.2-7.3 2-.1-.1-1.6.6-3.2 1.4-1.7.9-3 1.3-3 1.1 0-.3-3.1.6-7 2-3.8 1.3-7.8 2.5-8.7 2.7-1 .1-2.2.5-2.8.9-.5.3-2.6.9-4.5 1.3s-3.9 1-4.5 1.4c-.5.3-1.2.6-1.5.6-.3.1-6.6 2.1-14 4.5s-13.7 4.5-14 4.5c-.3.1-1.2.4-2 .8-2.6 1-12.4 4.1-13.7 4.3-.7.1-6.4 1.8-12.5 3.8-6.2 2-11.6 3.6-12 3.6-.4.1-2.3.7-4.3 1.6-1.9.8-3.6 1.4-3.7 1.3-.2 0-1 .2-1.8.5-9 2.9-12.7 4-13.5 4.2-.5.1-3.3.9-6.1 1.9-2.8.9-5.7 1.8-6.5 1.9-.8.2-2.1.5-2.9.9-2 .7-7.4 2.3-31 9.2-10.7 3.1-22.6 6.6-26.5 7.8-3.8 1.1-7.4 2.2-8 2.3-.8.1-10.7 2.8-30 8-1.6.4-3.7.9-4.5 1-.8.2-3.3.8-5.5 1.4-2.2.6-7.6 2-12 3.1s-8.9 2.2-10 2.5c-1.1.3-3.1.7-4.5 1-1.4.2-4.7.9-7.5 1.4-12.2 2.3-26.5 3.3-26.5 1.7 0-.4-.4-.6-.9-.3-1.6 1-9.1-9.7-7.7-11.1.2-.3 0-1.7-.6-3.2-1-2.5-1.2-17.8-.3-27.1.2-2.5.7-8.1 1-12.5.3-4.4.8-9.8 1.1-12 .4-2.2.7-5.6.9-7.5.1-1.9.6-4.3 1-5.3.4-.9.4-2.9.1-4.3-.5-1.9-.4-2.4.6-1.8.8.5.8.1-.2-1.1-.9-1.1-1-1.6-.3-1.1.9.5 1.3 0 1.2-1.6 0-1.3.1-3.7.3-5.5.2-1.7.2-3.1-.1-3.1-1.9.2-2.2-.4-1.1-1.7 1-1.2.8-1.4-.8-1-1.3.2-2.3-.4-3-1.9-1-2.3-4.3-2.9-5.9-1.1-.5.4-.3.5.4.1.6-.3 1.5-.1 1.9.5.5.8.8.8 1.4 0 .4-.7 1-.3 1.7 1.2s.8 2.9.2 3.8c-.8 1.2-1 1.2-.8-.1.3-3-.1-3.8-1.8-3.5-1 .1-2.6-.5-3.7-1.4-1.8-1.5-1.8-1.5-1.2.9.6 2.1.5 2.2-.4.7-1.2-1.8-.5-4.1 1-3.2.4.3 1-.2 1.4-1 .3-.8 0-1.7-.6-2.1-.6-.4-.8-.3-.5.3.4.6 0 1.4-.9 1.7-2 .8-2.4.8-2.3-.2.4-2.2-.4-2.3-2.6-.2-1.4 1.3-2.5 2-2.5 1.5 0-.4-.9 0-2 1s-1.7 2.2-1.4 2.6c.3.5 0 .9-.6.9s-.8.4-.5 1c.3.5 0 1-.7 1-2.1.1-4.9 6.5-3.5 7.9.9.9.8 1.1-.3.6-1.1-.4-2.1.8-3.7 4.2-2.1 4.7-3.5 8.3-3.7 9.3-.1.3-.4.9-.8 1.5-.3.5-1.1 3-1.7 5.5-.7 2.5-1.6 5.4-2.1 6.5-1.2 2.6-5.6 19.8-6.4 24.9-.4 2.1-.9 4.3-1.2 4.8-1.9 3.1-2.4 29.1-.7 36.8.8 3.6 1.5 7 1.7 7.7.1.6 1.9 4.5 4 8.6 9.5 18.7 23.7 28.9 45.2 32.3 2 .3 4.6.8 5.8 1 3.1.6 14.5.6 18.6 0 1.9-.2 5.6-.7 8.1-1.1 2.5-.3 5.7-.8 7-1 1.3-.2 4-.6 5.9-.9 1.9-.3 4.9-.8 6.5-1.1 1.7-.3 4.4-.7 6-1 1.7-.3 4.1-.8 5.5-1.1 1.4-.3 3.6-.7 5-.9 1.4-.2 2.5-.4 2.5-.5 0-.1 1.1-.3 2.5-.6 2.7-.5 12.9-2.6 14.5-3 .6-.2 2.1-.5 3.5-.8 1.4-.3 7.9-1.9 14.5-3.6 13.7-3.6 14.7-3.8 17.5-4.4 1.1-.3 4.8-1.2 8.3-2.2 3.4-.9 7-1.7 8-1.7.9-.1 1.7-.4 1.7-.7 0-.4.6-.7 1.3-.7 1.5-.1 23.4-5.8 43.2-11.4 8.3-2.3 16.1-4.4 17.5-4.7 1.4-.2 3-.8 3.5-1.2.9-.7 6.4-2.2 9-2.6.6 0 1.9-.4 3-.8 5-1.9 12.6-4.2 17-5.2 2.1-.4 13.1-3.6 14.5-4.1.8-.3 2-.7 2.5-.8.6 0 1.7-.4 2.5-.8.8-.3 6.2-2 12-3.6 16.3-4.6 23.9-6.9 24.8-7.5.5-.3 1.9-.7 3.3-1 1.3-.2 5.6-1.4 9.4-2.6 3.9-1.1 10.8-3.2 15.5-4.6 4.7-1.4 9.6-3 11-3.5 1.4-.5 3.4-1.1 4.5-1.4 2-.4 17.1-4.8 29.7-8.6 3.7-1.1 7-2.1 7.2-2.1.3 0 4.3-1.1 8.8-2.4 4.6-1.4 9-2.6 9.8-2.8 3.2-.8 17.6-4.9 19-5.4.8-.3 2.4-.7 3.5-.9 2.8-.6 3.8-.9 5.5-1.6 1.5-.6 24.6-6.8 26.5-7.1.6-.1 1.5-.4 2-.8.9-.5 5.3-1.7 9.1-2.4.6-.1 3.8-1 7-2 5.2-1.5 6.9-2 10.9-2.8.6-.1 1.5-.5 2.1-.8.6-.4 2.1-.9 3.5-1.2 1.3-.3 6.7-1.7 11.9-3.2 11.1-3.1 24.1-6.5 25.5-6.8.6-.1 3.7-1 7-2s6.8-2 7.8-2.2c2.6-.6 4.2-1 17.7-4.9 6.9-2 13.3-3.7 14.3-3.8.9-.1 1.7-.5 1.7-.9s1.3-.8 2.8-.8c1.6 0 3.2-.3 3.6-.7.3-.4 1.2-.8 1.9-.9.7-.1 4.8-1.2 9.2-2.4 4.4-1.2 8.9-2.3 10-2.5 1.1-.2 2-.4 2-.5 0-.1.7-.3 1.5-.5s4.2-1.1 7.5-2c3.3-.9 7-1.9 8.2-2.1 1.2-.2 3.4-.9 4.8-1.4 1.4-.5 2.5-.7 2.5-.5 0 .3 1.7-.1 3.8-.9 3.5-1.4 7.9-2.6 11.2-3.1.8-.2 3-.8 4.9-1.4 1.9-.6 3.7-.9 3.9-.6.3.3 1 0 1.7-.5.6-.5 2.9-1.2 5-1.6 2.1-.3 4.9-1 6.3-1.5 1.3-.5 2.7-.7 3.2-.4.5.3 1.1.1 1.4-.4.3-.4 2.5-1.2 4.8-1.6 6-1.1 6.5-1.2 14.3-2.9 3.9-.9 8.1-1.8 9.5-2.1 1.4-.3 3.6-.7 5-1 1.4-.3 4.8-1 7.5-1.5 2.8-.5 6.1-1.2 7.5-1.5 4.3-.9 13.4-2.5 17-2.9 1.9-.3 3.5-.5 3.5-.6 0-.1 1.1-.3 2.5-.5 5.6-.7 9-1.4 9.7-1.8.4-.3 3.7-.8 7.2-1.1 3.6-.4 6.7-.8 7-1 .3-.2 2.9-.7 5.6-1 5.1-.7 8.6-1.2 14-2.1 3.4-.6 11.8-1.7 15.5-2.1 1.4-.1 2.5-.3 2.5-.4 0-.3 13.8-1.9 23.8-2.7 12.2-1 33.9-.6 61.2 1.2 9.1.5 20.3 1.7 27.5 2.9 9.7 1.7 15.9 3.5 20.8 6 8.1 4.3 17.4 15.7 20.8 25.6 1.1 3 2.1 5.7 2.4 6 .3.3.7 1.2.9 2 .1.8 1 4 1.8 7s1.6 6.8 1.8 8.4l.9 4.5c.3.9.8 4.3 1.2 7.6.4 3.3.9 7.3 1.1 9 1.8 13.1-.2 39.8-5.3 69.5-.2 1.4-.6 4.9-1 7.8-.3 2.9-.7 6.2-1 7.3-.2 1-.6 2.7-.8 3.6-.2 1-.7 4.3-1.1 7.3-.9 7.3-1.4 11-2 14-.3 1.4-.7 4.1-1 6-.3 1.9-.7 4.6-1 6-.9 4.8-1.8 10.5-1.8 12.7-.1 1.3-.3 2.3-.7 2.3-.3 0-.6 1.2-.6 2.7-.1 1.6-.5 4.4-.9 6.3-1.4 6.2-1.3 19.3.2 22.3.8 1.5 1.1 3.2.8 3.7-.9 1.4.8 1.2 2.5-.3.8-.6.7-.3-.3.9-1.6 1.9-1.5 2.1.3 3.7 1.1.9 2.8 1.7 3.8 1.8 1.4 0 1.4.2-.3.9s-1.7.9-.3.9c1 .1 1.7.4 1.6.8-.2.5.5 1.9 1.5 3.3.9 1.3 1.7 2 1.7 1.4 0-.5-.6-1.6-1.2-2.3-1.1-1.1-.9-1.1.9 0 1.2.7 1.9 1.9 1.5 2.7-.3 1-.1 1.3.5.9s1.4-.1 1.7.5c.3.7.3.3.1-.9-.3-1.2-.2-2.4.3-2.7.6-.3 1 0 .9.7-.1 3.2.4 4.5 2.1 5.2 1.4.5 1.5.4.5-.6-.7-.7-1.3-1.7-1.3-2.3 0-.5.8 0 1.8 1.1 1.7 2 7.9 4.2 6.8 2.4-.4-.5-.2-1.3.4-1.6.6-.4.9-.1.8.5-.2.6.7 1.9 2 2.7 1.3.9 2.2 1.2 2 .7-.2-.5 0-.9.3-.9.4 0 1.6-.8 2.7-1.8 1.9-1.8 2-1.8 3.4.2 1.5 2.1 2.9 1.9 2.4-.2-.2-.7-.1-.9.1-.5.3.5 1.4.8 2.6.8 1.8 0 2-.2.7-1.1-1.2-.9-1.1-1 .8-.6 1.6.4 2.2.1 2.2-1.1 0-1.3.2-1.4.9-.4.7 1.1.9 1.1 1.4-.2.4-.9 1-1.6 1.4-1.5 2 .3 2.7-.2 1.3-1.2-1.2-.8-1.1-.9.5-.7 2 .4 5.5-2.9 5.5-5.2 0-.6.4-.9.9-.6.7.4 9.1-15.2 9.1-17 0-.3.9-2.4 1.9-4.7 1-2.3 3-6.9 4.4-10.3 3.2-7.4 9.8-21.5 18.8-39.9 7.7-15.6 9.9-19.7 18.2-33.7 3.1-5.3 5.7-10.2 5.7-10.7 0-.6.4-1.1.8-1.1s2.1-2.6 3.7-5.8c1.6-3.1 3.1-5.9 3.4-6.2.7-.6 2.3-3.4 5.4-9.3 1.2-2.3 2.7-4.8 3.4-5.5.7-.7 1.3-1.7 1.3-2.2 0-1.2 15-27.2 16.7-28.8.7-.7 1.1-1.8.8-2.3-.4-.5-.1-.9.4-.9.6 0 1.1-.5 1.1-1 0-.6 2.4-4.7 5.3-9.3 2.9-4.5 6.1-9.9 7.2-12 1.1-2 2.3-3.7 2.7-3.7.5 0 .8-.5.8-1.1 0-.5 3.5-6.3 7.8-12.7 4.2-6.4 7.9-12.1 8.1-12.7.2-.5.8-1.4 1.3-2 .5-.5 5-7.1 10.1-14.5 14.2-21 18.9-27.7 22.9-33.2 2.1-2.8 3.5-5.5 3.2-5.9-.3-.5.3-.6 1.3-.2 1 .3 1.5.3 1.1-.1-.3-.4 0-1.5.7-2.4.8-1 2.8-3.5 4.4-5.7 1.7-2.2 3.5-4.6 4.1-5.3.6-.6.8-1.2.3-1.2-.4 0 .2-.6 1.2-1.4 1.1-.8 1.6-2 1.2-2.9-.4-1.2-.2-1.4 1-1 1.2.5 1.5.2 1-1-.4-1.2-.2-1.4 1-1 1.1.4 1.4.2.9-.5-.4-.7-.2-1.2.4-1.2.6 0 .9-.3.7-.8-.3-.4.1-1.3.9-2s1.4-1 1.4-.6.9-.5 2.1-2c1.1-1.5 1.8-3.3 1.6-4.1-.4-.9 0-1.2 1.4-1 1.8.4 1.9.2.7-1.2-.7-.9-.8-1.4-.2-1 1 .6 5.2-2.9 5.3-4.5.1-.5 1.1-2 2.4-3.4 1.2-1.4 2.2-3.2 2.2-3.9 0-.8 1.1-2.4 2.5-3.6 1.7-1.5 1.9-2 .8-1.6-1 .4-1.8.2-1.8-.3 0-.6.5-1 1.2-1 .6 0 .8-.3.5-.7-.4-.3-.2-1.2.4-2 .9-1 .8-1.3 0-1.3-.7 0-.9-.5-.6-1 .4-.6 1.1-.7 1.7-.4.6.4.8.2.4-.4-.3-.5-.3-1.2.1-1.5.5-.2.2-.2-.4-.1-1.5.4-1.7-1.2-.3-1.9.6-.3.5-.4-.2-.3-.7.2-1.3 1-1.3 1.9 0 .9-.6 2.2-1.3 2.9-1.1 1.1-1.2.8-.8-1.7.3-1.6 1.3-3.6 2.3-4.2.9-.7 1.2-1.3.6-1.3-.7 0-1.5.4-1.8 1-.3.5-1.4 1-2.3 1-1.5-.1-1.5-.2.2-1.5 1.1-.8 1.5-1.5.9-1.5-.7 0-1.5.4-1.8 1-.3.5-1.1 1-1.7 1-.7 0-.6-.5.1-1.4.9-1.1.9-1.6-.1-2.2-.7-.4-1-.4-.6.1zm5.2 10.8c.3-.4.6-.1.6.5 0 .7-.4 1.2-.9 1.2-.4 0-.7 1-.7 2.2.3 3.1-1.2 4.8-3.2 4.1-1.5-.6-1.5-.5 0 1.4 1.7 1.9 1.7 2-1 4.5-1.5 1.4-3.3 2.3-4.1 2-.8-.2-1.1 0-.7.6.3.6.2 1.3-.3 1.6-.5.4-.8-.2-.7-1.1.2-1 .9-1.8 1.7-1.8.8 0 2-.4 2.7-.9 1.1-.6 1.1-1.1 0-2.4-1.1-1.5-1.1-1.5.3-.5.9.7 1.9 1 2.2.7.7-.8-1.6-3.3-2.5-2.8-.4.2-1 0-1.3-.6-.4-.6-.3-.9.2-.8 1.2.4 5.4-2.8 4.6-3.5-.3-.4 0-.7.8-.7 1.2 0 1.1-.2-.1-1-1.1-.7-1.8-.4-2.5 1.1-1 1.7-1.3 1.8-3 .4-1.8-1.4-1.8-1.4-.1-.9 1.1.4 2.2.1 2.7-.7 1.3-2.1 1.1-3.5-.3-2.1-.7.7-1.7 1.2-2.2 1.2-.6 0-.3-.7.8-1.5 1.2-.9 2.5-1.1 4.1-.5 1.3.5 2.6.6 2.9.3zm-20.8 6.4c-.6.6-3.6-.9-3.6-1.8 0-.5.9-.4 2 .3 1 .7 1.8 1.4 1.6 1.5zm10.9-1.7c.3.5.1 1-.4 1-.6 0-1.1-.5-1.1-1 0-.6.2-1 .4-1 .3 0 .8.4 1.1 1zm-15.4 4.3c-1 .9-1.1.8-.5-.6.3-1 .9-1.5 1.2-1.2.3.3 0 1.1-.7 1.8zm-3 1c-1 .9-1.1.8-.5-.6.3-1 .9-1.5 1.2-1.2.3.3 0 1.1-.7 1.8zm14 4c-1 .9-1.1.8-.5-.6.3-1 .9-1.5 1.2-1.2.3.3 0 1.1-.7 1.8zm6.3-1.2c.3.3-.4.5-1.4.6-1.1.1-2-.2-2-.7 0-.8 2.5-.8 3.4.1zm-23.7 1.4c0 .8-.4 1.2-.9.9-.5-.3-.6-1-.3-1.5.9-1.3 1.2-1.1 1.2.6zm24.3 3.9c0 .2-.8 1-1.7 1.7-1.6 1.3-1.7 1.2-.4-.4 1.3-1.6 2.1-2.1 2.1-1.3zM221.6 901.7c-.2.9-1.1 1.7-2 1.9-1.7.2-1.7.2 0-1.7 2.1-2.3 2.3-2.3 2-.2zm-5.4 3c-.6.3-.9 1-.6 1.5.4.7.2.8-.5.4-.9-.6-.9-1.1 0-2.2.6-.8 1.5-1.2 1.8-.8.3.4 0 .9-.7 1.1zm6.1 1c.3.5-.8.8-2.3.8-1.5 0-2.6-.3-2.3-.8.2-.4 1.3-.7 2.3-.7 1 0 2.1.3 2.3.7zm7.2 2.3c.3.6-.1.7-.9.4-1.8-.7-2.1-1.4-.7-1.4.6 0 1.3.4 1.6 1zm5.9 1.9c.3.5 0 1.1-.7 1.4-.8.3-1.4-.1-1.4-.9 0-1.6 1.3-1.9 2.1-.5zm1.6 3.7c0 .8-1.9 1.3-2.4.6-.3-.5.1-.9.9-.9s1.5.2 1.5.3zm973.7 218.9c0 .8-.4 1.5-.9 1.5-1 0-1.1-1.4-.1-2.3.9-1 1-.9 1 .8zM1447 767.9c0 .6.4 1.2.8 1.5.5.3.9-.1.9-.9s-.4-1.5-.9-1.5c-.4 0-.8.4-.8.9zM1446.5 776c.3.5.8 1 1.1 1 .2 0 .4-.5.4-1 0-.6-.5-1-1.1-1-.5 0-.7.4-.4 1z"/><path d="M1239.6 794.7c-.8 2.4-.7 3.3.1 3 .7-.2 1.5-4.7.8-4.7-.2 0-.6.8-.9 1.7zM1235 805.4c0 .2.7.9 1.5 1.6 1.3 1.1 1.4 1 .9-.4-.5-1.4-2.4-2.3-2.4-1.2zM1221 806.7c0 1.3 2.9 3.8 3.5 3.1.3-.3-.4-1.3-1.5-2.3-1.1-1-2-1.3-2-.8zM1217.3 813.5c0 .8.4 1.5.9 1.5.4 0 .8-.4.8-.9 0-.6-.4-1.2-.8-1.5-.5-.3-.9.1-.9.9zM1219.3 817.6c.4.4.2 1.2-.3 1.9-.7.8-.5 1.2.5 1.2.8 0 1.2-.4.9-.8-.2-.4.1-.9.8-1.1.7-.3.4-.7-.7-1.2-1.1-.4-1.6-.4-1.2 0zM1223.3 823.5c0 .8.4 1.2.9.9.5-.3.6-1 .3-1.5-.9-1.3-1.2-1.1-1.2.6zM1225.5 826c-.3.5-.1 1 .4 1 .6 0 1.1-.5 1.1-1 0-.6-.2-1-.4-1-.3 0-.8.4-1.1 1zM183.5 897c-.3.5-.1 1 .4 1 .6 0 1.1-.5 1.1-1 0-.6-.2-1-.4-1-.3 0-.8.4-1.1 1zM1215.5 1133.1c-1 1.5.3 2.5 1.6 1.2.7-.7.7-1.3.1-1.7-.6-.3-1.4-.1-1.7.5z"/></svg>