<?xml version="1.0" encoding="UTF-8" standalone="no"?>
<!-- Created with Inkscape (http://www.inkscape.org/) -->

<svg
   xmlns:dc="http://purl.org/dc/elements/1.1/"
   xmlns:cc="http://creativecommons.org/ns#"
   xmlns:rdf="http://www.w3.org/1999/02/22-rdf-syntax-ns#"
   xmlns:svg="http://www.w3.org/2000/svg"
   xmlns="http://www.w3.org/2000/svg"
   xmlns:sodipodi="http://sodipodi.sourceforge.net/DTD/sodipodi-0.dtd"
   xmlns:inkscape="http://www.inkscape.org/namespaces/inkscape"
   width="13.230003mm"
   height="5.5579505mm"
   viewBox="0 0 13.230003 5.5579502"
   version="1.1"
   id="svg7604"
   inkscape:version="0.92.4 5da689c313, 2019-01-14"
   sodipodi:docname="pz-222.svg">
  <defs
     id="defs7598" />
  <sodipodi:namedview
     id="base"
     pagecolor="#ffffff"
     bordercolor="#666666"
     borderopacity="1.0"
     inkscape:pageopacity="0.0"
     inkscape:pageshadow="2"
     inkscape:zoom="9.9978742"
     inkscape:cx="30.34035"
     inkscape:cy="13.480959"
     inkscape:document-units="mm"
     inkscape:current-layer="layer1"
     showgrid="false"
     inkscape:window-width="1505"
     inkscape:window-height="1010"
     inkscape:window-x="391"
     inkscape:window-y="14"
     inkscape:window-maximized="0" />
  <metadata
     id="metadata7601">
    <rdf:RDF>
      <cc:Work
         rdf:about="">
        <dc:format>image/svg+xml</dc:format>
        <dc:type
           rdf:resource="http://purl.org/dc/dcmitype/StillImage" />
        <dc:title></dc:title>
      </cc:Work>
    </rdf:RDF>
  </metadata>
  <g
     inkscape:label="Layer 1"
     inkscape:groupmode="layer"
     id="layer1"
     transform="translate(-96.598876,-75.084101)">
    <path
       style="fill:#161616;fill-opacity:1;stroke:none;stroke-width:0.03109151"
       d="m 102.06539,80.614258 c -0.80889,-0.105356 -1.39756,-0.504568 -1.33362,-0.904487 0.0578,-0.361344 0.31001,-0.61186 0.81124,-0.805694 0.20339,-0.07858 0.23362,-0.0759 0.13959,0.0125 -0.16751,0.158235 -0.48129,0.550463 -0.55544,0.694367 -0.087,0.168935 -0.011,0.275267 0.29688,0.415258 0.34349,0.156259 0.73643,0.216388 1.41312,0.216388 0.62033,0 1.49775,-0.07858 1.9549,-0.175186 0.29685,-0.06268 1.88528,-0.45487 2.25413,-0.556484 0.29139,-0.08035 0.81037,-0.185236 1.61677,-0.327054 0.0855,-0.01425 0.19051,-0.03573 0.23326,-0.04608 0.32182,-0.07768 -0.81577,0.473744 -1.35248,0.65563 -0.23151,0.0784 -0.95738,0.272929 -1.28585,0.344488 -0.10876,0.02375 -0.20851,0.04983 -0.22201,0.05823 -0.0125,0.009 -0.11326,0.03483 -0.22202,0.05893 -0.10875,0.024 -0.35619,0.08 -0.54998,0.124108 -0.506,0.115357 -1.044,0.197087 -1.546,0.234889 -0.4963,0.03733 -1.36491,0.03733 -1.65226,-5.3e-5 z m 4.1258,-1.198327 c -0.61037,-0.126258 -0.88726,-0.194512 -0.86488,-0.213413 0.005,-0.0053 0.18476,-0.016 0.3985,-0.02715 0.21376,-0.01075 0.5307,-0.03358 0.70429,-0.0516 0.3355,-0.03483 0.54186,-0.01075 0.62546,0.07268 0.0663,0.06625 0.025,0.201988 -0.0735,0.239265 -0.10901,0.04143 -0.54651,0.03053 -0.78995,-0.01975 z m -9.591786,-0.261176 c -0.0098,-0.016 0.118107,-0.129108 0.284244,-0.251875 0.16611,-0.122683 0.456961,-0.348879 0.646302,-0.502621 0.435681,-0.353791 0.814944,-0.656612 1.277003,-1.019637 0.136808,-0.107506 0.255728,-0.204062 0.264278,-0.214613 0.04035,-0.04983 0.648307,-0.517479 1.010469,-0.777282 0.22232,-0.15946 0.49514,-0.362324 0.60629,-0.450795 0.18892,-0.150359 0.4041,-0.275786 0.42954,-0.250337 0.0354,0.03535 -1.06925,1.142251 -1.490023,1.49295 -0.164135,0.136808 -0.365729,0.304681 -0.447994,0.373098 -0.841151,0.699437 -1.349535,1.044513 -2.067048,1.403 -0.405372,0.202537 -0.490107,0.235264 -0.513061,0.198112 z m 0.948345,-0.02768 c 0.04275,-0.016 0.238614,-0.06555 0.435279,-0.111082 0.196661,-0.04555 0.700337,-0.166985 1.119292,-0.269553 0.418961,-0.102682 0.852685,-0.208913 0.96384,-0.23614 0.11113,-0.02715 0.40496,-0.0857 0.65293,-0.130008 l 0.45082,-0.08053 0.0187,-0.155535 c 0.0697,-0.579538 0.0701,-0.554359 -0.01,-0.532642 -0.14041,0.03858 -0.67031,0.07893 -1.222365,0.09303 -0.604899,0.016 -0.611612,0.0053 -0.07773,-0.121257 0.111157,-0.02625 0.363665,-0.102331 0.561135,-0.16911 0.38548,-0.130183 0.95953,-0.280465 1.07098,-0.280465 0.12543,0 0.18471,0.108232 0.19746,0.36056 0.0155,0.308643 -0.008,0.41517 -0.13706,0.606199 -0.0596,0.08876 -0.10408,0.165735 -0.0987,0.171085 0.005,0.0053 0.10021,-0.0035 0.21069,-0.0185 0.11051,-0.016 0.45975,-0.0566 0.77611,-0.09126 0.31635,-0.03465 0.62766,-0.07053 0.69179,-0.07945 0.20164,-0.0284 0.12679,0.03358 -0.1243,0.103231 -0.13251,0.0368 -0.40885,0.117157 -0.61405,0.178911 -1.17816,0.354291 -1.67797,0.462048 -2.5806,0.556359 -0.583208,0.0609 -1.243818,0.131983 -1.585671,0.170535 -0.44806,0.05053 -0.788603,0.06785 -0.69956,0.03573 z m 11.132511,-0.571674 c 0.0975,-0.07643 0.30697,-0.392114 0.38822,-0.585431 0.046,-0.109282 0.11726,-0.265106 0.15826,-0.346323 0.084,-0.165736 0.0695,-0.177861 -0.14075,-0.117508 -0.058,0.016 -0.37953,0.05215 -0.7149,0.07893 -0.33542,0.02678 -0.77072,0.06198 -0.96736,0.07823 -0.36637,0.03018 -2.51018,0.04285 -2.48212,0.01425 0.008,-0.009 0.35019,-0.06448 0.75917,-0.124108 0.40897,-0.05965 0.8485,-0.129483 0.97673,-0.155009 0.12826,-0.02553 0.35913,-0.0609 0.51303,-0.07858 1.46754,-0.168035 1.88462,-0.225289 2.16536,-0.297 0.0965,-0.02475 0.21076,-0.04483 0.25372,-0.04483 0.102,0 0.23926,0.16126 0.23926,0.281052 0,0.113032 -0.095,0.356327 -0.20101,0.514659 -0.0655,0.09803 -0.48821,0.502353 -0.62376,0.596788 -0.0175,0.0125 -0.0968,0.06768 -0.17601,0.123233 -0.13551,0.09501 -0.25325,0.143584 -0.14776,0.06125 z m -4.62911,-2.176817 c -0.0979,-0.118033 -0.15949,-0.326468 -0.16001,-0.542696 -3.5e-4,-0.123932 -0.0125,-0.225414 -0.0278,-0.225414 -0.0143,0 -0.15841,0.06035 -0.31868,0.134284 -0.16038,0.07375 -0.38242,0.166985 -0.49357,0.207162 -0.11108,0.04018 -0.21608,0.08233 -0.23318,0.09376 -0.0417,0.02768 -0.475,0.176611 -0.58362,0.200437 -0.18706,0.04108 -0.2853,-0.08608 -0.34976,-0.452335 -0.0545,-0.309554 -0.0545,-0.311304 -0.005,-0.223263 0.052,0.09358 0.29986,0.350986 0.33795,0.350986 0.0432,0 0.40248,-0.142859 0.67373,-0.267926 0.12553,-0.05785 0.23254,-0.105182 0.23784,-0.105182 0.005,0 0.18486,-0.0832 0.39902,-0.185111 0.66425,-0.315824 0.68894,-0.322787 0.78154,-0.220438 0.0571,0.06323 0.0559,0.114482 -0.0108,0.405562 -0.0936,0.348416 -0.1046,0.491407 -0.12803,0.74619 0,0.0816 -0.0765,0.135533 -0.11911,0.0841 z"
       id="path7655"
       inkscape:connector-curvature="0"
       sodipodi:nodetypes="csccccsccccsccccccccccsccccccscsscscscccscccscssssssccccscccccccccsscsscsssccccccscccsscscscccccc" />
  </g>
</svg>
