<svg width="13.23mm" height="5.558mm" version="1.1" viewBox="0 0 13.23 5.558" xmlns="http://www.w3.org/2000/svg"><rect x="-.00024501" y="8.1336e-5" width="13.23" height="5.5578" rx="31.634" ry="0" fill="#222"/><g transform="translate(-96.599 -75.084)" fill="#fff"><path d="m102.07 80.614c-0.80889-0.10536-1.3976-0.50457-1.3336-0.90449 0.0578-0.36134 0.31001-0.61186 0.81124-0.80569 0.20339-0.07858 0.23362-0.0759 0.13959 0.0125-0.16751 0.15824-0.48129 0.55046-0.55544 0.69437-0.087 0.16894-0.011 0.27527 0.29688 0.41526 0.34349 0.15626 0.73643 0.21639 1.4131 0.21639 0.62033 0 1.4978-0.07858 1.9549-0.17519 0.29685-0.06268 1.8853-0.45487 2.2541-0.55648 0.29139-0.08035 0.81037-0.18524 1.6168-0.32705 0.0855-0.01425 0.19051-0.03573 0.23326-0.04608 0.32182-0.07768-0.81577 0.47374-1.3525 0.65563-0.23151 0.0784-0.95738 0.27293-1.2858 0.34449-0.10876 0.02375-0.20851 0.04983-0.22201 0.05823-0.0125 9e-3 -0.11326 0.03483-0.22202 0.05893-0.10875 0.024-0.35619 0.08-0.54998 0.12411-0.506 0.11536-1.044 0.19709-1.546 0.23489-0.4963 0.03733-1.3649 0.03733-1.6523-5.3e-5zm4.1258-1.1983c-0.61037-0.12626-0.88726-0.19451-0.86488-0.21341 5e-3 -0.0053 0.18476-0.016 0.3985-0.02715 0.21376-0.01075 0.5307-0.03358 0.70429-0.0516 0.3355-0.03483 0.54186-0.01075 0.62546 0.07268 0.0663 0.06625 0.025 0.20199-0.0735 0.23926-0.10901 0.04143-0.54651 0.03053-0.78995-0.01975zm-9.5918-0.26118c-0.0098-0.016 0.11811-0.12911 0.28424-0.25188 0.16611-0.12268 0.45696-0.34888 0.6463-0.50262 0.43568-0.35379 0.81494-0.65661 1.277-1.0196 0.13681-0.10751 0.25573-0.20406 0.26428-0.21461 0.04035-0.04983 0.64831-0.51748 1.0105-0.77728 0.22232-0.15946 0.49514-0.36232 0.60629-0.4508 0.18892-0.15036 0.4041-0.27579 0.42954-0.25034 0.0354 0.03535-1.0692 1.1423-1.49 1.493-0.16414 0.13681-0.36573 0.30468-0.44799 0.3731-0.84115 0.69944-1.3495 1.0445-2.067 1.403-0.40537 0.20254-0.49011 0.23526-0.51306 0.19811zm0.94834-0.02768c0.04275-0.016 0.23861-0.06555 0.43528-0.11108 0.19666-0.04555 0.70034-0.16698 1.1193-0.26955 0.41896-0.10268 0.85268-0.20891 0.96384-0.23614 0.11113-0.02715 0.40496-0.0857 0.65293-0.13001l0.45082-0.08053 0.0187-0.15554c0.0697-0.57954 0.0701-0.55436-0.01-0.53264-0.14041 0.03858-0.67031 0.07893-1.2224 0.09303-0.6049 0.016-0.61161 0.0053-0.07773-0.12126 0.11116-0.02625 0.36366-0.10233 0.56114-0.16911 0.38548-0.13018 0.95953-0.28046 1.071-0.28046 0.12543 0 0.18471 0.10823 0.19746 0.36056 0.0155 0.30864-8e-3 0.41517-0.13706 0.6062-0.0596 0.08876-0.10408 0.16574-0.0987 0.17108 5e-3 0.0053 0.10021-0.0035 0.21069-0.0185 0.11051-0.016 0.45975-0.0566 0.77611-0.09126 0.31635-0.03465 0.62766-0.07053 0.69179-0.07945 0.20164-0.0284 0.12679 0.03358-0.1243 0.10323-0.13251 0.0368-0.40885 0.11716-0.61405 0.17891-1.1782 0.35429-1.678 0.46205-2.5806 0.55636-0.58321 0.0609-1.2438 0.13198-1.5857 0.17054-0.44806 0.05053-0.7886 0.06785-0.69956 0.03573zm11.133-0.57167c0.0975-0.07643 0.30697-0.39211 0.38822-0.58543 0.046-0.10928 0.11726-0.26511 0.15826-0.34632 0.084-0.16574 0.0695-0.17786-0.14075-0.11751-0.058 0.016-0.37953 0.05215-0.7149 0.07893-0.33542 0.02678-0.77072 0.06198-0.96736 0.07823-0.36637 0.03018-2.5102 0.04285-2.4821 0.01425 8e-3 -9e-3 0.35019-0.06448 0.75917-0.12411 0.40897-0.05965 0.8485-0.12948 0.97673-0.15501 0.12826-0.02553 0.35913-0.0609 0.51303-0.07858 1.4675-0.16804 1.8846-0.22529 2.1654-0.297 0.0965-0.02475 0.21076-0.04483 0.25372-0.04483 0.102 0 0.23926 0.16126 0.23926 0.28105 0 0.11303-0.095 0.35633-0.20101 0.51466-0.0655 0.09803-0.48821 0.50235-0.62376 0.59679-0.0175 0.0125-0.0968 0.06768-0.17601 0.12323-0.13551 0.09501-0.25325 0.14358-0.14776 0.06125zm-4.6291-2.1768c-0.0979-0.11803-0.15949-0.32647-0.16001-0.5427-3.5e-4 -0.12393-0.0125-0.22541-0.0278-0.22541-0.0143 0-0.15841 0.06035-0.31868 0.13428-0.16038 0.07375-0.38242 0.16698-0.49357 0.20716-0.11108 0.04018-0.21608 0.08233-0.23318 0.09376-0.0417 0.02768-0.475 0.17661-0.58362 0.20044-0.18706 0.04108-0.2853-0.08608-0.34976-0.45234-0.0545-0.30955-0.0545-0.3113-5e-3 -0.22326 0.052 0.09358 0.29986 0.35099 0.33795 0.35099 0.0432 0 0.40248-0.14286 0.67373-0.26793 0.12553-0.05785 0.23254-0.10518 0.23784-0.10518 5e-3 0 0.18486-0.0832 0.39902-0.18511 0.66425-0.31582 0.68894-0.32279 0.78154-0.22044 0.0571 0.06323 0.0559 0.11448-0.0108 0.40556-0.0936 0.34842-0.1046 0.49141-0.12803 0.74619 0 0.0816-0.0765 0.13553-0.11911 0.0841z" fill="#fff"/></g></svg>
